G04 #@! TF.GenerationSoftware,KiCad,Pcbnew,9.0.4-1.fc42app3*
G04 #@! TF.CreationDate,2025-10-09T13:02:16+02:00*
G04 #@! TF.ProjectId,usb-sniffer_NEW,7573622d-736e-4696-9666-65725f4e4557,v 1.0.0*
G04 #@! TF.SameCoordinates,Original*
G04 #@! TF.FileFunction,Legend,Top*
G04 #@! TF.FilePolarity,Positive*
%FSLAX46Y46*%
G04 Gerber Fmt 4.6, Leading zero omitted, Abs format (unit mm)*
G04 Created by KiCad (PCBNEW 9.0.4-1.fc42app3) date 2025-10-09 13:02:16*
%MOMM*%
%LPD*%
G01*
G04 APERTURE LIST*
%ADD10C,0.127000*%
%ADD11C,0.200000*%
%ADD12C,0.150000*%
%ADD13C,0.100000*%
%ADD14C,0.120000*%
%ADD15C,1.270000*%
%ADD16C,0.685800*%
%ADD17R,1.450000X0.300000*%
%ADD18R,1.450000X0.600000*%
%ADD19R,1.250000X1.550000*%
%ADD20R,1.250000X1.500000*%
%ADD21C,1.016000*%
%ADD22R,0.900000X0.900000*%
%ADD23C,1.700000*%
%ADD24R,2.000000X2.000000*%
%ADD25R,1.200000X0.350000*%
%ADD26O,2.800000X1.600000*%
%ADD27O,3.800000X2.400000*%
G04 APERTURE END LIST*
D10*
X42005857Y-30793253D02*
X42053476Y-30745634D01*
X42053476Y-30745634D02*
X42148714Y-30698015D01*
X42148714Y-30698015D02*
X42386809Y-30698015D01*
X42386809Y-30698015D02*
X42482047Y-30745634D01*
X42482047Y-30745634D02*
X42529666Y-30793253D01*
X42529666Y-30793253D02*
X42577285Y-30888491D01*
X42577285Y-30888491D02*
X42577285Y-30983729D01*
X42577285Y-30983729D02*
X42529666Y-31126586D01*
X42529666Y-31126586D02*
X41958238Y-31698015D01*
X41958238Y-31698015D02*
X42577285Y-31698015D01*
X43196333Y-30698015D02*
X43291571Y-30698015D01*
X43291571Y-30698015D02*
X43386809Y-30745634D01*
X43386809Y-30745634D02*
X43434428Y-30793253D01*
X43434428Y-30793253D02*
X43482047Y-30888491D01*
X43482047Y-30888491D02*
X43529666Y-31078967D01*
X43529666Y-31078967D02*
X43529666Y-31317062D01*
X43529666Y-31317062D02*
X43482047Y-31507538D01*
X43482047Y-31507538D02*
X43434428Y-31602776D01*
X43434428Y-31602776D02*
X43386809Y-31650396D01*
X43386809Y-31650396D02*
X43291571Y-31698015D01*
X43291571Y-31698015D02*
X43196333Y-31698015D01*
X43196333Y-31698015D02*
X43101095Y-31650396D01*
X43101095Y-31650396D02*
X43053476Y-31602776D01*
X43053476Y-31602776D02*
X43005857Y-31507538D01*
X43005857Y-31507538D02*
X42958238Y-31317062D01*
X42958238Y-31317062D02*
X42958238Y-31078967D01*
X42958238Y-31078967D02*
X43005857Y-30888491D01*
X43005857Y-30888491D02*
X43053476Y-30793253D01*
X43053476Y-30793253D02*
X43101095Y-30745634D01*
X43101095Y-30745634D02*
X43196333Y-30698015D01*
X43910619Y-30793253D02*
X43958238Y-30745634D01*
X43958238Y-30745634D02*
X44053476Y-30698015D01*
X44053476Y-30698015D02*
X44291571Y-30698015D01*
X44291571Y-30698015D02*
X44386809Y-30745634D01*
X44386809Y-30745634D02*
X44434428Y-30793253D01*
X44434428Y-30793253D02*
X44482047Y-30888491D01*
X44482047Y-30888491D02*
X44482047Y-30983729D01*
X44482047Y-30983729D02*
X44434428Y-31126586D01*
X44434428Y-31126586D02*
X43863000Y-31698015D01*
X43863000Y-31698015D02*
X44482047Y-31698015D01*
X44815381Y-30698015D02*
X45434428Y-30698015D01*
X45434428Y-30698015D02*
X45101095Y-31078967D01*
X45101095Y-31078967D02*
X45243952Y-31078967D01*
X45243952Y-31078967D02*
X45339190Y-31126586D01*
X45339190Y-31126586D02*
X45386809Y-31174205D01*
X45386809Y-31174205D02*
X45434428Y-31269443D01*
X45434428Y-31269443D02*
X45434428Y-31507538D01*
X45434428Y-31507538D02*
X45386809Y-31602776D01*
X45386809Y-31602776D02*
X45339190Y-31650396D01*
X45339190Y-31650396D02*
X45243952Y-31698015D01*
X45243952Y-31698015D02*
X44958238Y-31698015D01*
X44958238Y-31698015D02*
X44863000Y-31650396D01*
X44863000Y-31650396D02*
X44815381Y-31602776D01*
X45863000Y-31317062D02*
X46624905Y-31317062D01*
X47291571Y-30698015D02*
X47386809Y-30698015D01*
X47386809Y-30698015D02*
X47482047Y-30745634D01*
X47482047Y-30745634D02*
X47529666Y-30793253D01*
X47529666Y-30793253D02*
X47577285Y-30888491D01*
X47577285Y-30888491D02*
X47624904Y-31078967D01*
X47624904Y-31078967D02*
X47624904Y-31317062D01*
X47624904Y-31317062D02*
X47577285Y-31507538D01*
X47577285Y-31507538D02*
X47529666Y-31602776D01*
X47529666Y-31602776D02*
X47482047Y-31650396D01*
X47482047Y-31650396D02*
X47386809Y-31698015D01*
X47386809Y-31698015D02*
X47291571Y-31698015D01*
X47291571Y-31698015D02*
X47196333Y-31650396D01*
X47196333Y-31650396D02*
X47148714Y-31602776D01*
X47148714Y-31602776D02*
X47101095Y-31507538D01*
X47101095Y-31507538D02*
X47053476Y-31317062D01*
X47053476Y-31317062D02*
X47053476Y-31078967D01*
X47053476Y-31078967D02*
X47101095Y-30888491D01*
X47101095Y-30888491D02*
X47148714Y-30793253D01*
X47148714Y-30793253D02*
X47196333Y-30745634D01*
X47196333Y-30745634D02*
X47291571Y-30698015D01*
X48529666Y-30698015D02*
X48053476Y-30698015D01*
X48053476Y-30698015D02*
X48005857Y-31174205D01*
X48005857Y-31174205D02*
X48053476Y-31126586D01*
X48053476Y-31126586D02*
X48148714Y-31078967D01*
X48148714Y-31078967D02*
X48386809Y-31078967D01*
X48386809Y-31078967D02*
X48482047Y-31126586D01*
X48482047Y-31126586D02*
X48529666Y-31174205D01*
X48529666Y-31174205D02*
X48577285Y-31269443D01*
X48577285Y-31269443D02*
X48577285Y-31507538D01*
X48577285Y-31507538D02*
X48529666Y-31602776D01*
X48529666Y-31602776D02*
X48482047Y-31650396D01*
X48482047Y-31650396D02*
X48386809Y-31698015D01*
X48386809Y-31698015D02*
X48148714Y-31698015D01*
X48148714Y-31698015D02*
X48053476Y-31650396D01*
X48053476Y-31650396D02*
X48005857Y-31602776D01*
X49005857Y-31317062D02*
X49767762Y-31317062D01*
X50434428Y-30698015D02*
X50529666Y-30698015D01*
X50529666Y-30698015D02*
X50624904Y-30745634D01*
X50624904Y-30745634D02*
X50672523Y-30793253D01*
X50672523Y-30793253D02*
X50720142Y-30888491D01*
X50720142Y-30888491D02*
X50767761Y-31078967D01*
X50767761Y-31078967D02*
X50767761Y-31317062D01*
X50767761Y-31317062D02*
X50720142Y-31507538D01*
X50720142Y-31507538D02*
X50672523Y-31602776D01*
X50672523Y-31602776D02*
X50624904Y-31650396D01*
X50624904Y-31650396D02*
X50529666Y-31698015D01*
X50529666Y-31698015D02*
X50434428Y-31698015D01*
X50434428Y-31698015D02*
X50339190Y-31650396D01*
X50339190Y-31650396D02*
X50291571Y-31602776D01*
X50291571Y-31602776D02*
X50243952Y-31507538D01*
X50243952Y-31507538D02*
X50196333Y-31317062D01*
X50196333Y-31317062D02*
X50196333Y-31078967D01*
X50196333Y-31078967D02*
X50243952Y-30888491D01*
X50243952Y-30888491D02*
X50291571Y-30793253D01*
X50291571Y-30793253D02*
X50339190Y-30745634D01*
X50339190Y-30745634D02*
X50434428Y-30698015D01*
X51624904Y-30698015D02*
X51434428Y-30698015D01*
X51434428Y-30698015D02*
X51339190Y-30745634D01*
X51339190Y-30745634D02*
X51291571Y-30793253D01*
X51291571Y-30793253D02*
X51196333Y-30936110D01*
X51196333Y-30936110D02*
X51148714Y-31126586D01*
X51148714Y-31126586D02*
X51148714Y-31507538D01*
X51148714Y-31507538D02*
X51196333Y-31602776D01*
X51196333Y-31602776D02*
X51243952Y-31650396D01*
X51243952Y-31650396D02*
X51339190Y-31698015D01*
X51339190Y-31698015D02*
X51529666Y-31698015D01*
X51529666Y-31698015D02*
X51624904Y-31650396D01*
X51624904Y-31650396D02*
X51672523Y-31602776D01*
X51672523Y-31602776D02*
X51720142Y-31507538D01*
X51720142Y-31507538D02*
X51720142Y-31269443D01*
X51720142Y-31269443D02*
X51672523Y-31174205D01*
X51672523Y-31174205D02*
X51624904Y-31126586D01*
X51624904Y-31126586D02*
X51529666Y-31078967D01*
X51529666Y-31078967D02*
X51339190Y-31078967D01*
X51339190Y-31078967D02*
X51243952Y-31126586D01*
X51243952Y-31126586D02*
X51196333Y-31174205D01*
X51196333Y-31174205D02*
X51148714Y-31269443D01*
X28956015Y-34833333D02*
X29670300Y-34833333D01*
X29670300Y-34833333D02*
X29813157Y-34880952D01*
X29813157Y-34880952D02*
X29908396Y-34976190D01*
X29908396Y-34976190D02*
X29956015Y-35119047D01*
X29956015Y-35119047D02*
X29956015Y-35214285D01*
X29289348Y-33928571D02*
X29956015Y-33928571D01*
X28908396Y-34166666D02*
X29622681Y-34404761D01*
X29622681Y-34404761D02*
X29622681Y-33785714D01*
X43434095Y-35444634D02*
X43338857Y-35397015D01*
X43338857Y-35397015D02*
X43196000Y-35397015D01*
X43196000Y-35397015D02*
X43053143Y-35444634D01*
X43053143Y-35444634D02*
X42957905Y-35539872D01*
X42957905Y-35539872D02*
X42910286Y-35635110D01*
X42910286Y-35635110D02*
X42862667Y-35825586D01*
X42862667Y-35825586D02*
X42862667Y-35968443D01*
X42862667Y-35968443D02*
X42910286Y-36158919D01*
X42910286Y-36158919D02*
X42957905Y-36254157D01*
X42957905Y-36254157D02*
X43053143Y-36349396D01*
X43053143Y-36349396D02*
X43196000Y-36397015D01*
X43196000Y-36397015D02*
X43291238Y-36397015D01*
X43291238Y-36397015D02*
X43434095Y-36349396D01*
X43434095Y-36349396D02*
X43481714Y-36301776D01*
X43481714Y-36301776D02*
X43481714Y-35968443D01*
X43481714Y-35968443D02*
X43291238Y-35968443D01*
X43910286Y-36397015D02*
X43910286Y-35397015D01*
X43910286Y-35397015D02*
X44481714Y-36397015D01*
X44481714Y-36397015D02*
X44481714Y-35397015D01*
X44957905Y-36397015D02*
X44957905Y-35397015D01*
X44957905Y-35397015D02*
X45196000Y-35397015D01*
X45196000Y-35397015D02*
X45338857Y-35444634D01*
X45338857Y-35444634D02*
X45434095Y-35539872D01*
X45434095Y-35539872D02*
X45481714Y-35635110D01*
X45481714Y-35635110D02*
X45529333Y-35825586D01*
X45529333Y-35825586D02*
X45529333Y-35968443D01*
X45529333Y-35968443D02*
X45481714Y-36158919D01*
X45481714Y-36158919D02*
X45434095Y-36254157D01*
X45434095Y-36254157D02*
X45338857Y-36349396D01*
X45338857Y-36349396D02*
X45196000Y-36397015D01*
X45196000Y-36397015D02*
X44957905Y-36397015D01*
X57352015Y-57364189D02*
X56352015Y-57364189D01*
X57256776Y-56316571D02*
X57304396Y-56364190D01*
X57304396Y-56364190D02*
X57352015Y-56507047D01*
X57352015Y-56507047D02*
X57352015Y-56602285D01*
X57352015Y-56602285D02*
X57304396Y-56745142D01*
X57304396Y-56745142D02*
X57209157Y-56840380D01*
X57209157Y-56840380D02*
X57113919Y-56887999D01*
X57113919Y-56887999D02*
X56923443Y-56935618D01*
X56923443Y-56935618D02*
X56780586Y-56935618D01*
X56780586Y-56935618D02*
X56590110Y-56887999D01*
X56590110Y-56887999D02*
X56494872Y-56840380D01*
X56494872Y-56840380D02*
X56399634Y-56745142D01*
X56399634Y-56745142D02*
X56352015Y-56602285D01*
X56352015Y-56602285D02*
X56352015Y-56507047D01*
X56352015Y-56507047D02*
X56399634Y-56364190D01*
X56399634Y-56364190D02*
X56447253Y-56316571D01*
X56352015Y-55983237D02*
X56352015Y-55316571D01*
X56352015Y-55316571D02*
X57352015Y-55745142D01*
D11*
X27952219Y-48833333D02*
X28666504Y-48833333D01*
X28666504Y-48833333D02*
X28809361Y-48880952D01*
X28809361Y-48880952D02*
X28904600Y-48976190D01*
X28904600Y-48976190D02*
X28952219Y-49119047D01*
X28952219Y-49119047D02*
X28952219Y-49214285D01*
X28952219Y-47833333D02*
X28952219Y-48404761D01*
X28952219Y-48119047D02*
X27952219Y-48119047D01*
X27952219Y-48119047D02*
X28095076Y-48214285D01*
X28095076Y-48214285D02*
X28190314Y-48309523D01*
X28190314Y-48309523D02*
X28237933Y-48404761D01*
D10*
D12*
X26347619Y-37979819D02*
X26347619Y-36979819D01*
X27395237Y-37884580D02*
X27347618Y-37932200D01*
X27347618Y-37932200D02*
X27204761Y-37979819D01*
X27204761Y-37979819D02*
X27109523Y-37979819D01*
X27109523Y-37979819D02*
X26966666Y-37932200D01*
X26966666Y-37932200D02*
X26871428Y-37836961D01*
X26871428Y-37836961D02*
X26823809Y-37741723D01*
X26823809Y-37741723D02*
X26776190Y-37551247D01*
X26776190Y-37551247D02*
X26776190Y-37408390D01*
X26776190Y-37408390D02*
X26823809Y-37217914D01*
X26823809Y-37217914D02*
X26871428Y-37122676D01*
X26871428Y-37122676D02*
X26966666Y-37027438D01*
X26966666Y-37027438D02*
X27109523Y-36979819D01*
X27109523Y-36979819D02*
X27204761Y-36979819D01*
X27204761Y-36979819D02*
X27347618Y-37027438D01*
X27347618Y-37027438D02*
X27395237Y-37075057D01*
X28347618Y-37979819D02*
X27776190Y-37979819D01*
X28061904Y-37979819D02*
X28061904Y-36979819D01*
X28061904Y-36979819D02*
X27966666Y-37122676D01*
X27966666Y-37122676D02*
X27871428Y-37217914D01*
X27871428Y-37217914D02*
X27776190Y-37265533D01*
X28966666Y-36979819D02*
X29061904Y-36979819D01*
X29061904Y-36979819D02*
X29157142Y-37027438D01*
X29157142Y-37027438D02*
X29204761Y-37075057D01*
X29204761Y-37075057D02*
X29252380Y-37170295D01*
X29252380Y-37170295D02*
X29299999Y-37360771D01*
X29299999Y-37360771D02*
X29299999Y-37598866D01*
X29299999Y-37598866D02*
X29252380Y-37789342D01*
X29252380Y-37789342D02*
X29204761Y-37884580D01*
X29204761Y-37884580D02*
X29157142Y-37932200D01*
X29157142Y-37932200D02*
X29061904Y-37979819D01*
X29061904Y-37979819D02*
X28966666Y-37979819D01*
X28966666Y-37979819D02*
X28871428Y-37932200D01*
X28871428Y-37932200D02*
X28823809Y-37884580D01*
X28823809Y-37884580D02*
X28776190Y-37789342D01*
X28776190Y-37789342D02*
X28728571Y-37598866D01*
X28728571Y-37598866D02*
X28728571Y-37360771D01*
X28728571Y-37360771D02*
X28776190Y-37170295D01*
X28776190Y-37170295D02*
X28823809Y-37075057D01*
X28823809Y-37075057D02*
X28871428Y-37027438D01*
X28871428Y-37027438D02*
X28966666Y-36979819D01*
D10*
X27253015Y-56046666D02*
X26776824Y-56379999D01*
X27253015Y-56618094D02*
X26253015Y-56618094D01*
X26253015Y-56618094D02*
X26253015Y-56237142D01*
X26253015Y-56237142D02*
X26300634Y-56141904D01*
X26300634Y-56141904D02*
X26348253Y-56094285D01*
X26348253Y-56094285D02*
X26443491Y-56046666D01*
X26443491Y-56046666D02*
X26586348Y-56046666D01*
X26586348Y-56046666D02*
X26681586Y-56094285D01*
X26681586Y-56094285D02*
X26729205Y-56141904D01*
X26729205Y-56141904D02*
X26776824Y-56237142D01*
X26776824Y-56237142D02*
X26776824Y-56618094D01*
X26253015Y-55713332D02*
X26253015Y-55046666D01*
X26253015Y-55046666D02*
X27253015Y-55475237D01*
X34631333Y-31825015D02*
X34298000Y-31348824D01*
X34059905Y-31825015D02*
X34059905Y-30825015D01*
X34059905Y-30825015D02*
X34440857Y-30825015D01*
X34440857Y-30825015D02*
X34536095Y-30872634D01*
X34536095Y-30872634D02*
X34583714Y-30920253D01*
X34583714Y-30920253D02*
X34631333Y-31015491D01*
X34631333Y-31015491D02*
X34631333Y-31158348D01*
X34631333Y-31158348D02*
X34583714Y-31253586D01*
X34583714Y-31253586D02*
X34536095Y-31301205D01*
X34536095Y-31301205D02*
X34440857Y-31348824D01*
X34440857Y-31348824D02*
X34059905Y-31348824D01*
X35488476Y-30825015D02*
X35298000Y-30825015D01*
X35298000Y-30825015D02*
X35202762Y-30872634D01*
X35202762Y-30872634D02*
X35155143Y-30920253D01*
X35155143Y-30920253D02*
X35059905Y-31063110D01*
X35059905Y-31063110D02*
X35012286Y-31253586D01*
X35012286Y-31253586D02*
X35012286Y-31634538D01*
X35012286Y-31634538D02*
X35059905Y-31729776D01*
X35059905Y-31729776D02*
X35107524Y-31777396D01*
X35107524Y-31777396D02*
X35202762Y-31825015D01*
X35202762Y-31825015D02*
X35393238Y-31825015D01*
X35393238Y-31825015D02*
X35488476Y-31777396D01*
X35488476Y-31777396D02*
X35536095Y-31729776D01*
X35536095Y-31729776D02*
X35583714Y-31634538D01*
X35583714Y-31634538D02*
X35583714Y-31396443D01*
X35583714Y-31396443D02*
X35536095Y-31301205D01*
X35536095Y-31301205D02*
X35488476Y-31253586D01*
X35488476Y-31253586D02*
X35393238Y-31205967D01*
X35393238Y-31205967D02*
X35202762Y-31205967D01*
X35202762Y-31205967D02*
X35107524Y-31253586D01*
X35107524Y-31253586D02*
X35059905Y-31301205D01*
X35059905Y-31301205D02*
X35012286Y-31396443D01*
X57352015Y-65111189D02*
X56352015Y-65111189D01*
X57256776Y-64063571D02*
X57304396Y-64111190D01*
X57304396Y-64111190D02*
X57352015Y-64254047D01*
X57352015Y-64254047D02*
X57352015Y-64349285D01*
X57352015Y-64349285D02*
X57304396Y-64492142D01*
X57304396Y-64492142D02*
X57209157Y-64587380D01*
X57209157Y-64587380D02*
X57113919Y-64634999D01*
X57113919Y-64634999D02*
X56923443Y-64682618D01*
X56923443Y-64682618D02*
X56780586Y-64682618D01*
X56780586Y-64682618D02*
X56590110Y-64634999D01*
X56590110Y-64634999D02*
X56494872Y-64587380D01*
X56494872Y-64587380D02*
X56399634Y-64492142D01*
X56399634Y-64492142D02*
X56352015Y-64349285D01*
X56352015Y-64349285D02*
X56352015Y-64254047D01*
X56352015Y-64254047D02*
X56399634Y-64111190D01*
X56399634Y-64111190D02*
X56447253Y-64063571D01*
X56352015Y-63730237D02*
X56352015Y-63111190D01*
X56352015Y-63111190D02*
X56732967Y-63444523D01*
X56732967Y-63444523D02*
X56732967Y-63301666D01*
X56732967Y-63301666D02*
X56780586Y-63206428D01*
X56780586Y-63206428D02*
X56828205Y-63158809D01*
X56828205Y-63158809D02*
X56923443Y-63111190D01*
X56923443Y-63111190D02*
X57161538Y-63111190D01*
X57161538Y-63111190D02*
X57256776Y-63158809D01*
X57256776Y-63158809D02*
X57304396Y-63206428D01*
X57304396Y-63206428D02*
X57352015Y-63301666D01*
X57352015Y-63301666D02*
X57352015Y-63587380D01*
X57352015Y-63587380D02*
X57304396Y-63682618D01*
X57304396Y-63682618D02*
X57256776Y-63730237D01*
X38171618Y-36397015D02*
X37838285Y-35920824D01*
X37600190Y-36397015D02*
X37600190Y-35397015D01*
X37600190Y-35397015D02*
X37981142Y-35397015D01*
X37981142Y-35397015D02*
X38076380Y-35444634D01*
X38076380Y-35444634D02*
X38123999Y-35492253D01*
X38123999Y-35492253D02*
X38171618Y-35587491D01*
X38171618Y-35587491D02*
X38171618Y-35730348D01*
X38171618Y-35730348D02*
X38123999Y-35825586D01*
X38123999Y-35825586D02*
X38076380Y-35873205D01*
X38076380Y-35873205D02*
X37981142Y-35920824D01*
X37981142Y-35920824D02*
X37600190Y-35920824D01*
X38600190Y-35873205D02*
X38933523Y-35873205D01*
X39076380Y-36397015D02*
X38600190Y-36397015D01*
X38600190Y-36397015D02*
X38600190Y-35397015D01*
X38600190Y-35397015D02*
X39076380Y-35397015D01*
X39457333Y-36349396D02*
X39600190Y-36397015D01*
X39600190Y-36397015D02*
X39838285Y-36397015D01*
X39838285Y-36397015D02*
X39933523Y-36349396D01*
X39933523Y-36349396D02*
X39981142Y-36301776D01*
X39981142Y-36301776D02*
X40028761Y-36206538D01*
X40028761Y-36206538D02*
X40028761Y-36111300D01*
X40028761Y-36111300D02*
X39981142Y-36016062D01*
X39981142Y-36016062D02*
X39933523Y-35968443D01*
X39933523Y-35968443D02*
X39838285Y-35920824D01*
X39838285Y-35920824D02*
X39647809Y-35873205D01*
X39647809Y-35873205D02*
X39552571Y-35825586D01*
X39552571Y-35825586D02*
X39504952Y-35777967D01*
X39504952Y-35777967D02*
X39457333Y-35682729D01*
X39457333Y-35682729D02*
X39457333Y-35587491D01*
X39457333Y-35587491D02*
X39504952Y-35492253D01*
X39504952Y-35492253D02*
X39552571Y-35444634D01*
X39552571Y-35444634D02*
X39647809Y-35397015D01*
X39647809Y-35397015D02*
X39885904Y-35397015D01*
X39885904Y-35397015D02*
X40028761Y-35444634D01*
X40457333Y-35873205D02*
X40790666Y-35873205D01*
X40933523Y-36397015D02*
X40457333Y-36397015D01*
X40457333Y-36397015D02*
X40457333Y-35397015D01*
X40457333Y-35397015D02*
X40933523Y-35397015D01*
X41219238Y-35397015D02*
X41790666Y-35397015D01*
X41504952Y-36397015D02*
X41504952Y-35397015D01*
X33059857Y-64575205D02*
X33202714Y-64622824D01*
X33202714Y-64622824D02*
X33250333Y-64670443D01*
X33250333Y-64670443D02*
X33297952Y-64765681D01*
X33297952Y-64765681D02*
X33297952Y-64908538D01*
X33297952Y-64908538D02*
X33250333Y-65003776D01*
X33250333Y-65003776D02*
X33202714Y-65051396D01*
X33202714Y-65051396D02*
X33107476Y-65099015D01*
X33107476Y-65099015D02*
X32726524Y-65099015D01*
X32726524Y-65099015D02*
X32726524Y-64099015D01*
X32726524Y-64099015D02*
X33059857Y-64099015D01*
X33059857Y-64099015D02*
X33155095Y-64146634D01*
X33155095Y-64146634D02*
X33202714Y-64194253D01*
X33202714Y-64194253D02*
X33250333Y-64289491D01*
X33250333Y-64289491D02*
X33250333Y-64384729D01*
X33250333Y-64384729D02*
X33202714Y-64479967D01*
X33202714Y-64479967D02*
X33155095Y-64527586D01*
X33155095Y-64527586D02*
X33059857Y-64575205D01*
X33059857Y-64575205D02*
X32726524Y-64575205D01*
X33917000Y-64099015D02*
X34107476Y-64099015D01*
X34107476Y-64099015D02*
X34202714Y-64146634D01*
X34202714Y-64146634D02*
X34297952Y-64241872D01*
X34297952Y-64241872D02*
X34345571Y-64432348D01*
X34345571Y-64432348D02*
X34345571Y-64765681D01*
X34345571Y-64765681D02*
X34297952Y-64956157D01*
X34297952Y-64956157D02*
X34202714Y-65051396D01*
X34202714Y-65051396D02*
X34107476Y-65099015D01*
X34107476Y-65099015D02*
X33917000Y-65099015D01*
X33917000Y-65099015D02*
X33821762Y-65051396D01*
X33821762Y-65051396D02*
X33726524Y-64956157D01*
X33726524Y-64956157D02*
X33678905Y-64765681D01*
X33678905Y-64765681D02*
X33678905Y-64432348D01*
X33678905Y-64432348D02*
X33726524Y-64241872D01*
X33726524Y-64241872D02*
X33821762Y-64146634D01*
X33821762Y-64146634D02*
X33917000Y-64099015D01*
X34964619Y-64099015D02*
X35155095Y-64099015D01*
X35155095Y-64099015D02*
X35250333Y-64146634D01*
X35250333Y-64146634D02*
X35345571Y-64241872D01*
X35345571Y-64241872D02*
X35393190Y-64432348D01*
X35393190Y-64432348D02*
X35393190Y-64765681D01*
X35393190Y-64765681D02*
X35345571Y-64956157D01*
X35345571Y-64956157D02*
X35250333Y-65051396D01*
X35250333Y-65051396D02*
X35155095Y-65099015D01*
X35155095Y-65099015D02*
X34964619Y-65099015D01*
X34964619Y-65099015D02*
X34869381Y-65051396D01*
X34869381Y-65051396D02*
X34774143Y-64956157D01*
X34774143Y-64956157D02*
X34726524Y-64765681D01*
X34726524Y-64765681D02*
X34726524Y-64432348D01*
X34726524Y-64432348D02*
X34774143Y-64241872D01*
X34774143Y-64241872D02*
X34869381Y-64146634D01*
X34869381Y-64146634D02*
X34964619Y-64099015D01*
X35678905Y-64099015D02*
X36250333Y-64099015D01*
X35964619Y-65099015D02*
X35964619Y-64099015D01*
D11*
X71712386Y-35913885D02*
X70998101Y-35913885D01*
X70998101Y-35913885D02*
X70855244Y-35866266D01*
X70855244Y-35866266D02*
X70760006Y-35771028D01*
X70760006Y-35771028D02*
X70712386Y-35628171D01*
X70712386Y-35628171D02*
X70712386Y-35532933D01*
X70712386Y-36913885D02*
X70712386Y-36342457D01*
X70712386Y-36628171D02*
X71712386Y-36628171D01*
X71712386Y-36628171D02*
X71569529Y-36532933D01*
X71569529Y-36532933D02*
X71474291Y-36437695D01*
X71474291Y-36437695D02*
X71426672Y-36342457D01*
D10*
X54939015Y-27789047D02*
X54939015Y-28265237D01*
X54939015Y-28265237D02*
X53939015Y-28265237D01*
X54415205Y-27455713D02*
X54415205Y-27122380D01*
X54939015Y-26979523D02*
X54939015Y-27455713D01*
X54939015Y-27455713D02*
X53939015Y-27455713D01*
X53939015Y-27455713D02*
X53939015Y-26979523D01*
X54939015Y-26550951D02*
X53939015Y-26550951D01*
X53939015Y-26550951D02*
X53939015Y-26312856D01*
X53939015Y-26312856D02*
X53986634Y-26169999D01*
X53986634Y-26169999D02*
X54081872Y-26074761D01*
X54081872Y-26074761D02*
X54177110Y-26027142D01*
X54177110Y-26027142D02*
X54367586Y-25979523D01*
X54367586Y-25979523D02*
X54510443Y-25979523D01*
X54510443Y-25979523D02*
X54700919Y-26027142D01*
X54700919Y-26027142D02*
X54796157Y-26074761D01*
X54796157Y-26074761D02*
X54891396Y-26169999D01*
X54891396Y-26169999D02*
X54939015Y-26312856D01*
X54939015Y-26312856D02*
X54939015Y-26550951D01*
X54034253Y-25598570D02*
X53986634Y-25550951D01*
X53986634Y-25550951D02*
X53939015Y-25455713D01*
X53939015Y-25455713D02*
X53939015Y-25217618D01*
X53939015Y-25217618D02*
X53986634Y-25122380D01*
X53986634Y-25122380D02*
X54034253Y-25074761D01*
X54034253Y-25074761D02*
X54129491Y-25027142D01*
X54129491Y-25027142D02*
X54224729Y-25027142D01*
X54224729Y-25027142D02*
X54367586Y-25074761D01*
X54367586Y-25074761D02*
X54939015Y-25646189D01*
X54939015Y-25646189D02*
X54939015Y-25027142D01*
X76910015Y-47347047D02*
X76910015Y-47823237D01*
X76910015Y-47823237D02*
X75910015Y-47823237D01*
X76386205Y-47013713D02*
X76386205Y-46680380D01*
X76910015Y-46537523D02*
X76910015Y-47013713D01*
X76910015Y-47013713D02*
X75910015Y-47013713D01*
X75910015Y-47013713D02*
X75910015Y-46537523D01*
X76910015Y-46108951D02*
X75910015Y-46108951D01*
X75910015Y-46108951D02*
X75910015Y-45870856D01*
X75910015Y-45870856D02*
X75957634Y-45727999D01*
X75957634Y-45727999D02*
X76052872Y-45632761D01*
X76052872Y-45632761D02*
X76148110Y-45585142D01*
X76148110Y-45585142D02*
X76338586Y-45537523D01*
X76338586Y-45537523D02*
X76481443Y-45537523D01*
X76481443Y-45537523D02*
X76671919Y-45585142D01*
X76671919Y-45585142D02*
X76767157Y-45632761D01*
X76767157Y-45632761D02*
X76862396Y-45727999D01*
X76862396Y-45727999D02*
X76910015Y-45870856D01*
X76910015Y-45870856D02*
X76910015Y-46108951D01*
X75910015Y-45204189D02*
X75910015Y-44537523D01*
X75910015Y-44537523D02*
X76910015Y-44966094D01*
X22331776Y-41409857D02*
X22379396Y-41457476D01*
X22379396Y-41457476D02*
X22427015Y-41600333D01*
X22427015Y-41600333D02*
X22427015Y-41695571D01*
X22427015Y-41695571D02*
X22379396Y-41838428D01*
X22379396Y-41838428D02*
X22284157Y-41933666D01*
X22284157Y-41933666D02*
X22188919Y-41981285D01*
X22188919Y-41981285D02*
X21998443Y-42028904D01*
X21998443Y-42028904D02*
X21855586Y-42028904D01*
X21855586Y-42028904D02*
X21665110Y-41981285D01*
X21665110Y-41981285D02*
X21569872Y-41933666D01*
X21569872Y-41933666D02*
X21474634Y-41838428D01*
X21474634Y-41838428D02*
X21427015Y-41695571D01*
X21427015Y-41695571D02*
X21427015Y-41600333D01*
X21427015Y-41600333D02*
X21474634Y-41457476D01*
X21474634Y-41457476D02*
X21522253Y-41409857D01*
X21522253Y-41028904D02*
X21474634Y-40981285D01*
X21474634Y-40981285D02*
X21427015Y-40886047D01*
X21427015Y-40886047D02*
X21427015Y-40647952D01*
X21427015Y-40647952D02*
X21474634Y-40552714D01*
X21474634Y-40552714D02*
X21522253Y-40505095D01*
X21522253Y-40505095D02*
X21617491Y-40457476D01*
X21617491Y-40457476D02*
X21712729Y-40457476D01*
X21712729Y-40457476D02*
X21855586Y-40505095D01*
X21855586Y-40505095D02*
X22427015Y-41076523D01*
X22427015Y-41076523D02*
X22427015Y-40457476D01*
X21427015Y-39838428D02*
X21427015Y-39743190D01*
X21427015Y-39743190D02*
X21474634Y-39647952D01*
X21474634Y-39647952D02*
X21522253Y-39600333D01*
X21522253Y-39600333D02*
X21617491Y-39552714D01*
X21617491Y-39552714D02*
X21807967Y-39505095D01*
X21807967Y-39505095D02*
X22046062Y-39505095D01*
X22046062Y-39505095D02*
X22236538Y-39552714D01*
X22236538Y-39552714D02*
X22331776Y-39600333D01*
X22331776Y-39600333D02*
X22379396Y-39647952D01*
X22379396Y-39647952D02*
X22427015Y-39743190D01*
X22427015Y-39743190D02*
X22427015Y-39838428D01*
X22427015Y-39838428D02*
X22379396Y-39933666D01*
X22379396Y-39933666D02*
X22331776Y-39981285D01*
X22331776Y-39981285D02*
X22236538Y-40028904D01*
X22236538Y-40028904D02*
X22046062Y-40076523D01*
X22046062Y-40076523D02*
X21807967Y-40076523D01*
X21807967Y-40076523D02*
X21617491Y-40028904D01*
X21617491Y-40028904D02*
X21522253Y-39981285D01*
X21522253Y-39981285D02*
X21474634Y-39933666D01*
X21474634Y-39933666D02*
X21427015Y-39838428D01*
X32702667Y-58511015D02*
X33036000Y-59511015D01*
X33036000Y-59511015D02*
X33369333Y-58511015D01*
X34274095Y-59415776D02*
X34226476Y-59463396D01*
X34226476Y-59463396D02*
X34083619Y-59511015D01*
X34083619Y-59511015D02*
X33988381Y-59511015D01*
X33988381Y-59511015D02*
X33845524Y-59463396D01*
X33845524Y-59463396D02*
X33750286Y-59368157D01*
X33750286Y-59368157D02*
X33702667Y-59272919D01*
X33702667Y-59272919D02*
X33655048Y-59082443D01*
X33655048Y-59082443D02*
X33655048Y-58939586D01*
X33655048Y-58939586D02*
X33702667Y-58749110D01*
X33702667Y-58749110D02*
X33750286Y-58653872D01*
X33750286Y-58653872D02*
X33845524Y-58558634D01*
X33845524Y-58558634D02*
X33988381Y-58511015D01*
X33988381Y-58511015D02*
X34083619Y-58511015D01*
X34083619Y-58511015D02*
X34226476Y-58558634D01*
X34226476Y-58558634D02*
X34274095Y-58606253D01*
X35274095Y-59415776D02*
X35226476Y-59463396D01*
X35226476Y-59463396D02*
X35083619Y-59511015D01*
X35083619Y-59511015D02*
X34988381Y-59511015D01*
X34988381Y-59511015D02*
X34845524Y-59463396D01*
X34845524Y-59463396D02*
X34750286Y-59368157D01*
X34750286Y-59368157D02*
X34702667Y-59272919D01*
X34702667Y-59272919D02*
X34655048Y-59082443D01*
X34655048Y-59082443D02*
X34655048Y-58939586D01*
X34655048Y-58939586D02*
X34702667Y-58749110D01*
X34702667Y-58749110D02*
X34750286Y-58653872D01*
X34750286Y-58653872D02*
X34845524Y-58558634D01*
X34845524Y-58558634D02*
X34988381Y-58511015D01*
X34988381Y-58511015D02*
X35083619Y-58511015D01*
X35083619Y-58511015D02*
X35226476Y-58558634D01*
X35226476Y-58558634D02*
X35274095Y-58606253D01*
X22479095Y-35190634D02*
X22383857Y-35143015D01*
X22383857Y-35143015D02*
X22241000Y-35143015D01*
X22241000Y-35143015D02*
X22098143Y-35190634D01*
X22098143Y-35190634D02*
X22002905Y-35285872D01*
X22002905Y-35285872D02*
X21955286Y-35381110D01*
X21955286Y-35381110D02*
X21907667Y-35571586D01*
X21907667Y-35571586D02*
X21907667Y-35714443D01*
X21907667Y-35714443D02*
X21955286Y-35904919D01*
X21955286Y-35904919D02*
X22002905Y-36000157D01*
X22002905Y-36000157D02*
X22098143Y-36095396D01*
X22098143Y-36095396D02*
X22241000Y-36143015D01*
X22241000Y-36143015D02*
X22336238Y-36143015D01*
X22336238Y-36143015D02*
X22479095Y-36095396D01*
X22479095Y-36095396D02*
X22526714Y-36047776D01*
X22526714Y-36047776D02*
X22526714Y-35714443D01*
X22526714Y-35714443D02*
X22336238Y-35714443D01*
X22955286Y-36143015D02*
X22955286Y-35143015D01*
X22955286Y-35143015D02*
X23526714Y-36143015D01*
X23526714Y-36143015D02*
X23526714Y-35143015D01*
X24002905Y-36143015D02*
X24002905Y-35143015D01*
X24002905Y-35143015D02*
X24241000Y-35143015D01*
X24241000Y-35143015D02*
X24383857Y-35190634D01*
X24383857Y-35190634D02*
X24479095Y-35285872D01*
X24479095Y-35285872D02*
X24526714Y-35381110D01*
X24526714Y-35381110D02*
X24574333Y-35571586D01*
X24574333Y-35571586D02*
X24574333Y-35714443D01*
X24574333Y-35714443D02*
X24526714Y-35904919D01*
X24526714Y-35904919D02*
X24479095Y-36000157D01*
X24479095Y-36000157D02*
X24383857Y-36095396D01*
X24383857Y-36095396D02*
X24241000Y-36143015D01*
X24241000Y-36143015D02*
X24002905Y-36143015D01*
X56463015Y-27789047D02*
X56463015Y-28265237D01*
X56463015Y-28265237D02*
X55463015Y-28265237D01*
X55939205Y-27455713D02*
X55939205Y-27122380D01*
X56463015Y-26979523D02*
X56463015Y-27455713D01*
X56463015Y-27455713D02*
X55463015Y-27455713D01*
X55463015Y-27455713D02*
X55463015Y-26979523D01*
X56463015Y-26550951D02*
X55463015Y-26550951D01*
X55463015Y-26550951D02*
X55463015Y-26312856D01*
X55463015Y-26312856D02*
X55510634Y-26169999D01*
X55510634Y-26169999D02*
X55605872Y-26074761D01*
X55605872Y-26074761D02*
X55701110Y-26027142D01*
X55701110Y-26027142D02*
X55891586Y-25979523D01*
X55891586Y-25979523D02*
X56034443Y-25979523D01*
X56034443Y-25979523D02*
X56224919Y-26027142D01*
X56224919Y-26027142D02*
X56320157Y-26074761D01*
X56320157Y-26074761D02*
X56415396Y-26169999D01*
X56415396Y-26169999D02*
X56463015Y-26312856D01*
X56463015Y-26312856D02*
X56463015Y-26550951D01*
X55463015Y-25646189D02*
X55463015Y-25027142D01*
X55463015Y-25027142D02*
X55843967Y-25360475D01*
X55843967Y-25360475D02*
X55843967Y-25217618D01*
X55843967Y-25217618D02*
X55891586Y-25122380D01*
X55891586Y-25122380D02*
X55939205Y-25074761D01*
X55939205Y-25074761D02*
X56034443Y-25027142D01*
X56034443Y-25027142D02*
X56272538Y-25027142D01*
X56272538Y-25027142D02*
X56367776Y-25074761D01*
X56367776Y-25074761D02*
X56415396Y-25122380D01*
X56415396Y-25122380D02*
X56463015Y-25217618D01*
X56463015Y-25217618D02*
X56463015Y-25503332D01*
X56463015Y-25503332D02*
X56415396Y-25598570D01*
X56415396Y-25598570D02*
X56367776Y-25646189D01*
X64682810Y-46176015D02*
X64682810Y-45176015D01*
X65730428Y-46080776D02*
X65682809Y-46128396D01*
X65682809Y-46128396D02*
X65539952Y-46176015D01*
X65539952Y-46176015D02*
X65444714Y-46176015D01*
X65444714Y-46176015D02*
X65301857Y-46128396D01*
X65301857Y-46128396D02*
X65206619Y-46033157D01*
X65206619Y-46033157D02*
X65159000Y-45937919D01*
X65159000Y-45937919D02*
X65111381Y-45747443D01*
X65111381Y-45747443D02*
X65111381Y-45604586D01*
X65111381Y-45604586D02*
X65159000Y-45414110D01*
X65159000Y-45414110D02*
X65206619Y-45318872D01*
X65206619Y-45318872D02*
X65301857Y-45223634D01*
X65301857Y-45223634D02*
X65444714Y-45176015D01*
X65444714Y-45176015D02*
X65539952Y-45176015D01*
X65539952Y-45176015D02*
X65682809Y-45223634D01*
X65682809Y-45223634D02*
X65730428Y-45271253D01*
X66587571Y-45509348D02*
X66587571Y-46176015D01*
X66349476Y-45128396D02*
X66111381Y-45842681D01*
X66111381Y-45842681D02*
X66730428Y-45842681D01*
X34492015Y-62539476D02*
X34015824Y-62872809D01*
X34492015Y-63110904D02*
X33492015Y-63110904D01*
X33492015Y-63110904D02*
X33492015Y-62729952D01*
X33492015Y-62729952D02*
X33539634Y-62634714D01*
X33539634Y-62634714D02*
X33587253Y-62587095D01*
X33587253Y-62587095D02*
X33682491Y-62539476D01*
X33682491Y-62539476D02*
X33825348Y-62539476D01*
X33825348Y-62539476D02*
X33920586Y-62587095D01*
X33920586Y-62587095D02*
X33968205Y-62634714D01*
X33968205Y-62634714D02*
X34015824Y-62729952D01*
X34015824Y-62729952D02*
X34015824Y-63110904D01*
X34492015Y-62110904D02*
X33492015Y-62110904D01*
X33492015Y-62110904D02*
X34492015Y-61539476D01*
X34492015Y-61539476D02*
X33492015Y-61539476D01*
X33587253Y-61110904D02*
X33539634Y-61063285D01*
X33539634Y-61063285D02*
X33492015Y-60968047D01*
X33492015Y-60968047D02*
X33492015Y-60729952D01*
X33492015Y-60729952D02*
X33539634Y-60634714D01*
X33539634Y-60634714D02*
X33587253Y-60587095D01*
X33587253Y-60587095D02*
X33682491Y-60539476D01*
X33682491Y-60539476D02*
X33777729Y-60539476D01*
X33777729Y-60539476D02*
X33920586Y-60587095D01*
X33920586Y-60587095D02*
X34492015Y-61158523D01*
X34492015Y-61158523D02*
X34492015Y-60539476D01*
X68826142Y-39191015D02*
X68492809Y-38714824D01*
X68254714Y-39191015D02*
X68254714Y-38191015D01*
X68254714Y-38191015D02*
X68635666Y-38191015D01*
X68635666Y-38191015D02*
X68730904Y-38238634D01*
X68730904Y-38238634D02*
X68778523Y-38286253D01*
X68778523Y-38286253D02*
X68826142Y-38381491D01*
X68826142Y-38381491D02*
X68826142Y-38524348D01*
X68826142Y-38524348D02*
X68778523Y-38619586D01*
X68778523Y-38619586D02*
X68730904Y-38667205D01*
X68730904Y-38667205D02*
X68635666Y-38714824D01*
X68635666Y-38714824D02*
X68254714Y-38714824D01*
X69778523Y-39191015D02*
X69207095Y-39191015D01*
X69492809Y-39191015D02*
X69492809Y-38191015D01*
X69492809Y-38191015D02*
X69397571Y-38333872D01*
X69397571Y-38333872D02*
X69302333Y-38429110D01*
X69302333Y-38429110D02*
X69207095Y-38476729D01*
X70730904Y-39191015D02*
X70159476Y-39191015D01*
X70445190Y-39191015D02*
X70445190Y-38191015D01*
X70445190Y-38191015D02*
X70349952Y-38333872D01*
X70349952Y-38333872D02*
X70254714Y-38429110D01*
X70254714Y-38429110D02*
X70159476Y-38476729D01*
X35726810Y-38302015D02*
X35726810Y-37302015D01*
X36774428Y-38206776D02*
X36726809Y-38254396D01*
X36726809Y-38254396D02*
X36583952Y-38302015D01*
X36583952Y-38302015D02*
X36488714Y-38302015D01*
X36488714Y-38302015D02*
X36345857Y-38254396D01*
X36345857Y-38254396D02*
X36250619Y-38159157D01*
X36250619Y-38159157D02*
X36203000Y-38063919D01*
X36203000Y-38063919D02*
X36155381Y-37873443D01*
X36155381Y-37873443D02*
X36155381Y-37730586D01*
X36155381Y-37730586D02*
X36203000Y-37540110D01*
X36203000Y-37540110D02*
X36250619Y-37444872D01*
X36250619Y-37444872D02*
X36345857Y-37349634D01*
X36345857Y-37349634D02*
X36488714Y-37302015D01*
X36488714Y-37302015D02*
X36583952Y-37302015D01*
X36583952Y-37302015D02*
X36726809Y-37349634D01*
X36726809Y-37349634D02*
X36774428Y-37397253D01*
X37250619Y-38302015D02*
X37441095Y-38302015D01*
X37441095Y-38302015D02*
X37536333Y-38254396D01*
X37536333Y-38254396D02*
X37583952Y-38206776D01*
X37583952Y-38206776D02*
X37679190Y-38063919D01*
X37679190Y-38063919D02*
X37726809Y-37873443D01*
X37726809Y-37873443D02*
X37726809Y-37492491D01*
X37726809Y-37492491D02*
X37679190Y-37397253D01*
X37679190Y-37397253D02*
X37631571Y-37349634D01*
X37631571Y-37349634D02*
X37536333Y-37302015D01*
X37536333Y-37302015D02*
X37345857Y-37302015D01*
X37345857Y-37302015D02*
X37250619Y-37349634D01*
X37250619Y-37349634D02*
X37203000Y-37397253D01*
X37203000Y-37397253D02*
X37155381Y-37492491D01*
X37155381Y-37492491D02*
X37155381Y-37730586D01*
X37155381Y-37730586D02*
X37203000Y-37825824D01*
X37203000Y-37825824D02*
X37250619Y-37873443D01*
X37250619Y-37873443D02*
X37345857Y-37921062D01*
X37345857Y-37921062D02*
X37536333Y-37921062D01*
X37536333Y-37921062D02*
X37631571Y-37873443D01*
X37631571Y-37873443D02*
X37679190Y-37825824D01*
X37679190Y-37825824D02*
X37726809Y-37730586D01*
D12*
X62273810Y-31729819D02*
X62273810Y-30729819D01*
X63321428Y-31634580D02*
X63273809Y-31682200D01*
X63273809Y-31682200D02*
X63130952Y-31729819D01*
X63130952Y-31729819D02*
X63035714Y-31729819D01*
X63035714Y-31729819D02*
X62892857Y-31682200D01*
X62892857Y-31682200D02*
X62797619Y-31586961D01*
X62797619Y-31586961D02*
X62750000Y-31491723D01*
X62750000Y-31491723D02*
X62702381Y-31301247D01*
X62702381Y-31301247D02*
X62702381Y-31158390D01*
X62702381Y-31158390D02*
X62750000Y-30967914D01*
X62750000Y-30967914D02*
X62797619Y-30872676D01*
X62797619Y-30872676D02*
X62892857Y-30777438D01*
X62892857Y-30777438D02*
X63035714Y-30729819D01*
X63035714Y-30729819D02*
X63130952Y-30729819D01*
X63130952Y-30729819D02*
X63273809Y-30777438D01*
X63273809Y-30777438D02*
X63321428Y-30825057D01*
X64178571Y-30729819D02*
X63988095Y-30729819D01*
X63988095Y-30729819D02*
X63892857Y-30777438D01*
X63892857Y-30777438D02*
X63845238Y-30825057D01*
X63845238Y-30825057D02*
X63750000Y-30967914D01*
X63750000Y-30967914D02*
X63702381Y-31158390D01*
X63702381Y-31158390D02*
X63702381Y-31539342D01*
X63702381Y-31539342D02*
X63750000Y-31634580D01*
X63750000Y-31634580D02*
X63797619Y-31682200D01*
X63797619Y-31682200D02*
X63892857Y-31729819D01*
X63892857Y-31729819D02*
X64083333Y-31729819D01*
X64083333Y-31729819D02*
X64178571Y-31682200D01*
X64178571Y-31682200D02*
X64226190Y-31634580D01*
X64226190Y-31634580D02*
X64273809Y-31539342D01*
X64273809Y-31539342D02*
X64273809Y-31301247D01*
X64273809Y-31301247D02*
X64226190Y-31206009D01*
X64226190Y-31206009D02*
X64178571Y-31158390D01*
X64178571Y-31158390D02*
X64083333Y-31110771D01*
X64083333Y-31110771D02*
X63892857Y-31110771D01*
X63892857Y-31110771D02*
X63797619Y-31158390D01*
X63797619Y-31158390D02*
X63750000Y-31206009D01*
X63750000Y-31206009D02*
X63702381Y-31301247D01*
D10*
X78307015Y-43949857D02*
X77830824Y-44283190D01*
X78307015Y-44521285D02*
X77307015Y-44521285D01*
X77307015Y-44521285D02*
X77307015Y-44140333D01*
X77307015Y-44140333D02*
X77354634Y-44045095D01*
X77354634Y-44045095D02*
X77402253Y-43997476D01*
X77402253Y-43997476D02*
X77497491Y-43949857D01*
X77497491Y-43949857D02*
X77640348Y-43949857D01*
X77640348Y-43949857D02*
X77735586Y-43997476D01*
X77735586Y-43997476D02*
X77783205Y-44045095D01*
X77783205Y-44045095D02*
X77830824Y-44140333D01*
X77830824Y-44140333D02*
X77830824Y-44521285D01*
X78307015Y-42997476D02*
X78307015Y-43568904D01*
X78307015Y-43283190D02*
X77307015Y-43283190D01*
X77307015Y-43283190D02*
X77449872Y-43378428D01*
X77449872Y-43378428D02*
X77545110Y-43473666D01*
X77545110Y-43473666D02*
X77592729Y-43568904D01*
X77735586Y-42426047D02*
X77687967Y-42521285D01*
X77687967Y-42521285D02*
X77640348Y-42568904D01*
X77640348Y-42568904D02*
X77545110Y-42616523D01*
X77545110Y-42616523D02*
X77497491Y-42616523D01*
X77497491Y-42616523D02*
X77402253Y-42568904D01*
X77402253Y-42568904D02*
X77354634Y-42521285D01*
X77354634Y-42521285D02*
X77307015Y-42426047D01*
X77307015Y-42426047D02*
X77307015Y-42235571D01*
X77307015Y-42235571D02*
X77354634Y-42140333D01*
X77354634Y-42140333D02*
X77402253Y-42092714D01*
X77402253Y-42092714D02*
X77497491Y-42045095D01*
X77497491Y-42045095D02*
X77545110Y-42045095D01*
X77545110Y-42045095D02*
X77640348Y-42092714D01*
X77640348Y-42092714D02*
X77687967Y-42140333D01*
X77687967Y-42140333D02*
X77735586Y-42235571D01*
X77735586Y-42235571D02*
X77735586Y-42426047D01*
X77735586Y-42426047D02*
X77783205Y-42521285D01*
X77783205Y-42521285D02*
X77830824Y-42568904D01*
X77830824Y-42568904D02*
X77926062Y-42616523D01*
X77926062Y-42616523D02*
X78116538Y-42616523D01*
X78116538Y-42616523D02*
X78211776Y-42568904D01*
X78211776Y-42568904D02*
X78259396Y-42521285D01*
X78259396Y-42521285D02*
X78307015Y-42426047D01*
X78307015Y-42426047D02*
X78307015Y-42235571D01*
X78307015Y-42235571D02*
X78259396Y-42140333D01*
X78259396Y-42140333D02*
X78211776Y-42092714D01*
X78211776Y-42092714D02*
X78116538Y-42045095D01*
X78116538Y-42045095D02*
X77926062Y-42045095D01*
X77926062Y-42045095D02*
X77830824Y-42092714D01*
X77830824Y-42092714D02*
X77783205Y-42140333D01*
X77783205Y-42140333D02*
X77735586Y-42235571D01*
D13*
X63957419Y-56833333D02*
X64671704Y-56833333D01*
X64671704Y-56833333D02*
X64814561Y-56880952D01*
X64814561Y-56880952D02*
X64909800Y-56976190D01*
X64909800Y-56976190D02*
X64957419Y-57119047D01*
X64957419Y-57119047D02*
X64957419Y-57214285D01*
X63957419Y-56452380D02*
X63957419Y-55833333D01*
X63957419Y-55833333D02*
X64338371Y-56166666D01*
X64338371Y-56166666D02*
X64338371Y-56023809D01*
X64338371Y-56023809D02*
X64385990Y-55928571D01*
X64385990Y-55928571D02*
X64433609Y-55880952D01*
X64433609Y-55880952D02*
X64528847Y-55833333D01*
X64528847Y-55833333D02*
X64766942Y-55833333D01*
X64766942Y-55833333D02*
X64862180Y-55880952D01*
X64862180Y-55880952D02*
X64909800Y-55928571D01*
X64909800Y-55928571D02*
X64957419Y-56023809D01*
X64957419Y-56023809D02*
X64957419Y-56309523D01*
X64957419Y-56309523D02*
X64909800Y-56404761D01*
X64909800Y-56404761D02*
X64862180Y-56452380D01*
D10*
X30301015Y-46489857D02*
X29824824Y-46823190D01*
X30301015Y-47061285D02*
X29301015Y-47061285D01*
X29301015Y-47061285D02*
X29301015Y-46680333D01*
X29301015Y-46680333D02*
X29348634Y-46585095D01*
X29348634Y-46585095D02*
X29396253Y-46537476D01*
X29396253Y-46537476D02*
X29491491Y-46489857D01*
X29491491Y-46489857D02*
X29634348Y-46489857D01*
X29634348Y-46489857D02*
X29729586Y-46537476D01*
X29729586Y-46537476D02*
X29777205Y-46585095D01*
X29777205Y-46585095D02*
X29824824Y-46680333D01*
X29824824Y-46680333D02*
X29824824Y-47061285D01*
X29396253Y-46108904D02*
X29348634Y-46061285D01*
X29348634Y-46061285D02*
X29301015Y-45966047D01*
X29301015Y-45966047D02*
X29301015Y-45727952D01*
X29301015Y-45727952D02*
X29348634Y-45632714D01*
X29348634Y-45632714D02*
X29396253Y-45585095D01*
X29396253Y-45585095D02*
X29491491Y-45537476D01*
X29491491Y-45537476D02*
X29586729Y-45537476D01*
X29586729Y-45537476D02*
X29729586Y-45585095D01*
X29729586Y-45585095D02*
X30301015Y-46156523D01*
X30301015Y-46156523D02*
X30301015Y-45537476D01*
X29301015Y-44918428D02*
X29301015Y-44823190D01*
X29301015Y-44823190D02*
X29348634Y-44727952D01*
X29348634Y-44727952D02*
X29396253Y-44680333D01*
X29396253Y-44680333D02*
X29491491Y-44632714D01*
X29491491Y-44632714D02*
X29681967Y-44585095D01*
X29681967Y-44585095D02*
X29920062Y-44585095D01*
X29920062Y-44585095D02*
X30110538Y-44632714D01*
X30110538Y-44632714D02*
X30205776Y-44680333D01*
X30205776Y-44680333D02*
X30253396Y-44727952D01*
X30253396Y-44727952D02*
X30301015Y-44823190D01*
X30301015Y-44823190D02*
X30301015Y-44918428D01*
X30301015Y-44918428D02*
X30253396Y-45013666D01*
X30253396Y-45013666D02*
X30205776Y-45061285D01*
X30205776Y-45061285D02*
X30110538Y-45108904D01*
X30110538Y-45108904D02*
X29920062Y-45156523D01*
X29920062Y-45156523D02*
X29681967Y-45156523D01*
X29681967Y-45156523D02*
X29491491Y-45108904D01*
X29491491Y-45108904D02*
X29396253Y-45061285D01*
X29396253Y-45061285D02*
X29348634Y-45013666D01*
X29348634Y-45013666D02*
X29301015Y-44918428D01*
X24107015Y-62698189D02*
X23107015Y-62698189D01*
X24011776Y-61650571D02*
X24059396Y-61698190D01*
X24059396Y-61698190D02*
X24107015Y-61841047D01*
X24107015Y-61841047D02*
X24107015Y-61936285D01*
X24107015Y-61936285D02*
X24059396Y-62079142D01*
X24059396Y-62079142D02*
X23964157Y-62174380D01*
X23964157Y-62174380D02*
X23868919Y-62221999D01*
X23868919Y-62221999D02*
X23678443Y-62269618D01*
X23678443Y-62269618D02*
X23535586Y-62269618D01*
X23535586Y-62269618D02*
X23345110Y-62221999D01*
X23345110Y-62221999D02*
X23249872Y-62174380D01*
X23249872Y-62174380D02*
X23154634Y-62079142D01*
X23154634Y-62079142D02*
X23107015Y-61936285D01*
X23107015Y-61936285D02*
X23107015Y-61841047D01*
X23107015Y-61841047D02*
X23154634Y-61698190D01*
X23154634Y-61698190D02*
X23202253Y-61650571D01*
X23535586Y-61079142D02*
X23487967Y-61174380D01*
X23487967Y-61174380D02*
X23440348Y-61221999D01*
X23440348Y-61221999D02*
X23345110Y-61269618D01*
X23345110Y-61269618D02*
X23297491Y-61269618D01*
X23297491Y-61269618D02*
X23202253Y-61221999D01*
X23202253Y-61221999D02*
X23154634Y-61174380D01*
X23154634Y-61174380D02*
X23107015Y-61079142D01*
X23107015Y-61079142D02*
X23107015Y-60888666D01*
X23107015Y-60888666D02*
X23154634Y-60793428D01*
X23154634Y-60793428D02*
X23202253Y-60745809D01*
X23202253Y-60745809D02*
X23297491Y-60698190D01*
X23297491Y-60698190D02*
X23345110Y-60698190D01*
X23345110Y-60698190D02*
X23440348Y-60745809D01*
X23440348Y-60745809D02*
X23487967Y-60793428D01*
X23487967Y-60793428D02*
X23535586Y-60888666D01*
X23535586Y-60888666D02*
X23535586Y-61079142D01*
X23535586Y-61079142D02*
X23583205Y-61174380D01*
X23583205Y-61174380D02*
X23630824Y-61221999D01*
X23630824Y-61221999D02*
X23726062Y-61269618D01*
X23726062Y-61269618D02*
X23916538Y-61269618D01*
X23916538Y-61269618D02*
X24011776Y-61221999D01*
X24011776Y-61221999D02*
X24059396Y-61174380D01*
X24059396Y-61174380D02*
X24107015Y-61079142D01*
X24107015Y-61079142D02*
X24107015Y-60888666D01*
X24107015Y-60888666D02*
X24059396Y-60793428D01*
X24059396Y-60793428D02*
X24011776Y-60745809D01*
X24011776Y-60745809D02*
X23916538Y-60698190D01*
X23916538Y-60698190D02*
X23726062Y-60698190D01*
X23726062Y-60698190D02*
X23630824Y-60745809D01*
X23630824Y-60745809D02*
X23583205Y-60793428D01*
X23583205Y-60793428D02*
X23535586Y-60888666D01*
X22554015Y-56999047D02*
X22554015Y-57475237D01*
X22554015Y-57475237D02*
X21554015Y-57475237D01*
X22030205Y-56665713D02*
X22030205Y-56332380D01*
X22554015Y-56189523D02*
X22554015Y-56665713D01*
X22554015Y-56665713D02*
X21554015Y-56665713D01*
X21554015Y-56665713D02*
X21554015Y-56189523D01*
X22554015Y-55760951D02*
X21554015Y-55760951D01*
X21554015Y-55760951D02*
X21554015Y-55522856D01*
X21554015Y-55522856D02*
X21601634Y-55379999D01*
X21601634Y-55379999D02*
X21696872Y-55284761D01*
X21696872Y-55284761D02*
X21792110Y-55237142D01*
X21792110Y-55237142D02*
X21982586Y-55189523D01*
X21982586Y-55189523D02*
X22125443Y-55189523D01*
X22125443Y-55189523D02*
X22315919Y-55237142D01*
X22315919Y-55237142D02*
X22411157Y-55284761D01*
X22411157Y-55284761D02*
X22506396Y-55379999D01*
X22506396Y-55379999D02*
X22554015Y-55522856D01*
X22554015Y-55522856D02*
X22554015Y-55760951D01*
X22554015Y-54237142D02*
X22554015Y-54808570D01*
X22554015Y-54522856D02*
X21554015Y-54522856D01*
X21554015Y-54522856D02*
X21696872Y-54618094D01*
X21696872Y-54618094D02*
X21792110Y-54713332D01*
X21792110Y-54713332D02*
X21839729Y-54808570D01*
X21955191Y-33603015D02*
X21955191Y-32603015D01*
X22431381Y-33603015D02*
X22431381Y-32603015D01*
X22431381Y-32603015D02*
X23002809Y-33603015D01*
X23002809Y-33603015D02*
X23002809Y-32603015D01*
X57352015Y-61301189D02*
X56352015Y-61301189D01*
X57256776Y-60253571D02*
X57304396Y-60301190D01*
X57304396Y-60301190D02*
X57352015Y-60444047D01*
X57352015Y-60444047D02*
X57352015Y-60539285D01*
X57352015Y-60539285D02*
X57304396Y-60682142D01*
X57304396Y-60682142D02*
X57209157Y-60777380D01*
X57209157Y-60777380D02*
X57113919Y-60824999D01*
X57113919Y-60824999D02*
X56923443Y-60872618D01*
X56923443Y-60872618D02*
X56780586Y-60872618D01*
X56780586Y-60872618D02*
X56590110Y-60824999D01*
X56590110Y-60824999D02*
X56494872Y-60777380D01*
X56494872Y-60777380D02*
X56399634Y-60682142D01*
X56399634Y-60682142D02*
X56352015Y-60539285D01*
X56352015Y-60539285D02*
X56352015Y-60444047D01*
X56352015Y-60444047D02*
X56399634Y-60301190D01*
X56399634Y-60301190D02*
X56447253Y-60253571D01*
X56352015Y-59348809D02*
X56352015Y-59824999D01*
X56352015Y-59824999D02*
X56828205Y-59872618D01*
X56828205Y-59872618D02*
X56780586Y-59824999D01*
X56780586Y-59824999D02*
X56732967Y-59729761D01*
X56732967Y-59729761D02*
X56732967Y-59491666D01*
X56732967Y-59491666D02*
X56780586Y-59396428D01*
X56780586Y-59396428D02*
X56828205Y-59348809D01*
X56828205Y-59348809D02*
X56923443Y-59301190D01*
X56923443Y-59301190D02*
X57161538Y-59301190D01*
X57161538Y-59301190D02*
X57256776Y-59348809D01*
X57256776Y-59348809D02*
X57304396Y-59396428D01*
X57304396Y-59396428D02*
X57352015Y-59491666D01*
X57352015Y-59491666D02*
X57352015Y-59729761D01*
X57352015Y-59729761D02*
X57304396Y-59824999D01*
X57304396Y-59824999D02*
X57256776Y-59872618D01*
X59511015Y-27789047D02*
X59511015Y-28265237D01*
X59511015Y-28265237D02*
X58511015Y-28265237D01*
X58987205Y-27455713D02*
X58987205Y-27122380D01*
X59511015Y-26979523D02*
X59511015Y-27455713D01*
X59511015Y-27455713D02*
X58511015Y-27455713D01*
X58511015Y-27455713D02*
X58511015Y-26979523D01*
X59511015Y-26550951D02*
X58511015Y-26550951D01*
X58511015Y-26550951D02*
X58511015Y-26312856D01*
X58511015Y-26312856D02*
X58558634Y-26169999D01*
X58558634Y-26169999D02*
X58653872Y-26074761D01*
X58653872Y-26074761D02*
X58749110Y-26027142D01*
X58749110Y-26027142D02*
X58939586Y-25979523D01*
X58939586Y-25979523D02*
X59082443Y-25979523D01*
X59082443Y-25979523D02*
X59272919Y-26027142D01*
X59272919Y-26027142D02*
X59368157Y-26074761D01*
X59368157Y-26074761D02*
X59463396Y-26169999D01*
X59463396Y-26169999D02*
X59511015Y-26312856D01*
X59511015Y-26312856D02*
X59511015Y-26550951D01*
X58511015Y-25074761D02*
X58511015Y-25550951D01*
X58511015Y-25550951D02*
X58987205Y-25598570D01*
X58987205Y-25598570D02*
X58939586Y-25550951D01*
X58939586Y-25550951D02*
X58891967Y-25455713D01*
X58891967Y-25455713D02*
X58891967Y-25217618D01*
X58891967Y-25217618D02*
X58939586Y-25122380D01*
X58939586Y-25122380D02*
X58987205Y-25074761D01*
X58987205Y-25074761D02*
X59082443Y-25027142D01*
X59082443Y-25027142D02*
X59320538Y-25027142D01*
X59320538Y-25027142D02*
X59415776Y-25074761D01*
X59415776Y-25074761D02*
X59463396Y-25122380D01*
X59463396Y-25122380D02*
X59511015Y-25217618D01*
X59511015Y-25217618D02*
X59511015Y-25455713D01*
X59511015Y-25455713D02*
X59463396Y-25550951D01*
X59463396Y-25550951D02*
X59415776Y-25598570D01*
X66286142Y-31983776D02*
X66238523Y-32031396D01*
X66238523Y-32031396D02*
X66095666Y-32079015D01*
X66095666Y-32079015D02*
X66000428Y-32079015D01*
X66000428Y-32079015D02*
X65857571Y-32031396D01*
X65857571Y-32031396D02*
X65762333Y-31936157D01*
X65762333Y-31936157D02*
X65714714Y-31840919D01*
X65714714Y-31840919D02*
X65667095Y-31650443D01*
X65667095Y-31650443D02*
X65667095Y-31507586D01*
X65667095Y-31507586D02*
X65714714Y-31317110D01*
X65714714Y-31317110D02*
X65762333Y-31221872D01*
X65762333Y-31221872D02*
X65857571Y-31126634D01*
X65857571Y-31126634D02*
X66000428Y-31079015D01*
X66000428Y-31079015D02*
X66095666Y-31079015D01*
X66095666Y-31079015D02*
X66238523Y-31126634D01*
X66238523Y-31126634D02*
X66286142Y-31174253D01*
X67238523Y-32079015D02*
X66667095Y-32079015D01*
X66952809Y-32079015D02*
X66952809Y-31079015D01*
X66952809Y-31079015D02*
X66857571Y-31221872D01*
X66857571Y-31221872D02*
X66762333Y-31317110D01*
X66762333Y-31317110D02*
X66667095Y-31364729D01*
X67571857Y-31079015D02*
X68238523Y-31079015D01*
X68238523Y-31079015D02*
X67809952Y-32079015D01*
X62730142Y-39572015D02*
X62396809Y-39095824D01*
X62158714Y-39572015D02*
X62158714Y-38572015D01*
X62158714Y-38572015D02*
X62539666Y-38572015D01*
X62539666Y-38572015D02*
X62634904Y-38619634D01*
X62634904Y-38619634D02*
X62682523Y-38667253D01*
X62682523Y-38667253D02*
X62730142Y-38762491D01*
X62730142Y-38762491D02*
X62730142Y-38905348D01*
X62730142Y-38905348D02*
X62682523Y-39000586D01*
X62682523Y-39000586D02*
X62634904Y-39048205D01*
X62634904Y-39048205D02*
X62539666Y-39095824D01*
X62539666Y-39095824D02*
X62158714Y-39095824D01*
X63682523Y-39572015D02*
X63111095Y-39572015D01*
X63396809Y-39572015D02*
X63396809Y-38572015D01*
X63396809Y-38572015D02*
X63301571Y-38714872D01*
X63301571Y-38714872D02*
X63206333Y-38810110D01*
X63206333Y-38810110D02*
X63111095Y-38857729D01*
X64015857Y-38572015D02*
X64634904Y-38572015D01*
X64634904Y-38572015D02*
X64301571Y-38952967D01*
X64301571Y-38952967D02*
X64444428Y-38952967D01*
X64444428Y-38952967D02*
X64539666Y-39000586D01*
X64539666Y-39000586D02*
X64587285Y-39048205D01*
X64587285Y-39048205D02*
X64634904Y-39143443D01*
X64634904Y-39143443D02*
X64634904Y-39381538D01*
X64634904Y-39381538D02*
X64587285Y-39476776D01*
X64587285Y-39476776D02*
X64539666Y-39524396D01*
X64539666Y-39524396D02*
X64444428Y-39572015D01*
X64444428Y-39572015D02*
X64158714Y-39572015D01*
X64158714Y-39572015D02*
X64063476Y-39524396D01*
X64063476Y-39524396D02*
X64015857Y-39476776D01*
X65905142Y-39191015D02*
X65571809Y-38714824D01*
X65333714Y-39191015D02*
X65333714Y-38191015D01*
X65333714Y-38191015D02*
X65714666Y-38191015D01*
X65714666Y-38191015D02*
X65809904Y-38238634D01*
X65809904Y-38238634D02*
X65857523Y-38286253D01*
X65857523Y-38286253D02*
X65905142Y-38381491D01*
X65905142Y-38381491D02*
X65905142Y-38524348D01*
X65905142Y-38524348D02*
X65857523Y-38619586D01*
X65857523Y-38619586D02*
X65809904Y-38667205D01*
X65809904Y-38667205D02*
X65714666Y-38714824D01*
X65714666Y-38714824D02*
X65333714Y-38714824D01*
X66857523Y-39191015D02*
X66286095Y-39191015D01*
X66571809Y-39191015D02*
X66571809Y-38191015D01*
X66571809Y-38191015D02*
X66476571Y-38333872D01*
X66476571Y-38333872D02*
X66381333Y-38429110D01*
X66381333Y-38429110D02*
X66286095Y-38476729D01*
X67190857Y-38191015D02*
X67857523Y-38191015D01*
X67857523Y-38191015D02*
X67428952Y-39191015D01*
X52109810Y-54764015D02*
X52109810Y-53764015D01*
X53157428Y-54668776D02*
X53109809Y-54716396D01*
X53109809Y-54716396D02*
X52966952Y-54764015D01*
X52966952Y-54764015D02*
X52871714Y-54764015D01*
X52871714Y-54764015D02*
X52728857Y-54716396D01*
X52728857Y-54716396D02*
X52633619Y-54621157D01*
X52633619Y-54621157D02*
X52586000Y-54525919D01*
X52586000Y-54525919D02*
X52538381Y-54335443D01*
X52538381Y-54335443D02*
X52538381Y-54192586D01*
X52538381Y-54192586D02*
X52586000Y-54002110D01*
X52586000Y-54002110D02*
X52633619Y-53906872D01*
X52633619Y-53906872D02*
X52728857Y-53811634D01*
X52728857Y-53811634D02*
X52871714Y-53764015D01*
X52871714Y-53764015D02*
X52966952Y-53764015D01*
X52966952Y-53764015D02*
X53109809Y-53811634D01*
X53109809Y-53811634D02*
X53157428Y-53859253D01*
X54109809Y-54764015D02*
X53538381Y-54764015D01*
X53824095Y-54764015D02*
X53824095Y-53764015D01*
X53824095Y-53764015D02*
X53728857Y-53906872D01*
X53728857Y-53906872D02*
X53633619Y-54002110D01*
X53633619Y-54002110D02*
X53538381Y-54049729D01*
X57987015Y-27789047D02*
X57987015Y-28265237D01*
X57987015Y-28265237D02*
X56987015Y-28265237D01*
X57463205Y-27455713D02*
X57463205Y-27122380D01*
X57987015Y-26979523D02*
X57987015Y-27455713D01*
X57987015Y-27455713D02*
X56987015Y-27455713D01*
X56987015Y-27455713D02*
X56987015Y-26979523D01*
X57987015Y-26550951D02*
X56987015Y-26550951D01*
X56987015Y-26550951D02*
X56987015Y-26312856D01*
X56987015Y-26312856D02*
X57034634Y-26169999D01*
X57034634Y-26169999D02*
X57129872Y-26074761D01*
X57129872Y-26074761D02*
X57225110Y-26027142D01*
X57225110Y-26027142D02*
X57415586Y-25979523D01*
X57415586Y-25979523D02*
X57558443Y-25979523D01*
X57558443Y-25979523D02*
X57748919Y-26027142D01*
X57748919Y-26027142D02*
X57844157Y-26074761D01*
X57844157Y-26074761D02*
X57939396Y-26169999D01*
X57939396Y-26169999D02*
X57987015Y-26312856D01*
X57987015Y-26312856D02*
X57987015Y-26550951D01*
X57320348Y-25122380D02*
X57987015Y-25122380D01*
X56939396Y-25360475D02*
X57653681Y-25598570D01*
X57653681Y-25598570D02*
X57653681Y-24979523D01*
X71068015Y-36837857D02*
X70591824Y-37171190D01*
X71068015Y-37409285D02*
X70068015Y-37409285D01*
X70068015Y-37409285D02*
X70068015Y-37028333D01*
X70068015Y-37028333D02*
X70115634Y-36933095D01*
X70115634Y-36933095D02*
X70163253Y-36885476D01*
X70163253Y-36885476D02*
X70258491Y-36837857D01*
X70258491Y-36837857D02*
X70401348Y-36837857D01*
X70401348Y-36837857D02*
X70496586Y-36885476D01*
X70496586Y-36885476D02*
X70544205Y-36933095D01*
X70544205Y-36933095D02*
X70591824Y-37028333D01*
X70591824Y-37028333D02*
X70591824Y-37409285D01*
X71068015Y-35885476D02*
X71068015Y-36456904D01*
X71068015Y-36171190D02*
X70068015Y-36171190D01*
X70068015Y-36171190D02*
X70210872Y-36266428D01*
X70210872Y-36266428D02*
X70306110Y-36361666D01*
X70306110Y-36361666D02*
X70353729Y-36456904D01*
X70068015Y-35266428D02*
X70068015Y-35171190D01*
X70068015Y-35171190D02*
X70115634Y-35075952D01*
X70115634Y-35075952D02*
X70163253Y-35028333D01*
X70163253Y-35028333D02*
X70258491Y-34980714D01*
X70258491Y-34980714D02*
X70448967Y-34933095D01*
X70448967Y-34933095D02*
X70687062Y-34933095D01*
X70687062Y-34933095D02*
X70877538Y-34980714D01*
X70877538Y-34980714D02*
X70972776Y-35028333D01*
X70972776Y-35028333D02*
X71020396Y-35075952D01*
X71020396Y-35075952D02*
X71068015Y-35171190D01*
X71068015Y-35171190D02*
X71068015Y-35266428D01*
X71068015Y-35266428D02*
X71020396Y-35361666D01*
X71020396Y-35361666D02*
X70972776Y-35409285D01*
X70972776Y-35409285D02*
X70877538Y-35456904D01*
X70877538Y-35456904D02*
X70687062Y-35504523D01*
X70687062Y-35504523D02*
X70448967Y-35504523D01*
X70448967Y-35504523D02*
X70258491Y-35456904D01*
X70258491Y-35456904D02*
X70163253Y-35409285D01*
X70163253Y-35409285D02*
X70115634Y-35361666D01*
X70115634Y-35361666D02*
X70068015Y-35266428D01*
D11*
X58039000Y-56515000D02*
X58039000Y-54864000D01*
D10*
X58166000Y-58039000D02*
X58166000Y-54991000D01*
D11*
X59690000Y-54864000D02*
X58039000Y-54864000D01*
D10*
X62484000Y-54991000D02*
X58166000Y-54991000D01*
X62484000Y-58039000D02*
X58166000Y-58039000D01*
X62484000Y-58039000D02*
X62484000Y-54991000D01*
X20509768Y-43800000D02*
X20509768Y-53000000D01*
X21822268Y-53050000D02*
X20497268Y-53050000D01*
X21872268Y-43750000D02*
X20547268Y-43750000D01*
X25759768Y-53050000D02*
X23084768Y-53050000D01*
X25772268Y-43750000D02*
X23097268Y-43750000D01*
X26472268Y-44110000D02*
X26472268Y-52750000D01*
X26472268Y-45400000D02*
X26472268Y-51400000D01*
D14*
X24675000Y-38450000D02*
X28675000Y-38450000D01*
X24675000Y-41350000D02*
X24675000Y-38450000D01*
X25475000Y-42150000D02*
X24675000Y-41350000D01*
X28675000Y-38450000D02*
X28675000Y-42150000D01*
X28675000Y-42150000D02*
X25475000Y-42150000D01*
D10*
X24396000Y-57430000D02*
X25896000Y-57430000D01*
X25896000Y-54330000D01*
X24396000Y-54330000D01*
X24396000Y-57430000D01*
X36348000Y-33643000D02*
X33248000Y-33643000D01*
X33248000Y-32143000D01*
X36348000Y-32143000D01*
X36348000Y-33643000D01*
D11*
X58039000Y-64135000D02*
X58039000Y-62484000D01*
D10*
X58166000Y-65659000D02*
X58166000Y-62611000D01*
D11*
X59690000Y-62484000D02*
X58039000Y-62484000D01*
D10*
X62484000Y-62611000D02*
X58166000Y-62611000D01*
X62484000Y-65659000D02*
X58166000Y-65659000D01*
X62484000Y-65659000D02*
X62484000Y-62611000D01*
X73192338Y-39347219D02*
X73192338Y-33347219D01*
X73192338Y-40637219D02*
X73192338Y-31997219D01*
X73892338Y-40997219D02*
X76567338Y-40997219D01*
X73904838Y-31697219D02*
X76579838Y-31697219D01*
X77792338Y-40997219D02*
X79117338Y-40997219D01*
X77842338Y-31697219D02*
X79167338Y-31697219D01*
X79154838Y-40947219D02*
X79154838Y-31747219D01*
X55233000Y-31597000D02*
X53733000Y-31597000D01*
X53733000Y-34697000D01*
X55233000Y-34697000D01*
X55233000Y-31597000D01*
X73926000Y-47778000D02*
X75426000Y-47778000D01*
X75426000Y-44678000D01*
X73926000Y-44678000D01*
X73926000Y-47778000D01*
X24245000Y-39217000D02*
X22745000Y-39217000D01*
X22745000Y-42317000D01*
X24245000Y-42317000D01*
X24245000Y-39217000D01*
X30480000Y-35052000D02*
X31115000Y-34417000D01*
X30480000Y-36322000D02*
X30480000Y-35052000D01*
X30480000Y-36322000D02*
X31115000Y-36957000D01*
X31115000Y-34417000D02*
X32385000Y-34417000D01*
X31115000Y-36957000D02*
X32385000Y-36957000D01*
X32385000Y-34417000D02*
X33020000Y-35052000D01*
X32385000Y-36957000D02*
X33020000Y-36322000D01*
X33020000Y-36322000D02*
X33020000Y-35052000D01*
X56757000Y-31597000D02*
X55257000Y-31597000D01*
X55257000Y-34697000D01*
X56757000Y-34697000D01*
X56757000Y-31597000D01*
X63549000Y-40104800D02*
X63549000Y-40579800D01*
X63549000Y-44324800D02*
X63549000Y-43849800D01*
X64024000Y-40104800D02*
X63549000Y-40104800D01*
X64024000Y-44324800D02*
X63549000Y-44324800D01*
X67294000Y-40104800D02*
X67769000Y-40104800D01*
X67294000Y-44324800D02*
X67769000Y-44324800D01*
X67769000Y-40104800D02*
X67769000Y-40579800D01*
X67769000Y-44324800D02*
X67769000Y-43849800D01*
X62865000Y-40944800D02*
X62611000Y-41198800D01*
X62611000Y-40690800D01*
X62865000Y-40944800D01*
G36*
X62865000Y-40944800D02*
G01*
X62611000Y-41198800D01*
X62611000Y-40690800D01*
X62865000Y-40944800D01*
G37*
D14*
X30099000Y-60099000D02*
X30099000Y-63599000D01*
X33123000Y-60099000D02*
X30123000Y-60099000D01*
X33123000Y-60099000D02*
X33123000Y-63599000D01*
X33123000Y-63599000D02*
X30123000Y-63599000D01*
D10*
X66687000Y-37745000D02*
X68187000Y-37745000D01*
X68187000Y-34645000D01*
X66687000Y-34645000D01*
X66687000Y-37745000D01*
X33147000Y-38608000D02*
X40259000Y-38608000D01*
X33147000Y-39624000D02*
X34163000Y-38608000D01*
X33147000Y-56896000D02*
X33147000Y-38608000D01*
X33147000Y-56896000D02*
X40259000Y-56896000D01*
X40259000Y-38608000D02*
X40259000Y-56896000D01*
D14*
X61400000Y-33075000D02*
X62200000Y-32275000D01*
X61400000Y-36275000D02*
X61400000Y-33075000D01*
X62200000Y-32275000D02*
X65100000Y-32275000D01*
X65100000Y-32275000D02*
X65100000Y-36275000D01*
X65100000Y-36275000D02*
X61400000Y-36275000D01*
D10*
X76988000Y-44057000D02*
X73888000Y-44057000D01*
X73888000Y-42557000D01*
X76988000Y-42557000D01*
X76988000Y-44057000D01*
X65678169Y-50437938D02*
X65678169Y-52337938D01*
X65678169Y-50437938D02*
X67278169Y-50437938D01*
X65678169Y-65237938D02*
X65678169Y-63337938D01*
X65678169Y-65237938D02*
X67278169Y-65237938D01*
X78682946Y-51339435D02*
X70932946Y-51339435D01*
X78682946Y-64479435D02*
X70932946Y-64479435D01*
X78682946Y-64479435D02*
X78682946Y-51379435D01*
X29095000Y-44222000D02*
X30595000Y-44222000D01*
X30595000Y-41122000D01*
X29095000Y-41122000D01*
X29095000Y-44222000D01*
X24511000Y-62992000D02*
X24511000Y-60452000D01*
X25400000Y-62992000D02*
X24511000Y-62103000D01*
X29591000Y-60452000D02*
X24511000Y-60452000D01*
X29591000Y-62992000D02*
X24511000Y-62992000D01*
X29591000Y-62992000D02*
X29591000Y-60452000D01*
X22872000Y-57430000D02*
X24372000Y-57430000D01*
X24372000Y-54330000D01*
X22872000Y-54330000D01*
X22872000Y-57430000D01*
X30480000Y-32512000D02*
X31115000Y-31877000D01*
X30480000Y-33782000D02*
X30480000Y-32512000D01*
X30480000Y-33782000D02*
X31115000Y-34417000D01*
X31115000Y-31877000D02*
X32385000Y-31877000D01*
X31115000Y-34417000D02*
X32385000Y-34417000D01*
X32385000Y-31877000D02*
X33020000Y-32512000D01*
X32385000Y-34417000D02*
X33020000Y-33782000D01*
X33020000Y-33782000D02*
X33020000Y-32512000D01*
D11*
X58039000Y-60325000D02*
X58039000Y-58674000D01*
D10*
X58166000Y-61849000D02*
X58166000Y-58801000D01*
D11*
X59690000Y-58674000D02*
X58039000Y-58674000D01*
D10*
X62484000Y-58801000D02*
X58166000Y-58801000D01*
X62484000Y-61849000D02*
X58166000Y-61849000D01*
X62484000Y-61849000D02*
X62484000Y-58801000D01*
X59805000Y-31597000D02*
X58305000Y-31597000D01*
X58305000Y-34697000D01*
X59805000Y-34697000D01*
X59805000Y-31597000D01*
X65379000Y-32397000D02*
X68479000Y-32397000D01*
X68479000Y-33897000D01*
X65379000Y-33897000D01*
X65379000Y-32397000D01*
X61823000Y-36715000D02*
X64923000Y-36715000D01*
X64923000Y-38215000D01*
X61823000Y-38215000D01*
X61823000Y-36715000D01*
X65163000Y-37745000D02*
X66663000Y-37745000D01*
X66663000Y-34645000D01*
X65163000Y-34645000D01*
X65163000Y-37745000D01*
X46482000Y-38354000D02*
X59690000Y-38354000D01*
X46482000Y-51562000D02*
X46482000Y-38354000D01*
X58928000Y-51562000D02*
X46482000Y-51562000D01*
X58928000Y-51562000D02*
X59690000Y-50800000D01*
X59690000Y-38354000D02*
X59690000Y-50800000D01*
X62230000Y-51308000D02*
X61976000Y-51054000D01*
X62230000Y-50800000D01*
X62230000Y-51308000D01*
G36*
X62230000Y-51308000D02*
G01*
X61976000Y-51054000D01*
X62230000Y-50800000D01*
X62230000Y-51308000D01*
G37*
X58281000Y-31597000D02*
X56781000Y-31597000D01*
X56781000Y-34697000D01*
X58281000Y-34697000D01*
X58281000Y-31597000D01*
X68211000Y-37745000D02*
X69711000Y-37745000D01*
X69711000Y-34645000D01*
X68211000Y-34645000D01*
X68211000Y-37745000D01*
%LPC*%
D15*
X43434000Y-37465000D03*
G36*
G01*
X58525000Y-55640000D02*
X58525000Y-55440000D01*
G75*
G02*
X58625000Y-55340000I100000J0D01*
G01*
X59750000Y-55340000D01*
G75*
G02*
X59850000Y-55440000I0J-100000D01*
G01*
X59850000Y-55640000D01*
G75*
G02*
X59750000Y-55740000I-100000J0D01*
G01*
X58625000Y-55740000D01*
G75*
G02*
X58525000Y-55640000I0J100000D01*
G01*
G37*
G36*
G01*
X58525000Y-56290000D02*
X58525000Y-56090000D01*
G75*
G02*
X58625000Y-55990000I100000J0D01*
G01*
X59750000Y-55990000D01*
G75*
G02*
X59850000Y-56090000I0J-100000D01*
G01*
X59850000Y-56290000D01*
G75*
G02*
X59750000Y-56390000I-100000J0D01*
G01*
X58625000Y-56390000D01*
G75*
G02*
X58525000Y-56290000I0J100000D01*
G01*
G37*
G36*
G01*
X58525000Y-56940000D02*
X58525000Y-56740000D01*
G75*
G02*
X58625000Y-56640000I100000J0D01*
G01*
X59750000Y-56640000D01*
G75*
G02*
X59850000Y-56740000I0J-100000D01*
G01*
X59850000Y-56940000D01*
G75*
G02*
X59750000Y-57040000I-100000J0D01*
G01*
X58625000Y-57040000D01*
G75*
G02*
X58525000Y-56940000I0J100000D01*
G01*
G37*
G36*
G01*
X58525000Y-57590000D02*
X58525000Y-57390000D01*
G75*
G02*
X58625000Y-57290000I100000J0D01*
G01*
X59750000Y-57290000D01*
G75*
G02*
X59850000Y-57390000I0J-100000D01*
G01*
X59850000Y-57590000D01*
G75*
G02*
X59750000Y-57690000I-100000J0D01*
G01*
X58625000Y-57690000D01*
G75*
G02*
X58525000Y-57590000I0J100000D01*
G01*
G37*
G36*
G01*
X60800000Y-57590000D02*
X60800000Y-57390000D01*
G75*
G02*
X60900000Y-57290000I100000J0D01*
G01*
X62025000Y-57290000D01*
G75*
G02*
X62125000Y-57390000I0J-100000D01*
G01*
X62125000Y-57590000D01*
G75*
G02*
X62025000Y-57690000I-100000J0D01*
G01*
X60900000Y-57690000D01*
G75*
G02*
X60800000Y-57590000I0J100000D01*
G01*
G37*
G36*
G01*
X60800000Y-56940000D02*
X60800000Y-56740000D01*
G75*
G02*
X60900000Y-56640000I100000J0D01*
G01*
X62025000Y-56640000D01*
G75*
G02*
X62125000Y-56740000I0J-100000D01*
G01*
X62125000Y-56940000D01*
G75*
G02*
X62025000Y-57040000I-100000J0D01*
G01*
X60900000Y-57040000D01*
G75*
G02*
X60800000Y-56940000I0J100000D01*
G01*
G37*
G36*
G01*
X60800000Y-56290000D02*
X60800000Y-56090000D01*
G75*
G02*
X60900000Y-55990000I100000J0D01*
G01*
X62025000Y-55990000D01*
G75*
G02*
X62125000Y-56090000I0J-100000D01*
G01*
X62125000Y-56290000D01*
G75*
G02*
X62025000Y-56390000I-100000J0D01*
G01*
X60900000Y-56390000D01*
G75*
G02*
X60800000Y-56290000I0J100000D01*
G01*
G37*
G36*
G01*
X60800000Y-55640000D02*
X60800000Y-55440000D01*
G75*
G02*
X60900000Y-55340000I100000J0D01*
G01*
X62025000Y-55340000D01*
G75*
G02*
X62125000Y-55440000I0J-100000D01*
G01*
X62125000Y-55640000D01*
G75*
G02*
X62025000Y-55740000I-100000J0D01*
G01*
X60900000Y-55740000D01*
G75*
G02*
X60800000Y-55640000I0J100000D01*
G01*
G37*
D16*
X25622268Y-45400000D03*
X25622268Y-51400000D03*
D17*
X27190518Y-47150000D03*
X27190518Y-50150000D03*
X27190518Y-48150000D03*
X27190518Y-49150000D03*
X27190518Y-48650000D03*
X27190518Y-47650000D03*
D18*
X27190518Y-45150000D03*
X27190518Y-51650000D03*
D19*
X22500000Y-43310000D03*
D20*
X22500000Y-53500000D03*
D19*
X26425000Y-43310000D03*
D20*
X26425000Y-53500000D03*
D17*
X27190518Y-49650000D03*
X27190518Y-46650000D03*
D18*
X27190518Y-45950000D03*
X27190518Y-50850000D03*
D21*
X56007000Y-43688000D03*
D22*
X25625000Y-41200000D03*
X27725000Y-41200000D03*
X27725000Y-39400000D03*
X25625000Y-39400000D03*
G36*
G01*
X25596000Y-54855000D02*
X25596000Y-55305000D01*
G75*
G02*
X25371000Y-55530000I-225000J0D01*
G01*
X24921000Y-55530000D01*
G75*
G02*
X24696000Y-55305000I0J225000D01*
G01*
X24696000Y-54855000D01*
G75*
G02*
X24921000Y-54630000I225000J0D01*
G01*
X25371000Y-54630000D01*
G75*
G02*
X25596000Y-54855000I0J-225000D01*
G01*
G37*
G36*
G01*
X25596000Y-56455000D02*
X25596000Y-56905000D01*
G75*
G02*
X25371000Y-57130000I-225000J0D01*
G01*
X24921000Y-57130000D01*
G75*
G02*
X24696000Y-56905000I0J225000D01*
G01*
X24696000Y-56455000D01*
G75*
G02*
X24921000Y-56230000I225000J0D01*
G01*
X25371000Y-56230000D01*
G75*
G02*
X25596000Y-56455000I0J-225000D01*
G01*
G37*
D21*
X51689000Y-43688000D03*
X51689000Y-39497000D03*
G36*
G01*
X33773000Y-32443000D02*
X34223000Y-32443000D01*
G75*
G02*
X34448000Y-32668000I0J-225000D01*
G01*
X34448000Y-33118000D01*
G75*
G02*
X34223000Y-33343000I-225000J0D01*
G01*
X33773000Y-33343000D01*
G75*
G02*
X33548000Y-33118000I0J225000D01*
G01*
X33548000Y-32668000D01*
G75*
G02*
X33773000Y-32443000I225000J0D01*
G01*
G37*
G36*
G01*
X35373000Y-32443000D02*
X35823000Y-32443000D01*
G75*
G02*
X36048000Y-32668000I0J-225000D01*
G01*
X36048000Y-33118000D01*
G75*
G02*
X35823000Y-33343000I-225000J0D01*
G01*
X35373000Y-33343000D01*
G75*
G02*
X35148000Y-33118000I0J225000D01*
G01*
X35148000Y-32668000D01*
G75*
G02*
X35373000Y-32443000I225000J0D01*
G01*
G37*
G36*
G01*
X58525000Y-63260000D02*
X58525000Y-63060000D01*
G75*
G02*
X58625000Y-62960000I100000J0D01*
G01*
X59750000Y-62960000D01*
G75*
G02*
X59850000Y-63060000I0J-100000D01*
G01*
X59850000Y-63260000D01*
G75*
G02*
X59750000Y-63360000I-100000J0D01*
G01*
X58625000Y-63360000D01*
G75*
G02*
X58525000Y-63260000I0J100000D01*
G01*
G37*
G36*
G01*
X58525000Y-63910000D02*
X58525000Y-63710000D01*
G75*
G02*
X58625000Y-63610000I100000J0D01*
G01*
X59750000Y-63610000D01*
G75*
G02*
X59850000Y-63710000I0J-100000D01*
G01*
X59850000Y-63910000D01*
G75*
G02*
X59750000Y-64010000I-100000J0D01*
G01*
X58625000Y-64010000D01*
G75*
G02*
X58525000Y-63910000I0J100000D01*
G01*
G37*
G36*
G01*
X58525000Y-64560000D02*
X58525000Y-64360000D01*
G75*
G02*
X58625000Y-64260000I100000J0D01*
G01*
X59750000Y-64260000D01*
G75*
G02*
X59850000Y-64360000I0J-100000D01*
G01*
X59850000Y-64560000D01*
G75*
G02*
X59750000Y-64660000I-100000J0D01*
G01*
X58625000Y-64660000D01*
G75*
G02*
X58525000Y-64560000I0J100000D01*
G01*
G37*
G36*
G01*
X58525000Y-65210000D02*
X58525000Y-65010000D01*
G75*
G02*
X58625000Y-64910000I100000J0D01*
G01*
X59750000Y-64910000D01*
G75*
G02*
X59850000Y-65010000I0J-100000D01*
G01*
X59850000Y-65210000D01*
G75*
G02*
X59750000Y-65310000I-100000J0D01*
G01*
X58625000Y-65310000D01*
G75*
G02*
X58525000Y-65210000I0J100000D01*
G01*
G37*
G36*
G01*
X60800000Y-65210000D02*
X60800000Y-65010000D01*
G75*
G02*
X60900000Y-64910000I100000J0D01*
G01*
X62025000Y-64910000D01*
G75*
G02*
X62125000Y-65010000I0J-100000D01*
G01*
X62125000Y-65210000D01*
G75*
G02*
X62025000Y-65310000I-100000J0D01*
G01*
X60900000Y-65310000D01*
G75*
G02*
X60800000Y-65210000I0J100000D01*
G01*
G37*
G36*
G01*
X60800000Y-64560000D02*
X60800000Y-64360000D01*
G75*
G02*
X60900000Y-64260000I100000J0D01*
G01*
X62025000Y-64260000D01*
G75*
G02*
X62125000Y-64360000I0J-100000D01*
G01*
X62125000Y-64560000D01*
G75*
G02*
X62025000Y-64660000I-100000J0D01*
G01*
X60900000Y-64660000D01*
G75*
G02*
X60800000Y-64560000I0J100000D01*
G01*
G37*
G36*
G01*
X60800000Y-63910000D02*
X60800000Y-63710000D01*
G75*
G02*
X60900000Y-63610000I100000J0D01*
G01*
X62025000Y-63610000D01*
G75*
G02*
X62125000Y-63710000I0J-100000D01*
G01*
X62125000Y-63910000D01*
G75*
G02*
X62025000Y-64010000I-100000J0D01*
G01*
X60900000Y-64010000D01*
G75*
G02*
X60800000Y-63910000I0J100000D01*
G01*
G37*
G36*
G01*
X60800000Y-63260000D02*
X60800000Y-63060000D01*
G75*
G02*
X60900000Y-62960000I100000J0D01*
G01*
X62025000Y-62960000D01*
G75*
G02*
X62125000Y-63060000I0J-100000D01*
G01*
X62125000Y-63260000D01*
G75*
G02*
X62025000Y-63360000I-100000J0D01*
G01*
X60900000Y-63360000D01*
G75*
G02*
X60800000Y-63260000I0J100000D01*
G01*
G37*
D15*
X40259000Y-37465000D03*
X31623000Y-64643000D03*
D16*
X74042338Y-39347219D03*
X74042338Y-33347219D03*
D17*
X72474088Y-37597219D03*
X72474088Y-34597219D03*
X72474088Y-36597219D03*
X72474088Y-35597219D03*
X72474088Y-36097219D03*
X72474088Y-37097219D03*
D18*
X72474088Y-39597219D03*
X72474088Y-33097219D03*
D19*
X77164606Y-41437219D03*
D20*
X77164606Y-31247219D03*
D19*
X73239606Y-41437219D03*
D20*
X73239606Y-31247219D03*
D17*
X72474088Y-35097219D03*
X72474088Y-38097219D03*
D18*
X72474088Y-38797219D03*
X72474088Y-33897219D03*
G36*
G01*
X54033000Y-34172000D02*
X54033000Y-33722000D01*
G75*
G02*
X54258000Y-33497000I225000J0D01*
G01*
X54708000Y-33497000D01*
G75*
G02*
X54933000Y-33722000I0J-225000D01*
G01*
X54933000Y-34172000D01*
G75*
G02*
X54708000Y-34397000I-225000J0D01*
G01*
X54258000Y-34397000D01*
G75*
G02*
X54033000Y-34172000I0J225000D01*
G01*
G37*
G36*
G01*
X54033000Y-32572000D02*
X54033000Y-32122000D01*
G75*
G02*
X54258000Y-31897000I225000J0D01*
G01*
X54708000Y-31897000D01*
G75*
G02*
X54933000Y-32122000I0J-225000D01*
G01*
X54933000Y-32572000D01*
G75*
G02*
X54708000Y-32797000I-225000J0D01*
G01*
X54258000Y-32797000D01*
G75*
G02*
X54033000Y-32572000I0J225000D01*
G01*
G37*
G36*
G01*
X75126000Y-45203000D02*
X75126000Y-45653000D01*
G75*
G02*
X74901000Y-45878000I-225000J0D01*
G01*
X74451000Y-45878000D01*
G75*
G02*
X74226000Y-45653000I0J225000D01*
G01*
X74226000Y-45203000D01*
G75*
G02*
X74451000Y-44978000I225000J0D01*
G01*
X74901000Y-44978000D01*
G75*
G02*
X75126000Y-45203000I0J-225000D01*
G01*
G37*
G36*
G01*
X75126000Y-46803000D02*
X75126000Y-47253000D01*
G75*
G02*
X74901000Y-47478000I-225000J0D01*
G01*
X74451000Y-47478000D01*
G75*
G02*
X74226000Y-47253000I0J225000D01*
G01*
X74226000Y-46803000D01*
G75*
G02*
X74451000Y-46578000I225000J0D01*
G01*
X74901000Y-46578000D01*
G75*
G02*
X75126000Y-46803000I0J-225000D01*
G01*
G37*
G36*
G01*
X23045000Y-41792000D02*
X23045000Y-41342000D01*
G75*
G02*
X23270000Y-41117000I225000J0D01*
G01*
X23720000Y-41117000D01*
G75*
G02*
X23945000Y-41342000I0J-225000D01*
G01*
X23945000Y-41792000D01*
G75*
G02*
X23720000Y-42017000I-225000J0D01*
G01*
X23270000Y-42017000D01*
G75*
G02*
X23045000Y-41792000I0J225000D01*
G01*
G37*
G36*
G01*
X23045000Y-40192000D02*
X23045000Y-39742000D01*
G75*
G02*
X23270000Y-39517000I225000J0D01*
G01*
X23720000Y-39517000D01*
G75*
G02*
X23945000Y-39742000I0J-225000D01*
G01*
X23945000Y-40192000D01*
G75*
G02*
X23720000Y-40417000I-225000J0D01*
G01*
X23270000Y-40417000D01*
G75*
G02*
X23045000Y-40192000I0J225000D01*
G01*
G37*
D15*
X31623000Y-59055000D03*
D23*
X31750000Y-35687000D03*
G36*
G01*
X55557000Y-34172000D02*
X55557000Y-33722000D01*
G75*
G02*
X55782000Y-33497000I225000J0D01*
G01*
X56232000Y-33497000D01*
G75*
G02*
X56457000Y-33722000I0J-225000D01*
G01*
X56457000Y-34172000D01*
G75*
G02*
X56232000Y-34397000I-225000J0D01*
G01*
X55782000Y-34397000D01*
G75*
G02*
X55557000Y-34172000I0J225000D01*
G01*
G37*
G36*
G01*
X55557000Y-32572000D02*
X55557000Y-32122000D01*
G75*
G02*
X55782000Y-31897000I225000J0D01*
G01*
X56232000Y-31897000D01*
G75*
G02*
X56457000Y-32122000I0J-225000D01*
G01*
X56457000Y-32572000D01*
G75*
G02*
X56232000Y-32797000I-225000J0D01*
G01*
X55782000Y-32797000D01*
G75*
G02*
X55557000Y-32572000I0J225000D01*
G01*
G37*
G36*
G01*
X63309000Y-41027300D02*
X63309000Y-40902300D01*
G75*
G02*
X63371500Y-40839800I62500J0D01*
G01*
X64071500Y-40839800D01*
G75*
G02*
X64134000Y-40902300I0J-62500D01*
G01*
X64134000Y-41027300D01*
G75*
G02*
X64071500Y-41089800I-62500J0D01*
G01*
X63371500Y-41089800D01*
G75*
G02*
X63309000Y-41027300I0J62500D01*
G01*
G37*
G36*
G01*
X63309000Y-41527300D02*
X63309000Y-41402300D01*
G75*
G02*
X63371500Y-41339800I62500J0D01*
G01*
X64071500Y-41339800D01*
G75*
G02*
X64134000Y-41402300I0J-62500D01*
G01*
X64134000Y-41527300D01*
G75*
G02*
X64071500Y-41589800I-62500J0D01*
G01*
X63371500Y-41589800D01*
G75*
G02*
X63309000Y-41527300I0J62500D01*
G01*
G37*
G36*
G01*
X63309000Y-42027300D02*
X63309000Y-41902300D01*
G75*
G02*
X63371500Y-41839800I62500J0D01*
G01*
X64071500Y-41839800D01*
G75*
G02*
X64134000Y-41902300I0J-62500D01*
G01*
X64134000Y-42027300D01*
G75*
G02*
X64071500Y-42089800I-62500J0D01*
G01*
X63371500Y-42089800D01*
G75*
G02*
X63309000Y-42027300I0J62500D01*
G01*
G37*
G36*
G01*
X63309000Y-42527300D02*
X63309000Y-42402300D01*
G75*
G02*
X63371500Y-42339800I62500J0D01*
G01*
X64071500Y-42339800D01*
G75*
G02*
X64134000Y-42402300I0J-62500D01*
G01*
X64134000Y-42527300D01*
G75*
G02*
X64071500Y-42589800I-62500J0D01*
G01*
X63371500Y-42589800D01*
G75*
G02*
X63309000Y-42527300I0J62500D01*
G01*
G37*
G36*
G01*
X63309000Y-43027300D02*
X63309000Y-42902300D01*
G75*
G02*
X63371500Y-42839800I62500J0D01*
G01*
X64071500Y-42839800D01*
G75*
G02*
X64134000Y-42902300I0J-62500D01*
G01*
X64134000Y-43027300D01*
G75*
G02*
X64071500Y-43089800I-62500J0D01*
G01*
X63371500Y-43089800D01*
G75*
G02*
X63309000Y-43027300I0J62500D01*
G01*
G37*
G36*
G01*
X63309000Y-43527300D02*
X63309000Y-43402300D01*
G75*
G02*
X63371500Y-43339800I62500J0D01*
G01*
X64071500Y-43339800D01*
G75*
G02*
X64134000Y-43402300I0J-62500D01*
G01*
X64134000Y-43527300D01*
G75*
G02*
X64071500Y-43589800I-62500J0D01*
G01*
X63371500Y-43589800D01*
G75*
G02*
X63309000Y-43527300I0J62500D01*
G01*
G37*
G36*
G01*
X64284000Y-44502300D02*
X64284000Y-43802300D01*
G75*
G02*
X64346500Y-43739800I62500J0D01*
G01*
X64471500Y-43739800D01*
G75*
G02*
X64534000Y-43802300I0J-62500D01*
G01*
X64534000Y-44502300D01*
G75*
G02*
X64471500Y-44564800I-62500J0D01*
G01*
X64346500Y-44564800D01*
G75*
G02*
X64284000Y-44502300I0J62500D01*
G01*
G37*
G36*
G01*
X64784000Y-44502300D02*
X64784000Y-43802300D01*
G75*
G02*
X64846500Y-43739800I62500J0D01*
G01*
X64971500Y-43739800D01*
G75*
G02*
X65034000Y-43802300I0J-62500D01*
G01*
X65034000Y-44502300D01*
G75*
G02*
X64971500Y-44564800I-62500J0D01*
G01*
X64846500Y-44564800D01*
G75*
G02*
X64784000Y-44502300I0J62500D01*
G01*
G37*
G36*
G01*
X65284000Y-44502300D02*
X65284000Y-43802300D01*
G75*
G02*
X65346500Y-43739800I62500J0D01*
G01*
X65471500Y-43739800D01*
G75*
G02*
X65534000Y-43802300I0J-62500D01*
G01*
X65534000Y-44502300D01*
G75*
G02*
X65471500Y-44564800I-62500J0D01*
G01*
X65346500Y-44564800D01*
G75*
G02*
X65284000Y-44502300I0J62500D01*
G01*
G37*
G36*
G01*
X65784000Y-44502300D02*
X65784000Y-43802300D01*
G75*
G02*
X65846500Y-43739800I62500J0D01*
G01*
X65971500Y-43739800D01*
G75*
G02*
X66034000Y-43802300I0J-62500D01*
G01*
X66034000Y-44502300D01*
G75*
G02*
X65971500Y-44564800I-62500J0D01*
G01*
X65846500Y-44564800D01*
G75*
G02*
X65784000Y-44502300I0J62500D01*
G01*
G37*
G36*
G01*
X66284000Y-44502300D02*
X66284000Y-43802300D01*
G75*
G02*
X66346500Y-43739800I62500J0D01*
G01*
X66471500Y-43739800D01*
G75*
G02*
X66534000Y-43802300I0J-62500D01*
G01*
X66534000Y-44502300D01*
G75*
G02*
X66471500Y-44564800I-62500J0D01*
G01*
X66346500Y-44564800D01*
G75*
G02*
X66284000Y-44502300I0J62500D01*
G01*
G37*
G36*
G01*
X66784000Y-44502300D02*
X66784000Y-43802300D01*
G75*
G02*
X66846500Y-43739800I62500J0D01*
G01*
X66971500Y-43739800D01*
G75*
G02*
X67034000Y-43802300I0J-62500D01*
G01*
X67034000Y-44502300D01*
G75*
G02*
X66971500Y-44564800I-62500J0D01*
G01*
X66846500Y-44564800D01*
G75*
G02*
X66784000Y-44502300I0J62500D01*
G01*
G37*
G36*
G01*
X67184000Y-43527300D02*
X67184000Y-43402300D01*
G75*
G02*
X67246500Y-43339800I62500J0D01*
G01*
X67946500Y-43339800D01*
G75*
G02*
X68009000Y-43402300I0J-62500D01*
G01*
X68009000Y-43527300D01*
G75*
G02*
X67946500Y-43589800I-62500J0D01*
G01*
X67246500Y-43589800D01*
G75*
G02*
X67184000Y-43527300I0J62500D01*
G01*
G37*
G36*
G01*
X67184000Y-43027300D02*
X67184000Y-42902300D01*
G75*
G02*
X67246500Y-42839800I62500J0D01*
G01*
X67946500Y-42839800D01*
G75*
G02*
X68009000Y-42902300I0J-62500D01*
G01*
X68009000Y-43027300D01*
G75*
G02*
X67946500Y-43089800I-62500J0D01*
G01*
X67246500Y-43089800D01*
G75*
G02*
X67184000Y-43027300I0J62500D01*
G01*
G37*
G36*
G01*
X67184000Y-42527300D02*
X67184000Y-42402300D01*
G75*
G02*
X67246500Y-42339800I62500J0D01*
G01*
X67946500Y-42339800D01*
G75*
G02*
X68009000Y-42402300I0J-62500D01*
G01*
X68009000Y-42527300D01*
G75*
G02*
X67946500Y-42589800I-62500J0D01*
G01*
X67246500Y-42589800D01*
G75*
G02*
X67184000Y-42527300I0J62500D01*
G01*
G37*
G36*
G01*
X67184000Y-42027300D02*
X67184000Y-41902300D01*
G75*
G02*
X67246500Y-41839800I62500J0D01*
G01*
X67946500Y-41839800D01*
G75*
G02*
X68009000Y-41902300I0J-62500D01*
G01*
X68009000Y-42027300D01*
G75*
G02*
X67946500Y-42089800I-62500J0D01*
G01*
X67246500Y-42089800D01*
G75*
G02*
X67184000Y-42027300I0J62500D01*
G01*
G37*
G36*
G01*
X67184000Y-41527300D02*
X67184000Y-41402300D01*
G75*
G02*
X67246500Y-41339800I62500J0D01*
G01*
X67946500Y-41339800D01*
G75*
G02*
X68009000Y-41402300I0J-62500D01*
G01*
X68009000Y-41527300D01*
G75*
G02*
X67946500Y-41589800I-62500J0D01*
G01*
X67246500Y-41589800D01*
G75*
G02*
X67184000Y-41527300I0J62500D01*
G01*
G37*
G36*
G01*
X67184000Y-41027300D02*
X67184000Y-40902300D01*
G75*
G02*
X67246500Y-40839800I62500J0D01*
G01*
X67946500Y-40839800D01*
G75*
G02*
X68009000Y-40902300I0J-62500D01*
G01*
X68009000Y-41027300D01*
G75*
G02*
X67946500Y-41089800I-62500J0D01*
G01*
X67246500Y-41089800D01*
G75*
G02*
X67184000Y-41027300I0J62500D01*
G01*
G37*
G36*
G01*
X66784000Y-40627300D02*
X66784000Y-39927300D01*
G75*
G02*
X66846500Y-39864800I62500J0D01*
G01*
X66971500Y-39864800D01*
G75*
G02*
X67034000Y-39927300I0J-62500D01*
G01*
X67034000Y-40627300D01*
G75*
G02*
X66971500Y-40689800I-62500J0D01*
G01*
X66846500Y-40689800D01*
G75*
G02*
X66784000Y-40627300I0J62500D01*
G01*
G37*
G36*
G01*
X66284000Y-40627300D02*
X66284000Y-39927300D01*
G75*
G02*
X66346500Y-39864800I62500J0D01*
G01*
X66471500Y-39864800D01*
G75*
G02*
X66534000Y-39927300I0J-62500D01*
G01*
X66534000Y-40627300D01*
G75*
G02*
X66471500Y-40689800I-62500J0D01*
G01*
X66346500Y-40689800D01*
G75*
G02*
X66284000Y-40627300I0J62500D01*
G01*
G37*
G36*
G01*
X65784000Y-40627300D02*
X65784000Y-39927300D01*
G75*
G02*
X65846500Y-39864800I62500J0D01*
G01*
X65971500Y-39864800D01*
G75*
G02*
X66034000Y-39927300I0J-62500D01*
G01*
X66034000Y-40627300D01*
G75*
G02*
X65971500Y-40689800I-62500J0D01*
G01*
X65846500Y-40689800D01*
G75*
G02*
X65784000Y-40627300I0J62500D01*
G01*
G37*
G36*
G01*
X65284000Y-40627300D02*
X65284000Y-39927300D01*
G75*
G02*
X65346500Y-39864800I62500J0D01*
G01*
X65471500Y-39864800D01*
G75*
G02*
X65534000Y-39927300I0J-62500D01*
G01*
X65534000Y-40627300D01*
G75*
G02*
X65471500Y-40689800I-62500J0D01*
G01*
X65346500Y-40689800D01*
G75*
G02*
X65284000Y-40627300I0J62500D01*
G01*
G37*
G36*
G01*
X64784000Y-40627300D02*
X64784000Y-39927300D01*
G75*
G02*
X64846500Y-39864800I62500J0D01*
G01*
X64971500Y-39864800D01*
G75*
G02*
X65034000Y-39927300I0J-62500D01*
G01*
X65034000Y-40627300D01*
G75*
G02*
X64971500Y-40689800I-62500J0D01*
G01*
X64846500Y-40689800D01*
G75*
G02*
X64784000Y-40627300I0J62500D01*
G01*
G37*
G36*
G01*
X64284000Y-40627300D02*
X64284000Y-39927300D01*
G75*
G02*
X64346500Y-39864800I62500J0D01*
G01*
X64471500Y-39864800D01*
G75*
G02*
X64534000Y-39927300I0J-62500D01*
G01*
X64534000Y-40627300D01*
G75*
G02*
X64471500Y-40689800I-62500J0D01*
G01*
X64346500Y-40689800D01*
G75*
G02*
X64284000Y-40627300I0J62500D01*
G01*
G37*
D24*
X65659000Y-42214800D03*
D21*
X56007000Y-42291000D03*
G36*
G01*
X30373000Y-60774000D02*
X30373000Y-60524000D01*
G75*
G02*
X30498000Y-60399000I125000J0D01*
G01*
X31148000Y-60399000D01*
G75*
G02*
X31273000Y-60524000I0J-125000D01*
G01*
X31273000Y-60774000D01*
G75*
G02*
X31148000Y-60899000I-125000J0D01*
G01*
X30498000Y-60899000D01*
G75*
G02*
X30373000Y-60774000I0J125000D01*
G01*
G37*
G36*
G01*
X30373000Y-61574000D02*
X30373000Y-61324000D01*
G75*
G02*
X30498000Y-61199000I125000J0D01*
G01*
X31148000Y-61199000D01*
G75*
G02*
X31273000Y-61324000I0J-125000D01*
G01*
X31273000Y-61574000D01*
G75*
G02*
X31148000Y-61699000I-125000J0D01*
G01*
X30498000Y-61699000D01*
G75*
G02*
X30373000Y-61574000I0J125000D01*
G01*
G37*
G36*
G01*
X30373000Y-62374000D02*
X30373000Y-62124000D01*
G75*
G02*
X30498000Y-61999000I125000J0D01*
G01*
X31148000Y-61999000D01*
G75*
G02*
X31273000Y-62124000I0J-125000D01*
G01*
X31273000Y-62374000D01*
G75*
G02*
X31148000Y-62499000I-125000J0D01*
G01*
X30498000Y-62499000D01*
G75*
G02*
X30373000Y-62374000I0J125000D01*
G01*
G37*
G36*
G01*
X30373000Y-63174000D02*
X30373000Y-62924000D01*
G75*
G02*
X30498000Y-62799000I125000J0D01*
G01*
X31148000Y-62799000D01*
G75*
G02*
X31273000Y-62924000I0J-125000D01*
G01*
X31273000Y-63174000D01*
G75*
G02*
X31148000Y-63299000I-125000J0D01*
G01*
X30498000Y-63299000D01*
G75*
G02*
X30373000Y-63174000I0J125000D01*
G01*
G37*
G36*
G01*
X31973000Y-63174000D02*
X31973000Y-62924000D01*
G75*
G02*
X32098000Y-62799000I125000J0D01*
G01*
X32748000Y-62799000D01*
G75*
G02*
X32873000Y-62924000I0J-125000D01*
G01*
X32873000Y-63174000D01*
G75*
G02*
X32748000Y-63299000I-125000J0D01*
G01*
X32098000Y-63299000D01*
G75*
G02*
X31973000Y-63174000I0J125000D01*
G01*
G37*
G36*
G01*
X31973000Y-62374000D02*
X31973000Y-62124000D01*
G75*
G02*
X32098000Y-61999000I125000J0D01*
G01*
X32748000Y-61999000D01*
G75*
G02*
X32873000Y-62124000I0J-125000D01*
G01*
X32873000Y-62374000D01*
G75*
G02*
X32748000Y-62499000I-125000J0D01*
G01*
X32098000Y-62499000D01*
G75*
G02*
X31973000Y-62374000I0J125000D01*
G01*
G37*
G36*
G01*
X31973000Y-61574000D02*
X31973000Y-61324000D01*
G75*
G02*
X32098000Y-61199000I125000J0D01*
G01*
X32748000Y-61199000D01*
G75*
G02*
X32873000Y-61324000I0J-125000D01*
G01*
X32873000Y-61574000D01*
G75*
G02*
X32748000Y-61699000I-125000J0D01*
G01*
X32098000Y-61699000D01*
G75*
G02*
X31973000Y-61574000I0J125000D01*
G01*
G37*
G36*
G01*
X31973000Y-60774000D02*
X31973000Y-60524000D01*
G75*
G02*
X32098000Y-60399000I125000J0D01*
G01*
X32748000Y-60399000D01*
G75*
G02*
X32873000Y-60524000I0J-125000D01*
G01*
X32873000Y-60774000D01*
G75*
G02*
X32748000Y-60899000I-125000J0D01*
G01*
X32098000Y-60899000D01*
G75*
G02*
X31973000Y-60774000I0J125000D01*
G01*
G37*
X51689000Y-42291000D03*
X56007000Y-39497000D03*
G36*
G01*
X67887000Y-35170000D02*
X67887000Y-35620000D01*
G75*
G02*
X67662000Y-35845000I-225000J0D01*
G01*
X67212000Y-35845000D01*
G75*
G02*
X66987000Y-35620000I0J225000D01*
G01*
X66987000Y-35170000D01*
G75*
G02*
X67212000Y-34945000I225000J0D01*
G01*
X67662000Y-34945000D01*
G75*
G02*
X67887000Y-35170000I0J-225000D01*
G01*
G37*
G36*
G01*
X67887000Y-36770000D02*
X67887000Y-37220000D01*
G75*
G02*
X67662000Y-37445000I-225000J0D01*
G01*
X67212000Y-37445000D01*
G75*
G02*
X66987000Y-37220000I0J225000D01*
G01*
X66987000Y-36770000D01*
G75*
G02*
X67212000Y-36545000I225000J0D01*
G01*
X67662000Y-36545000D01*
G75*
G02*
X67887000Y-36770000I0J-225000D01*
G01*
G37*
D25*
X31903000Y-39179500D03*
X31903000Y-39814500D03*
X31903000Y-40449500D03*
X31903000Y-41084500D03*
X31903000Y-41719500D03*
X31903000Y-42354500D03*
X31903000Y-42989500D03*
X31903000Y-43624500D03*
X31903000Y-44259500D03*
X31903000Y-44894500D03*
X31903000Y-45529500D03*
X31903000Y-46164500D03*
X31903000Y-46799500D03*
X31903000Y-47434500D03*
X31903000Y-48069500D03*
X31903000Y-48704500D03*
X31903000Y-49339500D03*
X31903000Y-49974500D03*
X31903000Y-50609500D03*
X31903000Y-51244500D03*
X31903000Y-51879500D03*
X31903000Y-52514500D03*
X31903000Y-53149500D03*
X31903000Y-53784500D03*
X31903000Y-54419500D03*
X31903000Y-55054500D03*
X31903000Y-55689500D03*
X31903000Y-56324500D03*
X41503000Y-56324500D03*
X41503000Y-55689500D03*
X41503000Y-55054500D03*
X41503000Y-54419500D03*
X41503000Y-53784500D03*
X41503000Y-53149500D03*
X41503000Y-52514500D03*
X41503000Y-51879500D03*
X41503000Y-51244500D03*
X41503000Y-50609500D03*
X41503000Y-49974500D03*
X41503000Y-49339500D03*
X41503000Y-48704500D03*
X41503000Y-48069500D03*
X41503000Y-47434500D03*
X41503000Y-46799500D03*
X41503000Y-46164500D03*
X41503000Y-45529500D03*
X41503000Y-44894500D03*
X41503000Y-44259500D03*
X41503000Y-43624500D03*
X41503000Y-42989500D03*
X41503000Y-42354500D03*
X41503000Y-41719500D03*
X41503000Y-41084500D03*
X41503000Y-40449500D03*
X41503000Y-39814500D03*
X41503000Y-39179500D03*
D22*
X62350000Y-33225000D03*
X62350000Y-35325000D03*
X64150000Y-35325000D03*
X64150000Y-33225000D03*
G36*
G01*
X74413000Y-42857000D02*
X74863000Y-42857000D01*
G75*
G02*
X75088000Y-43082000I0J-225000D01*
G01*
X75088000Y-43532000D01*
G75*
G02*
X74863000Y-43757000I-225000J0D01*
G01*
X74413000Y-43757000D01*
G75*
G02*
X74188000Y-43532000I0J225000D01*
G01*
X74188000Y-43082000D01*
G75*
G02*
X74413000Y-42857000I225000J0D01*
G01*
G37*
G36*
G01*
X76013000Y-42857000D02*
X76463000Y-42857000D01*
G75*
G02*
X76688000Y-43082000I0J-225000D01*
G01*
X76688000Y-43532000D01*
G75*
G02*
X76463000Y-43757000I-225000J0D01*
G01*
X76013000Y-43757000D01*
G75*
G02*
X75788000Y-43532000I0J225000D01*
G01*
X75788000Y-43082000D01*
G75*
G02*
X76013000Y-42857000I225000J0D01*
G01*
G37*
D26*
X67743169Y-56907938D03*
X67743169Y-58907938D03*
X67743169Y-54407938D03*
D27*
X68943169Y-64307938D03*
X68943169Y-51507938D03*
D26*
X67743169Y-61407938D03*
G36*
G01*
X30295000Y-41647000D02*
X30295000Y-42097000D01*
G75*
G02*
X30070000Y-42322000I-225000J0D01*
G01*
X29620000Y-42322000D01*
G75*
G02*
X29395000Y-42097000I0J225000D01*
G01*
X29395000Y-41647000D01*
G75*
G02*
X29620000Y-41422000I225000J0D01*
G01*
X30070000Y-41422000D01*
G75*
G02*
X30295000Y-41647000I0J-225000D01*
G01*
G37*
G36*
G01*
X30295000Y-43247000D02*
X30295000Y-43697000D01*
G75*
G02*
X30070000Y-43922000I-225000J0D01*
G01*
X29620000Y-43922000D01*
G75*
G02*
X29395000Y-43697000I0J225000D01*
G01*
X29395000Y-43247000D01*
G75*
G02*
X29620000Y-43022000I225000J0D01*
G01*
X30070000Y-43022000D01*
G75*
G02*
X30295000Y-43247000I0J-225000D01*
G01*
G37*
G36*
G01*
X25296000Y-65297000D02*
X24996000Y-65297000D01*
G75*
G02*
X24846000Y-65147000I0J150000D01*
G01*
X24846000Y-63497000D01*
G75*
G02*
X24996000Y-63347000I150000J0D01*
G01*
X25296000Y-63347000D01*
G75*
G02*
X25446000Y-63497000I0J-150000D01*
G01*
X25446000Y-65147000D01*
G75*
G02*
X25296000Y-65297000I-150000J0D01*
G01*
G37*
G36*
G01*
X26566000Y-65297000D02*
X26266000Y-65297000D01*
G75*
G02*
X26116000Y-65147000I0J150000D01*
G01*
X26116000Y-63497000D01*
G75*
G02*
X26266000Y-63347000I150000J0D01*
G01*
X26566000Y-63347000D01*
G75*
G02*
X26716000Y-63497000I0J-150000D01*
G01*
X26716000Y-65147000D01*
G75*
G02*
X26566000Y-65297000I-150000J0D01*
G01*
G37*
G36*
G01*
X27836000Y-65297000D02*
X27536000Y-65297000D01*
G75*
G02*
X27386000Y-65147000I0J150000D01*
G01*
X27386000Y-63497000D01*
G75*
G02*
X27536000Y-63347000I150000J0D01*
G01*
X27836000Y-63347000D01*
G75*
G02*
X27986000Y-63497000I0J-150000D01*
G01*
X27986000Y-65147000D01*
G75*
G02*
X27836000Y-65297000I-150000J0D01*
G01*
G37*
G36*
G01*
X29106000Y-65297000D02*
X28806000Y-65297000D01*
G75*
G02*
X28656000Y-65147000I0J150000D01*
G01*
X28656000Y-63497000D01*
G75*
G02*
X28806000Y-63347000I150000J0D01*
G01*
X29106000Y-63347000D01*
G75*
G02*
X29256000Y-63497000I0J-150000D01*
G01*
X29256000Y-65147000D01*
G75*
G02*
X29106000Y-65297000I-150000J0D01*
G01*
G37*
G36*
G01*
X29106000Y-60097000D02*
X28806000Y-60097000D01*
G75*
G02*
X28656000Y-59947000I0J150000D01*
G01*
X28656000Y-58297000D01*
G75*
G02*
X28806000Y-58147000I150000J0D01*
G01*
X29106000Y-58147000D01*
G75*
G02*
X29256000Y-58297000I0J-150000D01*
G01*
X29256000Y-59947000D01*
G75*
G02*
X29106000Y-60097000I-150000J0D01*
G01*
G37*
G36*
G01*
X27836000Y-60097000D02*
X27536000Y-60097000D01*
G75*
G02*
X27386000Y-59947000I0J150000D01*
G01*
X27386000Y-58297000D01*
G75*
G02*
X27536000Y-58147000I150000J0D01*
G01*
X27836000Y-58147000D01*
G75*
G02*
X27986000Y-58297000I0J-150000D01*
G01*
X27986000Y-59947000D01*
G75*
G02*
X27836000Y-60097000I-150000J0D01*
G01*
G37*
G36*
G01*
X26566000Y-60097000D02*
X26266000Y-60097000D01*
G75*
G02*
X26116000Y-59947000I0J150000D01*
G01*
X26116000Y-58297000D01*
G75*
G02*
X26266000Y-58147000I150000J0D01*
G01*
X26566000Y-58147000D01*
G75*
G02*
X26716000Y-58297000I0J-150000D01*
G01*
X26716000Y-59947000D01*
G75*
G02*
X26566000Y-60097000I-150000J0D01*
G01*
G37*
G36*
G01*
X25296000Y-60097000D02*
X24996000Y-60097000D01*
G75*
G02*
X24846000Y-59947000I0J150000D01*
G01*
X24846000Y-58297000D01*
G75*
G02*
X24996000Y-58147000I150000J0D01*
G01*
X25296000Y-58147000D01*
G75*
G02*
X25446000Y-58297000I0J-150000D01*
G01*
X25446000Y-59947000D01*
G75*
G02*
X25296000Y-60097000I-150000J0D01*
G01*
G37*
G36*
G01*
X24072000Y-54855000D02*
X24072000Y-55305000D01*
G75*
G02*
X23847000Y-55530000I-225000J0D01*
G01*
X23397000Y-55530000D01*
G75*
G02*
X23172000Y-55305000I0J225000D01*
G01*
X23172000Y-54855000D01*
G75*
G02*
X23397000Y-54630000I225000J0D01*
G01*
X23847000Y-54630000D01*
G75*
G02*
X24072000Y-54855000I0J-225000D01*
G01*
G37*
G36*
G01*
X24072000Y-56455000D02*
X24072000Y-56905000D01*
G75*
G02*
X23847000Y-57130000I-225000J0D01*
G01*
X23397000Y-57130000D01*
G75*
G02*
X23172000Y-56905000I0J225000D01*
G01*
X23172000Y-56455000D01*
G75*
G02*
X23397000Y-56230000I225000J0D01*
G01*
X23847000Y-56230000D01*
G75*
G02*
X24072000Y-56455000I0J-225000D01*
G01*
G37*
D23*
X31750000Y-33147000D03*
G36*
G01*
X58525000Y-59450000D02*
X58525000Y-59250000D01*
G75*
G02*
X58625000Y-59150000I100000J0D01*
G01*
X59750000Y-59150000D01*
G75*
G02*
X59850000Y-59250000I0J-100000D01*
G01*
X59850000Y-59450000D01*
G75*
G02*
X59750000Y-59550000I-100000J0D01*
G01*
X58625000Y-59550000D01*
G75*
G02*
X58525000Y-59450000I0J100000D01*
G01*
G37*
G36*
G01*
X58525000Y-60100000D02*
X58525000Y-59900000D01*
G75*
G02*
X58625000Y-59800000I100000J0D01*
G01*
X59750000Y-59800000D01*
G75*
G02*
X59850000Y-59900000I0J-100000D01*
G01*
X59850000Y-60100000D01*
G75*
G02*
X59750000Y-60200000I-100000J0D01*
G01*
X58625000Y-60200000D01*
G75*
G02*
X58525000Y-60100000I0J100000D01*
G01*
G37*
G36*
G01*
X58525000Y-60750000D02*
X58525000Y-60550000D01*
G75*
G02*
X58625000Y-60450000I100000J0D01*
G01*
X59750000Y-60450000D01*
G75*
G02*
X59850000Y-60550000I0J-100000D01*
G01*
X59850000Y-60750000D01*
G75*
G02*
X59750000Y-60850000I-100000J0D01*
G01*
X58625000Y-60850000D01*
G75*
G02*
X58525000Y-60750000I0J100000D01*
G01*
G37*
G36*
G01*
X58525000Y-61400000D02*
X58525000Y-61200000D01*
G75*
G02*
X58625000Y-61100000I100000J0D01*
G01*
X59750000Y-61100000D01*
G75*
G02*
X59850000Y-61200000I0J-100000D01*
G01*
X59850000Y-61400000D01*
G75*
G02*
X59750000Y-61500000I-100000J0D01*
G01*
X58625000Y-61500000D01*
G75*
G02*
X58525000Y-61400000I0J100000D01*
G01*
G37*
G36*
G01*
X60800000Y-61400000D02*
X60800000Y-61200000D01*
G75*
G02*
X60900000Y-61100000I100000J0D01*
G01*
X62025000Y-61100000D01*
G75*
G02*
X62125000Y-61200000I0J-100000D01*
G01*
X62125000Y-61400000D01*
G75*
G02*
X62025000Y-61500000I-100000J0D01*
G01*
X60900000Y-61500000D01*
G75*
G02*
X60800000Y-61400000I0J100000D01*
G01*
G37*
G36*
G01*
X60800000Y-60750000D02*
X60800000Y-60550000D01*
G75*
G02*
X60900000Y-60450000I100000J0D01*
G01*
X62025000Y-60450000D01*
G75*
G02*
X62125000Y-60550000I0J-100000D01*
G01*
X62125000Y-60750000D01*
G75*
G02*
X62025000Y-60850000I-100000J0D01*
G01*
X60900000Y-60850000D01*
G75*
G02*
X60800000Y-60750000I0J100000D01*
G01*
G37*
G36*
G01*
X60800000Y-60100000D02*
X60800000Y-59900000D01*
G75*
G02*
X60900000Y-59800000I100000J0D01*
G01*
X62025000Y-59800000D01*
G75*
G02*
X62125000Y-59900000I0J-100000D01*
G01*
X62125000Y-60100000D01*
G75*
G02*
X62025000Y-60200000I-100000J0D01*
G01*
X60900000Y-60200000D01*
G75*
G02*
X60800000Y-60100000I0J100000D01*
G01*
G37*
G36*
G01*
X60800000Y-59450000D02*
X60800000Y-59250000D01*
G75*
G02*
X60900000Y-59150000I100000J0D01*
G01*
X62025000Y-59150000D01*
G75*
G02*
X62125000Y-59250000I0J-100000D01*
G01*
X62125000Y-59450000D01*
G75*
G02*
X62025000Y-59550000I-100000J0D01*
G01*
X60900000Y-59550000D01*
G75*
G02*
X60800000Y-59450000I0J100000D01*
G01*
G37*
G36*
G01*
X58605000Y-34172000D02*
X58605000Y-33722000D01*
G75*
G02*
X58830000Y-33497000I225000J0D01*
G01*
X59280000Y-33497000D01*
G75*
G02*
X59505000Y-33722000I0J-225000D01*
G01*
X59505000Y-34172000D01*
G75*
G02*
X59280000Y-34397000I-225000J0D01*
G01*
X58830000Y-34397000D01*
G75*
G02*
X58605000Y-34172000I0J225000D01*
G01*
G37*
G36*
G01*
X58605000Y-32572000D02*
X58605000Y-32122000D01*
G75*
G02*
X58830000Y-31897000I225000J0D01*
G01*
X59280000Y-31897000D01*
G75*
G02*
X59505000Y-32122000I0J-225000D01*
G01*
X59505000Y-32572000D01*
G75*
G02*
X59280000Y-32797000I-225000J0D01*
G01*
X58830000Y-32797000D01*
G75*
G02*
X58605000Y-32572000I0J225000D01*
G01*
G37*
G36*
G01*
X67954000Y-33597000D02*
X67504000Y-33597000D01*
G75*
G02*
X67279000Y-33372000I0J225000D01*
G01*
X67279000Y-32922000D01*
G75*
G02*
X67504000Y-32697000I225000J0D01*
G01*
X67954000Y-32697000D01*
G75*
G02*
X68179000Y-32922000I0J-225000D01*
G01*
X68179000Y-33372000D01*
G75*
G02*
X67954000Y-33597000I-225000J0D01*
G01*
G37*
G36*
G01*
X66354000Y-33597000D02*
X65904000Y-33597000D01*
G75*
G02*
X65679000Y-33372000I0J225000D01*
G01*
X65679000Y-32922000D01*
G75*
G02*
X65904000Y-32697000I225000J0D01*
G01*
X66354000Y-32697000D01*
G75*
G02*
X66579000Y-32922000I0J-225000D01*
G01*
X66579000Y-33372000D01*
G75*
G02*
X66354000Y-33597000I-225000J0D01*
G01*
G37*
G36*
G01*
X64398000Y-37915000D02*
X63948000Y-37915000D01*
G75*
G02*
X63723000Y-37690000I0J225000D01*
G01*
X63723000Y-37240000D01*
G75*
G02*
X63948000Y-37015000I225000J0D01*
G01*
X64398000Y-37015000D01*
G75*
G02*
X64623000Y-37240000I0J-225000D01*
G01*
X64623000Y-37690000D01*
G75*
G02*
X64398000Y-37915000I-225000J0D01*
G01*
G37*
G36*
G01*
X62798000Y-37915000D02*
X62348000Y-37915000D01*
G75*
G02*
X62123000Y-37690000I0J225000D01*
G01*
X62123000Y-37240000D01*
G75*
G02*
X62348000Y-37015000I225000J0D01*
G01*
X62798000Y-37015000D01*
G75*
G02*
X63023000Y-37240000I0J-225000D01*
G01*
X63023000Y-37690000D01*
G75*
G02*
X62798000Y-37915000I-225000J0D01*
G01*
G37*
D21*
X51689000Y-40894000D03*
X56007000Y-40894000D03*
G36*
G01*
X66363000Y-35170000D02*
X66363000Y-35620000D01*
G75*
G02*
X66138000Y-35845000I-225000J0D01*
G01*
X65688000Y-35845000D01*
G75*
G02*
X65463000Y-35620000I0J225000D01*
G01*
X65463000Y-35170000D01*
G75*
G02*
X65688000Y-34945000I225000J0D01*
G01*
X66138000Y-34945000D01*
G75*
G02*
X66363000Y-35170000I0J-225000D01*
G01*
G37*
G36*
G01*
X66363000Y-36770000D02*
X66363000Y-37220000D01*
G75*
G02*
X66138000Y-37445000I-225000J0D01*
G01*
X65688000Y-37445000D01*
G75*
G02*
X65463000Y-37220000I0J225000D01*
G01*
X65463000Y-36770000D01*
G75*
G02*
X65688000Y-36545000I225000J0D01*
G01*
X66138000Y-36545000D01*
G75*
G02*
X66363000Y-36770000I0J-225000D01*
G01*
G37*
G36*
G01*
X61486000Y-50890500D02*
X61486000Y-51025500D01*
G75*
G02*
X61418500Y-51093000I-67500J0D01*
G01*
X60078500Y-51093000D01*
G75*
G02*
X60011000Y-51025500I0J67500D01*
G01*
X60011000Y-50890500D01*
G75*
G02*
X60078500Y-50823000I67500J0D01*
G01*
X61418500Y-50823000D01*
G75*
G02*
X61486000Y-50890500I0J-67500D01*
G01*
G37*
G36*
G01*
X61486000Y-50390500D02*
X61486000Y-50525500D01*
G75*
G02*
X61418500Y-50593000I-67500J0D01*
G01*
X60078500Y-50593000D01*
G75*
G02*
X60011000Y-50525500I0J67500D01*
G01*
X60011000Y-50390500D01*
G75*
G02*
X60078500Y-50323000I67500J0D01*
G01*
X61418500Y-50323000D01*
G75*
G02*
X61486000Y-50390500I0J-67500D01*
G01*
G37*
G36*
G01*
X61486000Y-49890500D02*
X61486000Y-50025500D01*
G75*
G02*
X61418500Y-50093000I-67500J0D01*
G01*
X60078500Y-50093000D01*
G75*
G02*
X60011000Y-50025500I0J67500D01*
G01*
X60011000Y-49890500D01*
G75*
G02*
X60078500Y-49823000I67500J0D01*
G01*
X61418500Y-49823000D01*
G75*
G02*
X61486000Y-49890500I0J-67500D01*
G01*
G37*
G36*
G01*
X61486000Y-49390500D02*
X61486000Y-49525500D01*
G75*
G02*
X61418500Y-49593000I-67500J0D01*
G01*
X60078500Y-49593000D01*
G75*
G02*
X60011000Y-49525500I0J67500D01*
G01*
X60011000Y-49390500D01*
G75*
G02*
X60078500Y-49323000I67500J0D01*
G01*
X61418500Y-49323000D01*
G75*
G02*
X61486000Y-49390500I0J-67500D01*
G01*
G37*
G36*
G01*
X61486000Y-48890500D02*
X61486000Y-49025500D01*
G75*
G02*
X61418500Y-49093000I-67500J0D01*
G01*
X60078500Y-49093000D01*
G75*
G02*
X60011000Y-49025500I0J67500D01*
G01*
X60011000Y-48890500D01*
G75*
G02*
X60078500Y-48823000I67500J0D01*
G01*
X61418500Y-48823000D01*
G75*
G02*
X61486000Y-48890500I0J-67500D01*
G01*
G37*
G36*
G01*
X61486000Y-48390500D02*
X61486000Y-48525500D01*
G75*
G02*
X61418500Y-48593000I-67500J0D01*
G01*
X60078500Y-48593000D01*
G75*
G02*
X60011000Y-48525500I0J67500D01*
G01*
X60011000Y-48390500D01*
G75*
G02*
X60078500Y-48323000I67500J0D01*
G01*
X61418500Y-48323000D01*
G75*
G02*
X61486000Y-48390500I0J-67500D01*
G01*
G37*
G36*
G01*
X61486000Y-47890500D02*
X61486000Y-48025500D01*
G75*
G02*
X61418500Y-48093000I-67500J0D01*
G01*
X60078500Y-48093000D01*
G75*
G02*
X60011000Y-48025500I0J67500D01*
G01*
X60011000Y-47890500D01*
G75*
G02*
X60078500Y-47823000I67500J0D01*
G01*
X61418500Y-47823000D01*
G75*
G02*
X61486000Y-47890500I0J-67500D01*
G01*
G37*
G36*
G01*
X61486000Y-47390500D02*
X61486000Y-47525500D01*
G75*
G02*
X61418500Y-47593000I-67500J0D01*
G01*
X60078500Y-47593000D01*
G75*
G02*
X60011000Y-47525500I0J67500D01*
G01*
X60011000Y-47390500D01*
G75*
G02*
X60078500Y-47323000I67500J0D01*
G01*
X61418500Y-47323000D01*
G75*
G02*
X61486000Y-47390500I0J-67500D01*
G01*
G37*
G36*
G01*
X61486000Y-46890500D02*
X61486000Y-47025500D01*
G75*
G02*
X61418500Y-47093000I-67500J0D01*
G01*
X60078500Y-47093000D01*
G75*
G02*
X60011000Y-47025500I0J67500D01*
G01*
X60011000Y-46890500D01*
G75*
G02*
X60078500Y-46823000I67500J0D01*
G01*
X61418500Y-46823000D01*
G75*
G02*
X61486000Y-46890500I0J-67500D01*
G01*
G37*
G36*
G01*
X61486000Y-46390500D02*
X61486000Y-46525500D01*
G75*
G02*
X61418500Y-46593000I-67500J0D01*
G01*
X60078500Y-46593000D01*
G75*
G02*
X60011000Y-46525500I0J67500D01*
G01*
X60011000Y-46390500D01*
G75*
G02*
X60078500Y-46323000I67500J0D01*
G01*
X61418500Y-46323000D01*
G75*
G02*
X61486000Y-46390500I0J-67500D01*
G01*
G37*
G36*
G01*
X61486000Y-45890500D02*
X61486000Y-46025500D01*
G75*
G02*
X61418500Y-46093000I-67500J0D01*
G01*
X60078500Y-46093000D01*
G75*
G02*
X60011000Y-46025500I0J67500D01*
G01*
X60011000Y-45890500D01*
G75*
G02*
X60078500Y-45823000I67500J0D01*
G01*
X61418500Y-45823000D01*
G75*
G02*
X61486000Y-45890500I0J-67500D01*
G01*
G37*
G36*
G01*
X61486000Y-45390500D02*
X61486000Y-45525500D01*
G75*
G02*
X61418500Y-45593000I-67500J0D01*
G01*
X60078500Y-45593000D01*
G75*
G02*
X60011000Y-45525500I0J67500D01*
G01*
X60011000Y-45390500D01*
G75*
G02*
X60078500Y-45323000I67500J0D01*
G01*
X61418500Y-45323000D01*
G75*
G02*
X61486000Y-45390500I0J-67500D01*
G01*
G37*
G36*
G01*
X61486000Y-44890500D02*
X61486000Y-45025500D01*
G75*
G02*
X61418500Y-45093000I-67500J0D01*
G01*
X60078500Y-45093000D01*
G75*
G02*
X60011000Y-45025500I0J67500D01*
G01*
X60011000Y-44890500D01*
G75*
G02*
X60078500Y-44823000I67500J0D01*
G01*
X61418500Y-44823000D01*
G75*
G02*
X61486000Y-44890500I0J-67500D01*
G01*
G37*
G36*
G01*
X61486000Y-44390500D02*
X61486000Y-44525500D01*
G75*
G02*
X61418500Y-44593000I-67500J0D01*
G01*
X60078500Y-44593000D01*
G75*
G02*
X60011000Y-44525500I0J67500D01*
G01*
X60011000Y-44390500D01*
G75*
G02*
X60078500Y-44323000I67500J0D01*
G01*
X61418500Y-44323000D01*
G75*
G02*
X61486000Y-44390500I0J-67500D01*
G01*
G37*
G36*
G01*
X61486000Y-43890500D02*
X61486000Y-44025500D01*
G75*
G02*
X61418500Y-44093000I-67500J0D01*
G01*
X60078500Y-44093000D01*
G75*
G02*
X60011000Y-44025500I0J67500D01*
G01*
X60011000Y-43890500D01*
G75*
G02*
X60078500Y-43823000I67500J0D01*
G01*
X61418500Y-43823000D01*
G75*
G02*
X61486000Y-43890500I0J-67500D01*
G01*
G37*
G36*
G01*
X61486000Y-43390500D02*
X61486000Y-43525500D01*
G75*
G02*
X61418500Y-43593000I-67500J0D01*
G01*
X60078500Y-43593000D01*
G75*
G02*
X60011000Y-43525500I0J67500D01*
G01*
X60011000Y-43390500D01*
G75*
G02*
X60078500Y-43323000I67500J0D01*
G01*
X61418500Y-43323000D01*
G75*
G02*
X61486000Y-43390500I0J-67500D01*
G01*
G37*
G36*
G01*
X61486000Y-42890500D02*
X61486000Y-43025500D01*
G75*
G02*
X61418500Y-43093000I-67500J0D01*
G01*
X60078500Y-43093000D01*
G75*
G02*
X60011000Y-43025500I0J67500D01*
G01*
X60011000Y-42890500D01*
G75*
G02*
X60078500Y-42823000I67500J0D01*
G01*
X61418500Y-42823000D01*
G75*
G02*
X61486000Y-42890500I0J-67500D01*
G01*
G37*
G36*
G01*
X61486000Y-42390500D02*
X61486000Y-42525500D01*
G75*
G02*
X61418500Y-42593000I-67500J0D01*
G01*
X60078500Y-42593000D01*
G75*
G02*
X60011000Y-42525500I0J67500D01*
G01*
X60011000Y-42390500D01*
G75*
G02*
X60078500Y-42323000I67500J0D01*
G01*
X61418500Y-42323000D01*
G75*
G02*
X61486000Y-42390500I0J-67500D01*
G01*
G37*
G36*
G01*
X61486000Y-41890500D02*
X61486000Y-42025500D01*
G75*
G02*
X61418500Y-42093000I-67500J0D01*
G01*
X60078500Y-42093000D01*
G75*
G02*
X60011000Y-42025500I0J67500D01*
G01*
X60011000Y-41890500D01*
G75*
G02*
X60078500Y-41823000I67500J0D01*
G01*
X61418500Y-41823000D01*
G75*
G02*
X61486000Y-41890500I0J-67500D01*
G01*
G37*
G36*
G01*
X61486000Y-41390500D02*
X61486000Y-41525500D01*
G75*
G02*
X61418500Y-41593000I-67500J0D01*
G01*
X60078500Y-41593000D01*
G75*
G02*
X60011000Y-41525500I0J67500D01*
G01*
X60011000Y-41390500D01*
G75*
G02*
X60078500Y-41323000I67500J0D01*
G01*
X61418500Y-41323000D01*
G75*
G02*
X61486000Y-41390500I0J-67500D01*
G01*
G37*
G36*
G01*
X61486000Y-40890500D02*
X61486000Y-41025500D01*
G75*
G02*
X61418500Y-41093000I-67500J0D01*
G01*
X60078500Y-41093000D01*
G75*
G02*
X60011000Y-41025500I0J67500D01*
G01*
X60011000Y-40890500D01*
G75*
G02*
X60078500Y-40823000I67500J0D01*
G01*
X61418500Y-40823000D01*
G75*
G02*
X61486000Y-40890500I0J-67500D01*
G01*
G37*
G36*
G01*
X61486000Y-40390500D02*
X61486000Y-40525500D01*
G75*
G02*
X61418500Y-40593000I-67500J0D01*
G01*
X60078500Y-40593000D01*
G75*
G02*
X60011000Y-40525500I0J67500D01*
G01*
X60011000Y-40390500D01*
G75*
G02*
X60078500Y-40323000I67500J0D01*
G01*
X61418500Y-40323000D01*
G75*
G02*
X61486000Y-40390500I0J-67500D01*
G01*
G37*
G36*
G01*
X61486000Y-39890500D02*
X61486000Y-40025500D01*
G75*
G02*
X61418500Y-40093000I-67500J0D01*
G01*
X60078500Y-40093000D01*
G75*
G02*
X60011000Y-40025500I0J67500D01*
G01*
X60011000Y-39890500D01*
G75*
G02*
X60078500Y-39823000I67500J0D01*
G01*
X61418500Y-39823000D01*
G75*
G02*
X61486000Y-39890500I0J-67500D01*
G01*
G37*
G36*
G01*
X61486000Y-39390500D02*
X61486000Y-39525500D01*
G75*
G02*
X61418500Y-39593000I-67500J0D01*
G01*
X60078500Y-39593000D01*
G75*
G02*
X60011000Y-39525500I0J67500D01*
G01*
X60011000Y-39390500D01*
G75*
G02*
X60078500Y-39323000I67500J0D01*
G01*
X61418500Y-39323000D01*
G75*
G02*
X61486000Y-39390500I0J-67500D01*
G01*
G37*
G36*
G01*
X61486000Y-38890500D02*
X61486000Y-39025500D01*
G75*
G02*
X61418500Y-39093000I-67500J0D01*
G01*
X60078500Y-39093000D01*
G75*
G02*
X60011000Y-39025500I0J67500D01*
G01*
X60011000Y-38890500D01*
G75*
G02*
X60078500Y-38823000I67500J0D01*
G01*
X61418500Y-38823000D01*
G75*
G02*
X61486000Y-38890500I0J-67500D01*
G01*
G37*
G36*
G01*
X59221000Y-36625500D02*
X59221000Y-37965500D01*
G75*
G02*
X59153500Y-38033000I-67500J0D01*
G01*
X59018500Y-38033000D01*
G75*
G02*
X58951000Y-37965500I0J67500D01*
G01*
X58951000Y-36625500D01*
G75*
G02*
X59018500Y-36558000I67500J0D01*
G01*
X59153500Y-36558000D01*
G75*
G02*
X59221000Y-36625500I0J-67500D01*
G01*
G37*
G36*
G01*
X58721000Y-36625500D02*
X58721000Y-37965500D01*
G75*
G02*
X58653500Y-38033000I-67500J0D01*
G01*
X58518500Y-38033000D01*
G75*
G02*
X58451000Y-37965500I0J67500D01*
G01*
X58451000Y-36625500D01*
G75*
G02*
X58518500Y-36558000I67500J0D01*
G01*
X58653500Y-36558000D01*
G75*
G02*
X58721000Y-36625500I0J-67500D01*
G01*
G37*
G36*
G01*
X58221000Y-36625500D02*
X58221000Y-37965500D01*
G75*
G02*
X58153500Y-38033000I-67500J0D01*
G01*
X58018500Y-38033000D01*
G75*
G02*
X57951000Y-37965500I0J67500D01*
G01*
X57951000Y-36625500D01*
G75*
G02*
X58018500Y-36558000I67500J0D01*
G01*
X58153500Y-36558000D01*
G75*
G02*
X58221000Y-36625500I0J-67500D01*
G01*
G37*
G36*
G01*
X57721000Y-36625500D02*
X57721000Y-37965500D01*
G75*
G02*
X57653500Y-38033000I-67500J0D01*
G01*
X57518500Y-38033000D01*
G75*
G02*
X57451000Y-37965500I0J67500D01*
G01*
X57451000Y-36625500D01*
G75*
G02*
X57518500Y-36558000I67500J0D01*
G01*
X57653500Y-36558000D01*
G75*
G02*
X57721000Y-36625500I0J-67500D01*
G01*
G37*
G36*
G01*
X57221000Y-36625500D02*
X57221000Y-37965500D01*
G75*
G02*
X57153500Y-38033000I-67500J0D01*
G01*
X57018500Y-38033000D01*
G75*
G02*
X56951000Y-37965500I0J67500D01*
G01*
X56951000Y-36625500D01*
G75*
G02*
X57018500Y-36558000I67500J0D01*
G01*
X57153500Y-36558000D01*
G75*
G02*
X57221000Y-36625500I0J-67500D01*
G01*
G37*
G36*
G01*
X56721000Y-36625500D02*
X56721000Y-37965500D01*
G75*
G02*
X56653500Y-38033000I-67500J0D01*
G01*
X56518500Y-38033000D01*
G75*
G02*
X56451000Y-37965500I0J67500D01*
G01*
X56451000Y-36625500D01*
G75*
G02*
X56518500Y-36558000I67500J0D01*
G01*
X56653500Y-36558000D01*
G75*
G02*
X56721000Y-36625500I0J-67500D01*
G01*
G37*
G36*
G01*
X56221000Y-36625500D02*
X56221000Y-37965500D01*
G75*
G02*
X56153500Y-38033000I-67500J0D01*
G01*
X56018500Y-38033000D01*
G75*
G02*
X55951000Y-37965500I0J67500D01*
G01*
X55951000Y-36625500D01*
G75*
G02*
X56018500Y-36558000I67500J0D01*
G01*
X56153500Y-36558000D01*
G75*
G02*
X56221000Y-36625500I0J-67500D01*
G01*
G37*
G36*
G01*
X55721000Y-36625500D02*
X55721000Y-37965500D01*
G75*
G02*
X55653500Y-38033000I-67500J0D01*
G01*
X55518500Y-38033000D01*
G75*
G02*
X55451000Y-37965500I0J67500D01*
G01*
X55451000Y-36625500D01*
G75*
G02*
X55518500Y-36558000I67500J0D01*
G01*
X55653500Y-36558000D01*
G75*
G02*
X55721000Y-36625500I0J-67500D01*
G01*
G37*
G36*
G01*
X55221000Y-36625500D02*
X55221000Y-37965500D01*
G75*
G02*
X55153500Y-38033000I-67500J0D01*
G01*
X55018500Y-38033000D01*
G75*
G02*
X54951000Y-37965500I0J67500D01*
G01*
X54951000Y-36625500D01*
G75*
G02*
X55018500Y-36558000I67500J0D01*
G01*
X55153500Y-36558000D01*
G75*
G02*
X55221000Y-36625500I0J-67500D01*
G01*
G37*
G36*
G01*
X54721000Y-36625500D02*
X54721000Y-37965500D01*
G75*
G02*
X54653500Y-38033000I-67500J0D01*
G01*
X54518500Y-38033000D01*
G75*
G02*
X54451000Y-37965500I0J67500D01*
G01*
X54451000Y-36625500D01*
G75*
G02*
X54518500Y-36558000I67500J0D01*
G01*
X54653500Y-36558000D01*
G75*
G02*
X54721000Y-36625500I0J-67500D01*
G01*
G37*
G36*
G01*
X54221000Y-36625500D02*
X54221000Y-37965500D01*
G75*
G02*
X54153500Y-38033000I-67500J0D01*
G01*
X54018500Y-38033000D01*
G75*
G02*
X53951000Y-37965500I0J67500D01*
G01*
X53951000Y-36625500D01*
G75*
G02*
X54018500Y-36558000I67500J0D01*
G01*
X54153500Y-36558000D01*
G75*
G02*
X54221000Y-36625500I0J-67500D01*
G01*
G37*
G36*
G01*
X53721000Y-36625500D02*
X53721000Y-37965500D01*
G75*
G02*
X53653500Y-38033000I-67500J0D01*
G01*
X53518500Y-38033000D01*
G75*
G02*
X53451000Y-37965500I0J67500D01*
G01*
X53451000Y-36625500D01*
G75*
G02*
X53518500Y-36558000I67500J0D01*
G01*
X53653500Y-36558000D01*
G75*
G02*
X53721000Y-36625500I0J-67500D01*
G01*
G37*
G36*
G01*
X53221000Y-36625500D02*
X53221000Y-37965500D01*
G75*
G02*
X53153500Y-38033000I-67500J0D01*
G01*
X53018500Y-38033000D01*
G75*
G02*
X52951000Y-37965500I0J67500D01*
G01*
X52951000Y-36625500D01*
G75*
G02*
X53018500Y-36558000I67500J0D01*
G01*
X53153500Y-36558000D01*
G75*
G02*
X53221000Y-36625500I0J-67500D01*
G01*
G37*
G36*
G01*
X52721000Y-36625500D02*
X52721000Y-37965500D01*
G75*
G02*
X52653500Y-38033000I-67500J0D01*
G01*
X52518500Y-38033000D01*
G75*
G02*
X52451000Y-37965500I0J67500D01*
G01*
X52451000Y-36625500D01*
G75*
G02*
X52518500Y-36558000I67500J0D01*
G01*
X52653500Y-36558000D01*
G75*
G02*
X52721000Y-36625500I0J-67500D01*
G01*
G37*
G36*
G01*
X52221000Y-36625500D02*
X52221000Y-37965500D01*
G75*
G02*
X52153500Y-38033000I-67500J0D01*
G01*
X52018500Y-38033000D01*
G75*
G02*
X51951000Y-37965500I0J67500D01*
G01*
X51951000Y-36625500D01*
G75*
G02*
X52018500Y-36558000I67500J0D01*
G01*
X52153500Y-36558000D01*
G75*
G02*
X52221000Y-36625500I0J-67500D01*
G01*
G37*
G36*
G01*
X51721000Y-36625500D02*
X51721000Y-37965500D01*
G75*
G02*
X51653500Y-38033000I-67500J0D01*
G01*
X51518500Y-38033000D01*
G75*
G02*
X51451000Y-37965500I0J67500D01*
G01*
X51451000Y-36625500D01*
G75*
G02*
X51518500Y-36558000I67500J0D01*
G01*
X51653500Y-36558000D01*
G75*
G02*
X51721000Y-36625500I0J-67500D01*
G01*
G37*
G36*
G01*
X51221000Y-36625500D02*
X51221000Y-37965500D01*
G75*
G02*
X51153500Y-38033000I-67500J0D01*
G01*
X51018500Y-38033000D01*
G75*
G02*
X50951000Y-37965500I0J67500D01*
G01*
X50951000Y-36625500D01*
G75*
G02*
X51018500Y-36558000I67500J0D01*
G01*
X51153500Y-36558000D01*
G75*
G02*
X51221000Y-36625500I0J-67500D01*
G01*
G37*
G36*
G01*
X50721000Y-36625500D02*
X50721000Y-37965500D01*
G75*
G02*
X50653500Y-38033000I-67500J0D01*
G01*
X50518500Y-38033000D01*
G75*
G02*
X50451000Y-37965500I0J67500D01*
G01*
X50451000Y-36625500D01*
G75*
G02*
X50518500Y-36558000I67500J0D01*
G01*
X50653500Y-36558000D01*
G75*
G02*
X50721000Y-36625500I0J-67500D01*
G01*
G37*
G36*
G01*
X50221000Y-36625500D02*
X50221000Y-37965500D01*
G75*
G02*
X50153500Y-38033000I-67500J0D01*
G01*
X50018500Y-38033000D01*
G75*
G02*
X49951000Y-37965500I0J67500D01*
G01*
X49951000Y-36625500D01*
G75*
G02*
X50018500Y-36558000I67500J0D01*
G01*
X50153500Y-36558000D01*
G75*
G02*
X50221000Y-36625500I0J-67500D01*
G01*
G37*
G36*
G01*
X49721000Y-36625500D02*
X49721000Y-37965500D01*
G75*
G02*
X49653500Y-38033000I-67500J0D01*
G01*
X49518500Y-38033000D01*
G75*
G02*
X49451000Y-37965500I0J67500D01*
G01*
X49451000Y-36625500D01*
G75*
G02*
X49518500Y-36558000I67500J0D01*
G01*
X49653500Y-36558000D01*
G75*
G02*
X49721000Y-36625500I0J-67500D01*
G01*
G37*
G36*
G01*
X49221000Y-36625500D02*
X49221000Y-37965500D01*
G75*
G02*
X49153500Y-38033000I-67500J0D01*
G01*
X49018500Y-38033000D01*
G75*
G02*
X48951000Y-37965500I0J67500D01*
G01*
X48951000Y-36625500D01*
G75*
G02*
X49018500Y-36558000I67500J0D01*
G01*
X49153500Y-36558000D01*
G75*
G02*
X49221000Y-36625500I0J-67500D01*
G01*
G37*
G36*
G01*
X48721000Y-36625500D02*
X48721000Y-37965500D01*
G75*
G02*
X48653500Y-38033000I-67500J0D01*
G01*
X48518500Y-38033000D01*
G75*
G02*
X48451000Y-37965500I0J67500D01*
G01*
X48451000Y-36625500D01*
G75*
G02*
X48518500Y-36558000I67500J0D01*
G01*
X48653500Y-36558000D01*
G75*
G02*
X48721000Y-36625500I0J-67500D01*
G01*
G37*
G36*
G01*
X48221000Y-36625500D02*
X48221000Y-37965500D01*
G75*
G02*
X48153500Y-38033000I-67500J0D01*
G01*
X48018500Y-38033000D01*
G75*
G02*
X47951000Y-37965500I0J67500D01*
G01*
X47951000Y-36625500D01*
G75*
G02*
X48018500Y-36558000I67500J0D01*
G01*
X48153500Y-36558000D01*
G75*
G02*
X48221000Y-36625500I0J-67500D01*
G01*
G37*
G36*
G01*
X47721000Y-36625500D02*
X47721000Y-37965500D01*
G75*
G02*
X47653500Y-38033000I-67500J0D01*
G01*
X47518500Y-38033000D01*
G75*
G02*
X47451000Y-37965500I0J67500D01*
G01*
X47451000Y-36625500D01*
G75*
G02*
X47518500Y-36558000I67500J0D01*
G01*
X47653500Y-36558000D01*
G75*
G02*
X47721000Y-36625500I0J-67500D01*
G01*
G37*
G36*
G01*
X47221000Y-36625500D02*
X47221000Y-37965500D01*
G75*
G02*
X47153500Y-38033000I-67500J0D01*
G01*
X47018500Y-38033000D01*
G75*
G02*
X46951000Y-37965500I0J67500D01*
G01*
X46951000Y-36625500D01*
G75*
G02*
X47018500Y-36558000I67500J0D01*
G01*
X47153500Y-36558000D01*
G75*
G02*
X47221000Y-36625500I0J-67500D01*
G01*
G37*
G36*
G01*
X46161000Y-38890500D02*
X46161000Y-39025500D01*
G75*
G02*
X46093500Y-39093000I-67500J0D01*
G01*
X44753500Y-39093000D01*
G75*
G02*
X44686000Y-39025500I0J67500D01*
G01*
X44686000Y-38890500D01*
G75*
G02*
X44753500Y-38823000I67500J0D01*
G01*
X46093500Y-38823000D01*
G75*
G02*
X46161000Y-38890500I0J-67500D01*
G01*
G37*
G36*
G01*
X46161000Y-39390500D02*
X46161000Y-39525500D01*
G75*
G02*
X46093500Y-39593000I-67500J0D01*
G01*
X44753500Y-39593000D01*
G75*
G02*
X44686000Y-39525500I0J67500D01*
G01*
X44686000Y-39390500D01*
G75*
G02*
X44753500Y-39323000I67500J0D01*
G01*
X46093500Y-39323000D01*
G75*
G02*
X46161000Y-39390500I0J-67500D01*
G01*
G37*
G36*
G01*
X46161000Y-39890500D02*
X46161000Y-40025500D01*
G75*
G02*
X46093500Y-40093000I-67500J0D01*
G01*
X44753500Y-40093000D01*
G75*
G02*
X44686000Y-40025500I0J67500D01*
G01*
X44686000Y-39890500D01*
G75*
G02*
X44753500Y-39823000I67500J0D01*
G01*
X46093500Y-39823000D01*
G75*
G02*
X46161000Y-39890500I0J-67500D01*
G01*
G37*
G36*
G01*
X46161000Y-40390500D02*
X46161000Y-40525500D01*
G75*
G02*
X46093500Y-40593000I-67500J0D01*
G01*
X44753500Y-40593000D01*
G75*
G02*
X44686000Y-40525500I0J67500D01*
G01*
X44686000Y-40390500D01*
G75*
G02*
X44753500Y-40323000I67500J0D01*
G01*
X46093500Y-40323000D01*
G75*
G02*
X46161000Y-40390500I0J-67500D01*
G01*
G37*
G36*
G01*
X46161000Y-40890500D02*
X46161000Y-41025500D01*
G75*
G02*
X46093500Y-41093000I-67500J0D01*
G01*
X44753500Y-41093000D01*
G75*
G02*
X44686000Y-41025500I0J67500D01*
G01*
X44686000Y-40890500D01*
G75*
G02*
X44753500Y-40823000I67500J0D01*
G01*
X46093500Y-40823000D01*
G75*
G02*
X46161000Y-40890500I0J-67500D01*
G01*
G37*
G36*
G01*
X46161000Y-41390500D02*
X46161000Y-41525500D01*
G75*
G02*
X46093500Y-41593000I-67500J0D01*
G01*
X44753500Y-41593000D01*
G75*
G02*
X44686000Y-41525500I0J67500D01*
G01*
X44686000Y-41390500D01*
G75*
G02*
X44753500Y-41323000I67500J0D01*
G01*
X46093500Y-41323000D01*
G75*
G02*
X46161000Y-41390500I0J-67500D01*
G01*
G37*
G36*
G01*
X46161000Y-41890500D02*
X46161000Y-42025500D01*
G75*
G02*
X46093500Y-42093000I-67500J0D01*
G01*
X44753500Y-42093000D01*
G75*
G02*
X44686000Y-42025500I0J67500D01*
G01*
X44686000Y-41890500D01*
G75*
G02*
X44753500Y-41823000I67500J0D01*
G01*
X46093500Y-41823000D01*
G75*
G02*
X46161000Y-41890500I0J-67500D01*
G01*
G37*
G36*
G01*
X46161000Y-42390500D02*
X46161000Y-42525500D01*
G75*
G02*
X46093500Y-42593000I-67500J0D01*
G01*
X44753500Y-42593000D01*
G75*
G02*
X44686000Y-42525500I0J67500D01*
G01*
X44686000Y-42390500D01*
G75*
G02*
X44753500Y-42323000I67500J0D01*
G01*
X46093500Y-42323000D01*
G75*
G02*
X46161000Y-42390500I0J-67500D01*
G01*
G37*
G36*
G01*
X46161000Y-42890500D02*
X46161000Y-43025500D01*
G75*
G02*
X46093500Y-43093000I-67500J0D01*
G01*
X44753500Y-43093000D01*
G75*
G02*
X44686000Y-43025500I0J67500D01*
G01*
X44686000Y-42890500D01*
G75*
G02*
X44753500Y-42823000I67500J0D01*
G01*
X46093500Y-42823000D01*
G75*
G02*
X46161000Y-42890500I0J-67500D01*
G01*
G37*
G36*
G01*
X46161000Y-43390500D02*
X46161000Y-43525500D01*
G75*
G02*
X46093500Y-43593000I-67500J0D01*
G01*
X44753500Y-43593000D01*
G75*
G02*
X44686000Y-43525500I0J67500D01*
G01*
X44686000Y-43390500D01*
G75*
G02*
X44753500Y-43323000I67500J0D01*
G01*
X46093500Y-43323000D01*
G75*
G02*
X46161000Y-43390500I0J-67500D01*
G01*
G37*
G36*
G01*
X46161000Y-43890500D02*
X46161000Y-44025500D01*
G75*
G02*
X46093500Y-44093000I-67500J0D01*
G01*
X44753500Y-44093000D01*
G75*
G02*
X44686000Y-44025500I0J67500D01*
G01*
X44686000Y-43890500D01*
G75*
G02*
X44753500Y-43823000I67500J0D01*
G01*
X46093500Y-43823000D01*
G75*
G02*
X46161000Y-43890500I0J-67500D01*
G01*
G37*
G36*
G01*
X46161000Y-44390500D02*
X46161000Y-44525500D01*
G75*
G02*
X46093500Y-44593000I-67500J0D01*
G01*
X44753500Y-44593000D01*
G75*
G02*
X44686000Y-44525500I0J67500D01*
G01*
X44686000Y-44390500D01*
G75*
G02*
X44753500Y-44323000I67500J0D01*
G01*
X46093500Y-44323000D01*
G75*
G02*
X46161000Y-44390500I0J-67500D01*
G01*
G37*
G36*
G01*
X46161000Y-44890500D02*
X46161000Y-45025500D01*
G75*
G02*
X46093500Y-45093000I-67500J0D01*
G01*
X44753500Y-45093000D01*
G75*
G02*
X44686000Y-45025500I0J67500D01*
G01*
X44686000Y-44890500D01*
G75*
G02*
X44753500Y-44823000I67500J0D01*
G01*
X46093500Y-44823000D01*
G75*
G02*
X46161000Y-44890500I0J-67500D01*
G01*
G37*
G36*
G01*
X46161000Y-45390500D02*
X46161000Y-45525500D01*
G75*
G02*
X46093500Y-45593000I-67500J0D01*
G01*
X44753500Y-45593000D01*
G75*
G02*
X44686000Y-45525500I0J67500D01*
G01*
X44686000Y-45390500D01*
G75*
G02*
X44753500Y-45323000I67500J0D01*
G01*
X46093500Y-45323000D01*
G75*
G02*
X46161000Y-45390500I0J-67500D01*
G01*
G37*
G36*
G01*
X46161000Y-45890500D02*
X46161000Y-46025500D01*
G75*
G02*
X46093500Y-46093000I-67500J0D01*
G01*
X44753500Y-46093000D01*
G75*
G02*
X44686000Y-46025500I0J67500D01*
G01*
X44686000Y-45890500D01*
G75*
G02*
X44753500Y-45823000I67500J0D01*
G01*
X46093500Y-45823000D01*
G75*
G02*
X46161000Y-45890500I0J-67500D01*
G01*
G37*
G36*
G01*
X46161000Y-46390500D02*
X46161000Y-46525500D01*
G75*
G02*
X46093500Y-46593000I-67500J0D01*
G01*
X44753500Y-46593000D01*
G75*
G02*
X44686000Y-46525500I0J67500D01*
G01*
X44686000Y-46390500D01*
G75*
G02*
X44753500Y-46323000I67500J0D01*
G01*
X46093500Y-46323000D01*
G75*
G02*
X46161000Y-46390500I0J-67500D01*
G01*
G37*
G36*
G01*
X46161000Y-46890500D02*
X46161000Y-47025500D01*
G75*
G02*
X46093500Y-47093000I-67500J0D01*
G01*
X44753500Y-47093000D01*
G75*
G02*
X44686000Y-47025500I0J67500D01*
G01*
X44686000Y-46890500D01*
G75*
G02*
X44753500Y-46823000I67500J0D01*
G01*
X46093500Y-46823000D01*
G75*
G02*
X46161000Y-46890500I0J-67500D01*
G01*
G37*
G36*
G01*
X46161000Y-47390500D02*
X46161000Y-47525500D01*
G75*
G02*
X46093500Y-47593000I-67500J0D01*
G01*
X44753500Y-47593000D01*
G75*
G02*
X44686000Y-47525500I0J67500D01*
G01*
X44686000Y-47390500D01*
G75*
G02*
X44753500Y-47323000I67500J0D01*
G01*
X46093500Y-47323000D01*
G75*
G02*
X46161000Y-47390500I0J-67500D01*
G01*
G37*
G36*
G01*
X46161000Y-47890500D02*
X46161000Y-48025500D01*
G75*
G02*
X46093500Y-48093000I-67500J0D01*
G01*
X44753500Y-48093000D01*
G75*
G02*
X44686000Y-48025500I0J67500D01*
G01*
X44686000Y-47890500D01*
G75*
G02*
X44753500Y-47823000I67500J0D01*
G01*
X46093500Y-47823000D01*
G75*
G02*
X46161000Y-47890500I0J-67500D01*
G01*
G37*
G36*
G01*
X46161000Y-48390500D02*
X46161000Y-48525500D01*
G75*
G02*
X46093500Y-48593000I-67500J0D01*
G01*
X44753500Y-48593000D01*
G75*
G02*
X44686000Y-48525500I0J67500D01*
G01*
X44686000Y-48390500D01*
G75*
G02*
X44753500Y-48323000I67500J0D01*
G01*
X46093500Y-48323000D01*
G75*
G02*
X46161000Y-48390500I0J-67500D01*
G01*
G37*
G36*
G01*
X46161000Y-48890500D02*
X46161000Y-49025500D01*
G75*
G02*
X46093500Y-49093000I-67500J0D01*
G01*
X44753500Y-49093000D01*
G75*
G02*
X44686000Y-49025500I0J67500D01*
G01*
X44686000Y-48890500D01*
G75*
G02*
X44753500Y-48823000I67500J0D01*
G01*
X46093500Y-48823000D01*
G75*
G02*
X46161000Y-48890500I0J-67500D01*
G01*
G37*
G36*
G01*
X46161000Y-49390500D02*
X46161000Y-49525500D01*
G75*
G02*
X46093500Y-49593000I-67500J0D01*
G01*
X44753500Y-49593000D01*
G75*
G02*
X44686000Y-49525500I0J67500D01*
G01*
X44686000Y-49390500D01*
G75*
G02*
X44753500Y-49323000I67500J0D01*
G01*
X46093500Y-49323000D01*
G75*
G02*
X46161000Y-49390500I0J-67500D01*
G01*
G37*
G36*
G01*
X46161000Y-49890500D02*
X46161000Y-50025500D01*
G75*
G02*
X46093500Y-50093000I-67500J0D01*
G01*
X44753500Y-50093000D01*
G75*
G02*
X44686000Y-50025500I0J67500D01*
G01*
X44686000Y-49890500D01*
G75*
G02*
X44753500Y-49823000I67500J0D01*
G01*
X46093500Y-49823000D01*
G75*
G02*
X46161000Y-49890500I0J-67500D01*
G01*
G37*
G36*
G01*
X46161000Y-50390500D02*
X46161000Y-50525500D01*
G75*
G02*
X46093500Y-50593000I-67500J0D01*
G01*
X44753500Y-50593000D01*
G75*
G02*
X44686000Y-50525500I0J67500D01*
G01*
X44686000Y-50390500D01*
G75*
G02*
X44753500Y-50323000I67500J0D01*
G01*
X46093500Y-50323000D01*
G75*
G02*
X46161000Y-50390500I0J-67500D01*
G01*
G37*
G36*
G01*
X46161000Y-50890500D02*
X46161000Y-51025500D01*
G75*
G02*
X46093500Y-51093000I-67500J0D01*
G01*
X44753500Y-51093000D01*
G75*
G02*
X44686000Y-51025500I0J67500D01*
G01*
X44686000Y-50890500D01*
G75*
G02*
X44753500Y-50823000I67500J0D01*
G01*
X46093500Y-50823000D01*
G75*
G02*
X46161000Y-50890500I0J-67500D01*
G01*
G37*
G36*
G01*
X47221000Y-51950500D02*
X47221000Y-53290500D01*
G75*
G02*
X47153500Y-53358000I-67500J0D01*
G01*
X47018500Y-53358000D01*
G75*
G02*
X46951000Y-53290500I0J67500D01*
G01*
X46951000Y-51950500D01*
G75*
G02*
X47018500Y-51883000I67500J0D01*
G01*
X47153500Y-51883000D01*
G75*
G02*
X47221000Y-51950500I0J-67500D01*
G01*
G37*
G36*
G01*
X47721000Y-51950500D02*
X47721000Y-53290500D01*
G75*
G02*
X47653500Y-53358000I-67500J0D01*
G01*
X47518500Y-53358000D01*
G75*
G02*
X47451000Y-53290500I0J67500D01*
G01*
X47451000Y-51950500D01*
G75*
G02*
X47518500Y-51883000I67500J0D01*
G01*
X47653500Y-51883000D01*
G75*
G02*
X47721000Y-51950500I0J-67500D01*
G01*
G37*
G36*
G01*
X48221000Y-51950500D02*
X48221000Y-53290500D01*
G75*
G02*
X48153500Y-53358000I-67500J0D01*
G01*
X48018500Y-53358000D01*
G75*
G02*
X47951000Y-53290500I0J67500D01*
G01*
X47951000Y-51950500D01*
G75*
G02*
X48018500Y-51883000I67500J0D01*
G01*
X48153500Y-51883000D01*
G75*
G02*
X48221000Y-51950500I0J-67500D01*
G01*
G37*
G36*
G01*
X48721000Y-51950500D02*
X48721000Y-53290500D01*
G75*
G02*
X48653500Y-53358000I-67500J0D01*
G01*
X48518500Y-53358000D01*
G75*
G02*
X48451000Y-53290500I0J67500D01*
G01*
X48451000Y-51950500D01*
G75*
G02*
X48518500Y-51883000I67500J0D01*
G01*
X48653500Y-51883000D01*
G75*
G02*
X48721000Y-51950500I0J-67500D01*
G01*
G37*
G36*
G01*
X49221000Y-51950500D02*
X49221000Y-53290500D01*
G75*
G02*
X49153500Y-53358000I-67500J0D01*
G01*
X49018500Y-53358000D01*
G75*
G02*
X48951000Y-53290500I0J67500D01*
G01*
X48951000Y-51950500D01*
G75*
G02*
X49018500Y-51883000I67500J0D01*
G01*
X49153500Y-51883000D01*
G75*
G02*
X49221000Y-51950500I0J-67500D01*
G01*
G37*
G36*
G01*
X49721000Y-51950500D02*
X49721000Y-53290500D01*
G75*
G02*
X49653500Y-53358000I-67500J0D01*
G01*
X49518500Y-53358000D01*
G75*
G02*
X49451000Y-53290500I0J67500D01*
G01*
X49451000Y-51950500D01*
G75*
G02*
X49518500Y-51883000I67500J0D01*
G01*
X49653500Y-51883000D01*
G75*
G02*
X49721000Y-51950500I0J-67500D01*
G01*
G37*
G36*
G01*
X50221000Y-51950500D02*
X50221000Y-53290500D01*
G75*
G02*
X50153500Y-53358000I-67500J0D01*
G01*
X50018500Y-53358000D01*
G75*
G02*
X49951000Y-53290500I0J67500D01*
G01*
X49951000Y-51950500D01*
G75*
G02*
X50018500Y-51883000I67500J0D01*
G01*
X50153500Y-51883000D01*
G75*
G02*
X50221000Y-51950500I0J-67500D01*
G01*
G37*
G36*
G01*
X50721000Y-51950500D02*
X50721000Y-53290500D01*
G75*
G02*
X50653500Y-53358000I-67500J0D01*
G01*
X50518500Y-53358000D01*
G75*
G02*
X50451000Y-53290500I0J67500D01*
G01*
X50451000Y-51950500D01*
G75*
G02*
X50518500Y-51883000I67500J0D01*
G01*
X50653500Y-51883000D01*
G75*
G02*
X50721000Y-51950500I0J-67500D01*
G01*
G37*
G36*
G01*
X51221000Y-51950500D02*
X51221000Y-53290500D01*
G75*
G02*
X51153500Y-53358000I-67500J0D01*
G01*
X51018500Y-53358000D01*
G75*
G02*
X50951000Y-53290500I0J67500D01*
G01*
X50951000Y-51950500D01*
G75*
G02*
X51018500Y-51883000I67500J0D01*
G01*
X51153500Y-51883000D01*
G75*
G02*
X51221000Y-51950500I0J-67500D01*
G01*
G37*
G36*
G01*
X51721000Y-51950500D02*
X51721000Y-53290500D01*
G75*
G02*
X51653500Y-53358000I-67500J0D01*
G01*
X51518500Y-53358000D01*
G75*
G02*
X51451000Y-53290500I0J67500D01*
G01*
X51451000Y-51950500D01*
G75*
G02*
X51518500Y-51883000I67500J0D01*
G01*
X51653500Y-51883000D01*
G75*
G02*
X51721000Y-51950500I0J-67500D01*
G01*
G37*
G36*
G01*
X52221000Y-51950500D02*
X52221000Y-53290500D01*
G75*
G02*
X52153500Y-53358000I-67500J0D01*
G01*
X52018500Y-53358000D01*
G75*
G02*
X51951000Y-53290500I0J67500D01*
G01*
X51951000Y-51950500D01*
G75*
G02*
X52018500Y-51883000I67500J0D01*
G01*
X52153500Y-51883000D01*
G75*
G02*
X52221000Y-51950500I0J-67500D01*
G01*
G37*
G36*
G01*
X52721000Y-51950500D02*
X52721000Y-53290500D01*
G75*
G02*
X52653500Y-53358000I-67500J0D01*
G01*
X52518500Y-53358000D01*
G75*
G02*
X52451000Y-53290500I0J67500D01*
G01*
X52451000Y-51950500D01*
G75*
G02*
X52518500Y-51883000I67500J0D01*
G01*
X52653500Y-51883000D01*
G75*
G02*
X52721000Y-51950500I0J-67500D01*
G01*
G37*
G36*
G01*
X53221000Y-51950500D02*
X53221000Y-53290500D01*
G75*
G02*
X53153500Y-53358000I-67500J0D01*
G01*
X53018500Y-53358000D01*
G75*
G02*
X52951000Y-53290500I0J67500D01*
G01*
X52951000Y-51950500D01*
G75*
G02*
X53018500Y-51883000I67500J0D01*
G01*
X53153500Y-51883000D01*
G75*
G02*
X53221000Y-51950500I0J-67500D01*
G01*
G37*
G36*
G01*
X53721000Y-51950500D02*
X53721000Y-53290500D01*
G75*
G02*
X53653500Y-53358000I-67500J0D01*
G01*
X53518500Y-53358000D01*
G75*
G02*
X53451000Y-53290500I0J67500D01*
G01*
X53451000Y-51950500D01*
G75*
G02*
X53518500Y-51883000I67500J0D01*
G01*
X53653500Y-51883000D01*
G75*
G02*
X53721000Y-51950500I0J-67500D01*
G01*
G37*
G36*
G01*
X54221000Y-51950500D02*
X54221000Y-53290500D01*
G75*
G02*
X54153500Y-53358000I-67500J0D01*
G01*
X54018500Y-53358000D01*
G75*
G02*
X53951000Y-53290500I0J67500D01*
G01*
X53951000Y-51950500D01*
G75*
G02*
X54018500Y-51883000I67500J0D01*
G01*
X54153500Y-51883000D01*
G75*
G02*
X54221000Y-51950500I0J-67500D01*
G01*
G37*
G36*
G01*
X54721000Y-51950500D02*
X54721000Y-53290500D01*
G75*
G02*
X54653500Y-53358000I-67500J0D01*
G01*
X54518500Y-53358000D01*
G75*
G02*
X54451000Y-53290500I0J67500D01*
G01*
X54451000Y-51950500D01*
G75*
G02*
X54518500Y-51883000I67500J0D01*
G01*
X54653500Y-51883000D01*
G75*
G02*
X54721000Y-51950500I0J-67500D01*
G01*
G37*
G36*
G01*
X55221000Y-51950500D02*
X55221000Y-53290500D01*
G75*
G02*
X55153500Y-53358000I-67500J0D01*
G01*
X55018500Y-53358000D01*
G75*
G02*
X54951000Y-53290500I0J67500D01*
G01*
X54951000Y-51950500D01*
G75*
G02*
X55018500Y-51883000I67500J0D01*
G01*
X55153500Y-51883000D01*
G75*
G02*
X55221000Y-51950500I0J-67500D01*
G01*
G37*
G36*
G01*
X55721000Y-51950500D02*
X55721000Y-53290500D01*
G75*
G02*
X55653500Y-53358000I-67500J0D01*
G01*
X55518500Y-53358000D01*
G75*
G02*
X55451000Y-53290500I0J67500D01*
G01*
X55451000Y-51950500D01*
G75*
G02*
X55518500Y-51883000I67500J0D01*
G01*
X55653500Y-51883000D01*
G75*
G02*
X55721000Y-51950500I0J-67500D01*
G01*
G37*
G36*
G01*
X56221000Y-51950500D02*
X56221000Y-53290500D01*
G75*
G02*
X56153500Y-53358000I-67500J0D01*
G01*
X56018500Y-53358000D01*
G75*
G02*
X55951000Y-53290500I0J67500D01*
G01*
X55951000Y-51950500D01*
G75*
G02*
X56018500Y-51883000I67500J0D01*
G01*
X56153500Y-51883000D01*
G75*
G02*
X56221000Y-51950500I0J-67500D01*
G01*
G37*
G36*
G01*
X56721000Y-51950500D02*
X56721000Y-53290500D01*
G75*
G02*
X56653500Y-53358000I-67500J0D01*
G01*
X56518500Y-53358000D01*
G75*
G02*
X56451000Y-53290500I0J67500D01*
G01*
X56451000Y-51950500D01*
G75*
G02*
X56518500Y-51883000I67500J0D01*
G01*
X56653500Y-51883000D01*
G75*
G02*
X56721000Y-51950500I0J-67500D01*
G01*
G37*
G36*
G01*
X57221000Y-51950500D02*
X57221000Y-53290500D01*
G75*
G02*
X57153500Y-53358000I-67500J0D01*
G01*
X57018500Y-53358000D01*
G75*
G02*
X56951000Y-53290500I0J67500D01*
G01*
X56951000Y-51950500D01*
G75*
G02*
X57018500Y-51883000I67500J0D01*
G01*
X57153500Y-51883000D01*
G75*
G02*
X57221000Y-51950500I0J-67500D01*
G01*
G37*
G36*
G01*
X57721000Y-51950500D02*
X57721000Y-53290500D01*
G75*
G02*
X57653500Y-53358000I-67500J0D01*
G01*
X57518500Y-53358000D01*
G75*
G02*
X57451000Y-53290500I0J67500D01*
G01*
X57451000Y-51950500D01*
G75*
G02*
X57518500Y-51883000I67500J0D01*
G01*
X57653500Y-51883000D01*
G75*
G02*
X57721000Y-51950500I0J-67500D01*
G01*
G37*
G36*
G01*
X58221000Y-51950500D02*
X58221000Y-53290500D01*
G75*
G02*
X58153500Y-53358000I-67500J0D01*
G01*
X58018500Y-53358000D01*
G75*
G02*
X57951000Y-53290500I0J67500D01*
G01*
X57951000Y-51950500D01*
G75*
G02*
X58018500Y-51883000I67500J0D01*
G01*
X58153500Y-51883000D01*
G75*
G02*
X58221000Y-51950500I0J-67500D01*
G01*
G37*
G36*
G01*
X58721000Y-51950500D02*
X58721000Y-53290500D01*
G75*
G02*
X58653500Y-53358000I-67500J0D01*
G01*
X58518500Y-53358000D01*
G75*
G02*
X58451000Y-53290500I0J67500D01*
G01*
X58451000Y-51950500D01*
G75*
G02*
X58518500Y-51883000I67500J0D01*
G01*
X58653500Y-51883000D01*
G75*
G02*
X58721000Y-51950500I0J-67500D01*
G01*
G37*
G36*
G01*
X59221000Y-51950500D02*
X59221000Y-53290500D01*
G75*
G02*
X59153500Y-53358000I-67500J0D01*
G01*
X59018500Y-53358000D01*
G75*
G02*
X58951000Y-53290500I0J67500D01*
G01*
X58951000Y-51950500D01*
G75*
G02*
X59018500Y-51883000I67500J0D01*
G01*
X59153500Y-51883000D01*
G75*
G02*
X59221000Y-51950500I0J-67500D01*
G01*
G37*
G36*
G01*
X57081000Y-34172000D02*
X57081000Y-33722000D01*
G75*
G02*
X57306000Y-33497000I225000J0D01*
G01*
X57756000Y-33497000D01*
G75*
G02*
X57981000Y-33722000I0J-225000D01*
G01*
X57981000Y-34172000D01*
G75*
G02*
X57756000Y-34397000I-225000J0D01*
G01*
X57306000Y-34397000D01*
G75*
G02*
X57081000Y-34172000I0J225000D01*
G01*
G37*
G36*
G01*
X57081000Y-32572000D02*
X57081000Y-32122000D01*
G75*
G02*
X57306000Y-31897000I225000J0D01*
G01*
X57756000Y-31897000D01*
G75*
G02*
X57981000Y-32122000I0J-225000D01*
G01*
X57981000Y-32572000D01*
G75*
G02*
X57756000Y-32797000I-225000J0D01*
G01*
X57306000Y-32797000D01*
G75*
G02*
X57081000Y-32572000I0J225000D01*
G01*
G37*
G36*
G01*
X69411000Y-35170000D02*
X69411000Y-35620000D01*
G75*
G02*
X69186000Y-35845000I-225000J0D01*
G01*
X68736000Y-35845000D01*
G75*
G02*
X68511000Y-35620000I0J225000D01*
G01*
X68511000Y-35170000D01*
G75*
G02*
X68736000Y-34945000I225000J0D01*
G01*
X69186000Y-34945000D01*
G75*
G02*
X69411000Y-35170000I0J-225000D01*
G01*
G37*
G36*
G01*
X69411000Y-36770000D02*
X69411000Y-37220000D01*
G75*
G02*
X69186000Y-37445000I-225000J0D01*
G01*
X68736000Y-37445000D01*
G75*
G02*
X68511000Y-37220000I0J225000D01*
G01*
X68511000Y-36770000D01*
G75*
G02*
X68736000Y-36545000I225000J0D01*
G01*
X69186000Y-36545000D01*
G75*
G02*
X69411000Y-36770000I0J-225000D01*
G01*
G37*
%LPD*%
M02*
