G04 #@! TF.GenerationSoftware,KiCad,Pcbnew,9.0.4-1.fc42app3*
G04 #@! TF.CreationDate,2025-10-09T13:02:16+02:00*
G04 #@! TF.ProjectId,usb-sniffer_NEW,7573622d-736e-4696-9666-65725f4e4557,v 1.0.0*
G04 #@! TF.SameCoordinates,Original*
G04 #@! TF.FileFunction,Legend,Bot*
G04 #@! TF.FilePolarity,Positive*
%FSLAX46Y46*%
G04 Gerber Fmt 4.6, Leading zero omitted, Abs format (unit mm)*
G04 Created by KiCad (PCBNEW 9.0.4-1.fc42app3) date 2025-10-09 13:02:16*
%MOMM*%
%LPD*%
G01*
G04 APERTURE LIST*
%ADD10C,0.127000*%
%ADD11C,0.120000*%
%ADD12C,1.270000*%
%ADD13C,0.685800*%
%ADD14C,1.016000*%
%ADD15C,1.700000*%
%ADD16O,2.800000X1.600000*%
%ADD17O,3.800000X2.400000*%
G04 APERTURE END LIST*
D10*
X32265857Y-50271776D02*
X32313476Y-50319396D01*
X32313476Y-50319396D02*
X32456333Y-50367015D01*
X32456333Y-50367015D02*
X32551571Y-50367015D01*
X32551571Y-50367015D02*
X32694428Y-50319396D01*
X32694428Y-50319396D02*
X32789666Y-50224157D01*
X32789666Y-50224157D02*
X32837285Y-50128919D01*
X32837285Y-50128919D02*
X32884904Y-49938443D01*
X32884904Y-49938443D02*
X32884904Y-49795586D01*
X32884904Y-49795586D02*
X32837285Y-49605110D01*
X32837285Y-49605110D02*
X32789666Y-49509872D01*
X32789666Y-49509872D02*
X32694428Y-49414634D01*
X32694428Y-49414634D02*
X32551571Y-49367015D01*
X32551571Y-49367015D02*
X32456333Y-49367015D01*
X32456333Y-49367015D02*
X32313476Y-49414634D01*
X32313476Y-49414634D02*
X32265857Y-49462253D01*
X31884904Y-49462253D02*
X31837285Y-49414634D01*
X31837285Y-49414634D02*
X31742047Y-49367015D01*
X31742047Y-49367015D02*
X31503952Y-49367015D01*
X31503952Y-49367015D02*
X31408714Y-49414634D01*
X31408714Y-49414634D02*
X31361095Y-49462253D01*
X31361095Y-49462253D02*
X31313476Y-49557491D01*
X31313476Y-49557491D02*
X31313476Y-49652729D01*
X31313476Y-49652729D02*
X31361095Y-49795586D01*
X31361095Y-49795586D02*
X31932523Y-50367015D01*
X31932523Y-50367015D02*
X31313476Y-50367015D01*
X30456333Y-49700348D02*
X30456333Y-50367015D01*
X30694428Y-49319396D02*
X30932523Y-50033681D01*
X30932523Y-50033681D02*
X30313476Y-50033681D01*
X54685015Y-32456523D02*
X54208824Y-32123190D01*
X54685015Y-31885095D02*
X53685015Y-31885095D01*
X53685015Y-31885095D02*
X53685015Y-32266047D01*
X53685015Y-32266047D02*
X53732634Y-32361285D01*
X53732634Y-32361285D02*
X53780253Y-32408904D01*
X53780253Y-32408904D02*
X53875491Y-32456523D01*
X53875491Y-32456523D02*
X54018348Y-32456523D01*
X54018348Y-32456523D02*
X54113586Y-32408904D01*
X54113586Y-32408904D02*
X54161205Y-32361285D01*
X54161205Y-32361285D02*
X54208824Y-32266047D01*
X54208824Y-32266047D02*
X54208824Y-31885095D01*
X54685015Y-32885095D02*
X53685015Y-32885095D01*
X53685015Y-32885095D02*
X54685015Y-33456523D01*
X54685015Y-33456523D02*
X53685015Y-33456523D01*
X54685015Y-34456523D02*
X54685015Y-33885095D01*
X54685015Y-34170809D02*
X53685015Y-34170809D01*
X53685015Y-34170809D02*
X53827872Y-34075571D01*
X53827872Y-34075571D02*
X53923110Y-33980333D01*
X53923110Y-33980333D02*
X53970729Y-33885095D01*
X32265857Y-44175776D02*
X32313476Y-44223396D01*
X32313476Y-44223396D02*
X32456333Y-44271015D01*
X32456333Y-44271015D02*
X32551571Y-44271015D01*
X32551571Y-44271015D02*
X32694428Y-44223396D01*
X32694428Y-44223396D02*
X32789666Y-44128157D01*
X32789666Y-44128157D02*
X32837285Y-44032919D01*
X32837285Y-44032919D02*
X32884904Y-43842443D01*
X32884904Y-43842443D02*
X32884904Y-43699586D01*
X32884904Y-43699586D02*
X32837285Y-43509110D01*
X32837285Y-43509110D02*
X32789666Y-43413872D01*
X32789666Y-43413872D02*
X32694428Y-43318634D01*
X32694428Y-43318634D02*
X32551571Y-43271015D01*
X32551571Y-43271015D02*
X32456333Y-43271015D01*
X32456333Y-43271015D02*
X32313476Y-43318634D01*
X32313476Y-43318634D02*
X32265857Y-43366253D01*
X31884904Y-43366253D02*
X31837285Y-43318634D01*
X31837285Y-43318634D02*
X31742047Y-43271015D01*
X31742047Y-43271015D02*
X31503952Y-43271015D01*
X31503952Y-43271015D02*
X31408714Y-43318634D01*
X31408714Y-43318634D02*
X31361095Y-43366253D01*
X31361095Y-43366253D02*
X31313476Y-43461491D01*
X31313476Y-43461491D02*
X31313476Y-43556729D01*
X31313476Y-43556729D02*
X31361095Y-43699586D01*
X31361095Y-43699586D02*
X31932523Y-44271015D01*
X31932523Y-44271015D02*
X31313476Y-44271015D01*
X30456333Y-43271015D02*
X30646809Y-43271015D01*
X30646809Y-43271015D02*
X30742047Y-43318634D01*
X30742047Y-43318634D02*
X30789666Y-43366253D01*
X30789666Y-43366253D02*
X30884904Y-43509110D01*
X30884904Y-43509110D02*
X30932523Y-43699586D01*
X30932523Y-43699586D02*
X30932523Y-44080538D01*
X30932523Y-44080538D02*
X30884904Y-44175776D01*
X30884904Y-44175776D02*
X30837285Y-44223396D01*
X30837285Y-44223396D02*
X30742047Y-44271015D01*
X30742047Y-44271015D02*
X30551571Y-44271015D01*
X30551571Y-44271015D02*
X30456333Y-44223396D01*
X30456333Y-44223396D02*
X30408714Y-44175776D01*
X30408714Y-44175776D02*
X30361095Y-44080538D01*
X30361095Y-44080538D02*
X30361095Y-43842443D01*
X30361095Y-43842443D02*
X30408714Y-43747205D01*
X30408714Y-43747205D02*
X30456333Y-43699586D01*
X30456333Y-43699586D02*
X30551571Y-43651967D01*
X30551571Y-43651967D02*
X30742047Y-43651967D01*
X30742047Y-43651967D02*
X30837285Y-43699586D01*
X30837285Y-43699586D02*
X30884904Y-43747205D01*
X30884904Y-43747205D02*
X30932523Y-43842443D01*
X38076094Y-36270015D02*
X38076094Y-35270015D01*
X38076094Y-35270015D02*
X37837999Y-35270015D01*
X37837999Y-35270015D02*
X37695142Y-35317634D01*
X37695142Y-35317634D02*
X37599904Y-35412872D01*
X37599904Y-35412872D02*
X37552285Y-35508110D01*
X37552285Y-35508110D02*
X37504666Y-35698586D01*
X37504666Y-35698586D02*
X37504666Y-35841443D01*
X37504666Y-35841443D02*
X37552285Y-36031919D01*
X37552285Y-36031919D02*
X37599904Y-36127157D01*
X37599904Y-36127157D02*
X37695142Y-36222396D01*
X37695142Y-36222396D02*
X37837999Y-36270015D01*
X37837999Y-36270015D02*
X38076094Y-36270015D01*
X36552285Y-36270015D02*
X37123713Y-36270015D01*
X36837999Y-36270015D02*
X36837999Y-35270015D01*
X36837999Y-35270015D02*
X36933237Y-35412872D01*
X36933237Y-35412872D02*
X37028475Y-35508110D01*
X37028475Y-35508110D02*
X37123713Y-35555729D01*
X32265857Y-53954776D02*
X32313476Y-54002396D01*
X32313476Y-54002396D02*
X32456333Y-54050015D01*
X32456333Y-54050015D02*
X32551571Y-54050015D01*
X32551571Y-54050015D02*
X32694428Y-54002396D01*
X32694428Y-54002396D02*
X32789666Y-53907157D01*
X32789666Y-53907157D02*
X32837285Y-53811919D01*
X32837285Y-53811919D02*
X32884904Y-53621443D01*
X32884904Y-53621443D02*
X32884904Y-53478586D01*
X32884904Y-53478586D02*
X32837285Y-53288110D01*
X32837285Y-53288110D02*
X32789666Y-53192872D01*
X32789666Y-53192872D02*
X32694428Y-53097634D01*
X32694428Y-53097634D02*
X32551571Y-53050015D01*
X32551571Y-53050015D02*
X32456333Y-53050015D01*
X32456333Y-53050015D02*
X32313476Y-53097634D01*
X32313476Y-53097634D02*
X32265857Y-53145253D01*
X31884904Y-53145253D02*
X31837285Y-53097634D01*
X31837285Y-53097634D02*
X31742047Y-53050015D01*
X31742047Y-53050015D02*
X31503952Y-53050015D01*
X31503952Y-53050015D02*
X31408714Y-53097634D01*
X31408714Y-53097634D02*
X31361095Y-53145253D01*
X31361095Y-53145253D02*
X31313476Y-53240491D01*
X31313476Y-53240491D02*
X31313476Y-53335729D01*
X31313476Y-53335729D02*
X31361095Y-53478586D01*
X31361095Y-53478586D02*
X31932523Y-54050015D01*
X31932523Y-54050015D02*
X31313476Y-54050015D01*
X30837285Y-54050015D02*
X30646809Y-54050015D01*
X30646809Y-54050015D02*
X30551571Y-54002396D01*
X30551571Y-54002396D02*
X30503952Y-53954776D01*
X30503952Y-53954776D02*
X30408714Y-53811919D01*
X30408714Y-53811919D02*
X30361095Y-53621443D01*
X30361095Y-53621443D02*
X30361095Y-53240491D01*
X30361095Y-53240491D02*
X30408714Y-53145253D01*
X30408714Y-53145253D02*
X30456333Y-53097634D01*
X30456333Y-53097634D02*
X30551571Y-53050015D01*
X30551571Y-53050015D02*
X30742047Y-53050015D01*
X30742047Y-53050015D02*
X30837285Y-53097634D01*
X30837285Y-53097634D02*
X30884904Y-53145253D01*
X30884904Y-53145253D02*
X30932523Y-53240491D01*
X30932523Y-53240491D02*
X30932523Y-53478586D01*
X30932523Y-53478586D02*
X30884904Y-53573824D01*
X30884904Y-53573824D02*
X30837285Y-53621443D01*
X30837285Y-53621443D02*
X30742047Y-53669062D01*
X30742047Y-53669062D02*
X30551571Y-53669062D01*
X30551571Y-53669062D02*
X30456333Y-53621443D01*
X30456333Y-53621443D02*
X30408714Y-53573824D01*
X30408714Y-53573824D02*
X30361095Y-53478586D01*
X39250857Y-41635776D02*
X39298476Y-41683396D01*
X39298476Y-41683396D02*
X39441333Y-41731015D01*
X39441333Y-41731015D02*
X39536571Y-41731015D01*
X39536571Y-41731015D02*
X39679428Y-41683396D01*
X39679428Y-41683396D02*
X39774666Y-41588157D01*
X39774666Y-41588157D02*
X39822285Y-41492919D01*
X39822285Y-41492919D02*
X39869904Y-41302443D01*
X39869904Y-41302443D02*
X39869904Y-41159586D01*
X39869904Y-41159586D02*
X39822285Y-40969110D01*
X39822285Y-40969110D02*
X39774666Y-40873872D01*
X39774666Y-40873872D02*
X39679428Y-40778634D01*
X39679428Y-40778634D02*
X39536571Y-40731015D01*
X39536571Y-40731015D02*
X39441333Y-40731015D01*
X39441333Y-40731015D02*
X39298476Y-40778634D01*
X39298476Y-40778634D02*
X39250857Y-40826253D01*
X38869904Y-40826253D02*
X38822285Y-40778634D01*
X38822285Y-40778634D02*
X38727047Y-40731015D01*
X38727047Y-40731015D02*
X38488952Y-40731015D01*
X38488952Y-40731015D02*
X38393714Y-40778634D01*
X38393714Y-40778634D02*
X38346095Y-40826253D01*
X38346095Y-40826253D02*
X38298476Y-40921491D01*
X38298476Y-40921491D02*
X38298476Y-41016729D01*
X38298476Y-41016729D02*
X38346095Y-41159586D01*
X38346095Y-41159586D02*
X38917523Y-41731015D01*
X38917523Y-41731015D02*
X38298476Y-41731015D01*
X37727047Y-41159586D02*
X37822285Y-41111967D01*
X37822285Y-41111967D02*
X37869904Y-41064348D01*
X37869904Y-41064348D02*
X37917523Y-40969110D01*
X37917523Y-40969110D02*
X37917523Y-40921491D01*
X37917523Y-40921491D02*
X37869904Y-40826253D01*
X37869904Y-40826253D02*
X37822285Y-40778634D01*
X37822285Y-40778634D02*
X37727047Y-40731015D01*
X37727047Y-40731015D02*
X37536571Y-40731015D01*
X37536571Y-40731015D02*
X37441333Y-40778634D01*
X37441333Y-40778634D02*
X37393714Y-40826253D01*
X37393714Y-40826253D02*
X37346095Y-40921491D01*
X37346095Y-40921491D02*
X37346095Y-40969110D01*
X37346095Y-40969110D02*
X37393714Y-41064348D01*
X37393714Y-41064348D02*
X37441333Y-41111967D01*
X37441333Y-41111967D02*
X37536571Y-41159586D01*
X37536571Y-41159586D02*
X37727047Y-41159586D01*
X37727047Y-41159586D02*
X37822285Y-41207205D01*
X37822285Y-41207205D02*
X37869904Y-41254824D01*
X37869904Y-41254824D02*
X37917523Y-41350062D01*
X37917523Y-41350062D02*
X37917523Y-41540538D01*
X37917523Y-41540538D02*
X37869904Y-41635776D01*
X37869904Y-41635776D02*
X37822285Y-41683396D01*
X37822285Y-41683396D02*
X37727047Y-41731015D01*
X37727047Y-41731015D02*
X37536571Y-41731015D01*
X37536571Y-41731015D02*
X37441333Y-41683396D01*
X37441333Y-41683396D02*
X37393714Y-41635776D01*
X37393714Y-41635776D02*
X37346095Y-41540538D01*
X37346095Y-41540538D02*
X37346095Y-41350062D01*
X37346095Y-41350062D02*
X37393714Y-41254824D01*
X37393714Y-41254824D02*
X37441333Y-41207205D01*
X37441333Y-41207205D02*
X37536571Y-41159586D01*
X39250857Y-46938015D02*
X39584190Y-46461824D01*
X39822285Y-46938015D02*
X39822285Y-45938015D01*
X39822285Y-45938015D02*
X39441333Y-45938015D01*
X39441333Y-45938015D02*
X39346095Y-45985634D01*
X39346095Y-45985634D02*
X39298476Y-46033253D01*
X39298476Y-46033253D02*
X39250857Y-46128491D01*
X39250857Y-46128491D02*
X39250857Y-46271348D01*
X39250857Y-46271348D02*
X39298476Y-46366586D01*
X39298476Y-46366586D02*
X39346095Y-46414205D01*
X39346095Y-46414205D02*
X39441333Y-46461824D01*
X39441333Y-46461824D02*
X39822285Y-46461824D01*
X38869904Y-46033253D02*
X38822285Y-45985634D01*
X38822285Y-45985634D02*
X38727047Y-45938015D01*
X38727047Y-45938015D02*
X38488952Y-45938015D01*
X38488952Y-45938015D02*
X38393714Y-45985634D01*
X38393714Y-45985634D02*
X38346095Y-46033253D01*
X38346095Y-46033253D02*
X38298476Y-46128491D01*
X38298476Y-46128491D02*
X38298476Y-46223729D01*
X38298476Y-46223729D02*
X38346095Y-46366586D01*
X38346095Y-46366586D02*
X38917523Y-46938015D01*
X38917523Y-46938015D02*
X38298476Y-46938015D01*
X37346095Y-46938015D02*
X37917523Y-46938015D01*
X37631809Y-46938015D02*
X37631809Y-45938015D01*
X37631809Y-45938015D02*
X37727047Y-46080872D01*
X37727047Y-46080872D02*
X37822285Y-46176110D01*
X37822285Y-46176110D02*
X37917523Y-46223729D01*
X57538857Y-58241015D02*
X57872190Y-57764824D01*
X58110285Y-58241015D02*
X58110285Y-57241015D01*
X58110285Y-57241015D02*
X57729333Y-57241015D01*
X57729333Y-57241015D02*
X57634095Y-57288634D01*
X57634095Y-57288634D02*
X57586476Y-57336253D01*
X57586476Y-57336253D02*
X57538857Y-57431491D01*
X57538857Y-57431491D02*
X57538857Y-57574348D01*
X57538857Y-57574348D02*
X57586476Y-57669586D01*
X57586476Y-57669586D02*
X57634095Y-57717205D01*
X57634095Y-57717205D02*
X57729333Y-57764824D01*
X57729333Y-57764824D02*
X58110285Y-57764824D01*
X56586476Y-58241015D02*
X57157904Y-58241015D01*
X56872190Y-58241015D02*
X56872190Y-57241015D01*
X56872190Y-57241015D02*
X56967428Y-57383872D01*
X56967428Y-57383872D02*
X57062666Y-57479110D01*
X57062666Y-57479110D02*
X57157904Y-57526729D01*
X55729333Y-57574348D02*
X55729333Y-58241015D01*
X55967428Y-57193396D02*
X56205523Y-57907681D01*
X56205523Y-57907681D02*
X55586476Y-57907681D01*
X48553666Y-42524776D02*
X48601285Y-42572396D01*
X48601285Y-42572396D02*
X48744142Y-42620015D01*
X48744142Y-42620015D02*
X48839380Y-42620015D01*
X48839380Y-42620015D02*
X48982237Y-42572396D01*
X48982237Y-42572396D02*
X49077475Y-42477157D01*
X49077475Y-42477157D02*
X49125094Y-42381919D01*
X49125094Y-42381919D02*
X49172713Y-42191443D01*
X49172713Y-42191443D02*
X49172713Y-42048586D01*
X49172713Y-42048586D02*
X49125094Y-41858110D01*
X49125094Y-41858110D02*
X49077475Y-41762872D01*
X49077475Y-41762872D02*
X48982237Y-41667634D01*
X48982237Y-41667634D02*
X48839380Y-41620015D01*
X48839380Y-41620015D02*
X48744142Y-41620015D01*
X48744142Y-41620015D02*
X48601285Y-41667634D01*
X48601285Y-41667634D02*
X48553666Y-41715253D01*
X48220332Y-41620015D02*
X47601285Y-41620015D01*
X47601285Y-41620015D02*
X47934618Y-42000967D01*
X47934618Y-42000967D02*
X47791761Y-42000967D01*
X47791761Y-42000967D02*
X47696523Y-42048586D01*
X47696523Y-42048586D02*
X47648904Y-42096205D01*
X47648904Y-42096205D02*
X47601285Y-42191443D01*
X47601285Y-42191443D02*
X47601285Y-42429538D01*
X47601285Y-42429538D02*
X47648904Y-42524776D01*
X47648904Y-42524776D02*
X47696523Y-42572396D01*
X47696523Y-42572396D02*
X47791761Y-42620015D01*
X47791761Y-42620015D02*
X48077475Y-42620015D01*
X48077475Y-42620015D02*
X48172713Y-42572396D01*
X48172713Y-42572396D02*
X48220332Y-42524776D01*
X28046776Y-48690333D02*
X28094396Y-48642714D01*
X28094396Y-48642714D02*
X28142015Y-48499857D01*
X28142015Y-48499857D02*
X28142015Y-48404619D01*
X28142015Y-48404619D02*
X28094396Y-48261762D01*
X28094396Y-48261762D02*
X27999157Y-48166524D01*
X27999157Y-48166524D02*
X27903919Y-48118905D01*
X27903919Y-48118905D02*
X27713443Y-48071286D01*
X27713443Y-48071286D02*
X27570586Y-48071286D01*
X27570586Y-48071286D02*
X27380110Y-48118905D01*
X27380110Y-48118905D02*
X27284872Y-48166524D01*
X27284872Y-48166524D02*
X27189634Y-48261762D01*
X27189634Y-48261762D02*
X27142015Y-48404619D01*
X27142015Y-48404619D02*
X27142015Y-48499857D01*
X27142015Y-48499857D02*
X27189634Y-48642714D01*
X27189634Y-48642714D02*
X27237253Y-48690333D01*
X28142015Y-49166524D02*
X28142015Y-49357000D01*
X28142015Y-49357000D02*
X28094396Y-49452238D01*
X28094396Y-49452238D02*
X28046776Y-49499857D01*
X28046776Y-49499857D02*
X27903919Y-49595095D01*
X27903919Y-49595095D02*
X27713443Y-49642714D01*
X27713443Y-49642714D02*
X27332491Y-49642714D01*
X27332491Y-49642714D02*
X27237253Y-49595095D01*
X27237253Y-49595095D02*
X27189634Y-49547476D01*
X27189634Y-49547476D02*
X27142015Y-49452238D01*
X27142015Y-49452238D02*
X27142015Y-49261762D01*
X27142015Y-49261762D02*
X27189634Y-49166524D01*
X27189634Y-49166524D02*
X27237253Y-49118905D01*
X27237253Y-49118905D02*
X27332491Y-49071286D01*
X27332491Y-49071286D02*
X27570586Y-49071286D01*
X27570586Y-49071286D02*
X27665824Y-49118905D01*
X27665824Y-49118905D02*
X27713443Y-49166524D01*
X27713443Y-49166524D02*
X27761062Y-49261762D01*
X27761062Y-49261762D02*
X27761062Y-49452238D01*
X27761062Y-49452238D02*
X27713443Y-49547476D01*
X27713443Y-49547476D02*
X27665824Y-49595095D01*
X27665824Y-49595095D02*
X27570586Y-49642714D01*
X57538857Y-55066015D02*
X57872190Y-54589824D01*
X58110285Y-55066015D02*
X58110285Y-54066015D01*
X58110285Y-54066015D02*
X57729333Y-54066015D01*
X57729333Y-54066015D02*
X57634095Y-54113634D01*
X57634095Y-54113634D02*
X57586476Y-54161253D01*
X57586476Y-54161253D02*
X57538857Y-54256491D01*
X57538857Y-54256491D02*
X57538857Y-54399348D01*
X57538857Y-54399348D02*
X57586476Y-54494586D01*
X57586476Y-54494586D02*
X57634095Y-54542205D01*
X57634095Y-54542205D02*
X57729333Y-54589824D01*
X57729333Y-54589824D02*
X58110285Y-54589824D01*
X56586476Y-55066015D02*
X57157904Y-55066015D01*
X56872190Y-55066015D02*
X56872190Y-54066015D01*
X56872190Y-54066015D02*
X56967428Y-54208872D01*
X56967428Y-54208872D02*
X57062666Y-54304110D01*
X57062666Y-54304110D02*
X57157904Y-54351729D01*
X56205523Y-54161253D02*
X56157904Y-54113634D01*
X56157904Y-54113634D02*
X56062666Y-54066015D01*
X56062666Y-54066015D02*
X55824571Y-54066015D01*
X55824571Y-54066015D02*
X55729333Y-54113634D01*
X55729333Y-54113634D02*
X55681714Y-54161253D01*
X55681714Y-54161253D02*
X55634095Y-54256491D01*
X55634095Y-54256491D02*
X55634095Y-54351729D01*
X55634095Y-54351729D02*
X55681714Y-54494586D01*
X55681714Y-54494586D02*
X56253142Y-55066015D01*
X56253142Y-55066015D02*
X55634095Y-55066015D01*
X32265857Y-42651776D02*
X32313476Y-42699396D01*
X32313476Y-42699396D02*
X32456333Y-42747015D01*
X32456333Y-42747015D02*
X32551571Y-42747015D01*
X32551571Y-42747015D02*
X32694428Y-42699396D01*
X32694428Y-42699396D02*
X32789666Y-42604157D01*
X32789666Y-42604157D02*
X32837285Y-42508919D01*
X32837285Y-42508919D02*
X32884904Y-42318443D01*
X32884904Y-42318443D02*
X32884904Y-42175586D01*
X32884904Y-42175586D02*
X32837285Y-41985110D01*
X32837285Y-41985110D02*
X32789666Y-41889872D01*
X32789666Y-41889872D02*
X32694428Y-41794634D01*
X32694428Y-41794634D02*
X32551571Y-41747015D01*
X32551571Y-41747015D02*
X32456333Y-41747015D01*
X32456333Y-41747015D02*
X32313476Y-41794634D01*
X32313476Y-41794634D02*
X32265857Y-41842253D01*
X31884904Y-41842253D02*
X31837285Y-41794634D01*
X31837285Y-41794634D02*
X31742047Y-41747015D01*
X31742047Y-41747015D02*
X31503952Y-41747015D01*
X31503952Y-41747015D02*
X31408714Y-41794634D01*
X31408714Y-41794634D02*
X31361095Y-41842253D01*
X31361095Y-41842253D02*
X31313476Y-41937491D01*
X31313476Y-41937491D02*
X31313476Y-42032729D01*
X31313476Y-42032729D02*
X31361095Y-42175586D01*
X31361095Y-42175586D02*
X31932523Y-42747015D01*
X31932523Y-42747015D02*
X31313476Y-42747015D01*
X30932523Y-41842253D02*
X30884904Y-41794634D01*
X30884904Y-41794634D02*
X30789666Y-41747015D01*
X30789666Y-41747015D02*
X30551571Y-41747015D01*
X30551571Y-41747015D02*
X30456333Y-41794634D01*
X30456333Y-41794634D02*
X30408714Y-41842253D01*
X30408714Y-41842253D02*
X30361095Y-41937491D01*
X30361095Y-41937491D02*
X30361095Y-42032729D01*
X30361095Y-42032729D02*
X30408714Y-42175586D01*
X30408714Y-42175586D02*
X30980142Y-42747015D01*
X30980142Y-42747015D02*
X30361095Y-42747015D01*
X57538857Y-64591015D02*
X57872190Y-64114824D01*
X58110285Y-64591015D02*
X58110285Y-63591015D01*
X58110285Y-63591015D02*
X57729333Y-63591015D01*
X57729333Y-63591015D02*
X57634095Y-63638634D01*
X57634095Y-63638634D02*
X57586476Y-63686253D01*
X57586476Y-63686253D02*
X57538857Y-63781491D01*
X57538857Y-63781491D02*
X57538857Y-63924348D01*
X57538857Y-63924348D02*
X57586476Y-64019586D01*
X57586476Y-64019586D02*
X57634095Y-64067205D01*
X57634095Y-64067205D02*
X57729333Y-64114824D01*
X57729333Y-64114824D02*
X58110285Y-64114824D01*
X56586476Y-64591015D02*
X57157904Y-64591015D01*
X56872190Y-64591015D02*
X56872190Y-63591015D01*
X56872190Y-63591015D02*
X56967428Y-63733872D01*
X56967428Y-63733872D02*
X57062666Y-63829110D01*
X57062666Y-63829110D02*
X57157904Y-63876729D01*
X55729333Y-63591015D02*
X55919809Y-63591015D01*
X55919809Y-63591015D02*
X56015047Y-63638634D01*
X56015047Y-63638634D02*
X56062666Y-63686253D01*
X56062666Y-63686253D02*
X56157904Y-63829110D01*
X56157904Y-63829110D02*
X56205523Y-64019586D01*
X56205523Y-64019586D02*
X56205523Y-64400538D01*
X56205523Y-64400538D02*
X56157904Y-64495776D01*
X56157904Y-64495776D02*
X56110285Y-64543396D01*
X56110285Y-64543396D02*
X56015047Y-64591015D01*
X56015047Y-64591015D02*
X55824571Y-64591015D01*
X55824571Y-64591015D02*
X55729333Y-64543396D01*
X55729333Y-64543396D02*
X55681714Y-64495776D01*
X55681714Y-64495776D02*
X55634095Y-64400538D01*
X55634095Y-64400538D02*
X55634095Y-64162443D01*
X55634095Y-64162443D02*
X55681714Y-64067205D01*
X55681714Y-64067205D02*
X55729333Y-64019586D01*
X55729333Y-64019586D02*
X55824571Y-63971967D01*
X55824571Y-63971967D02*
X56015047Y-63971967D01*
X56015047Y-63971967D02*
X56110285Y-64019586D01*
X56110285Y-64019586D02*
X56157904Y-64067205D01*
X56157904Y-64067205D02*
X56205523Y-64162443D01*
X60812776Y-49490333D02*
X60860396Y-49442714D01*
X60860396Y-49442714D02*
X60908015Y-49299857D01*
X60908015Y-49299857D02*
X60908015Y-49204619D01*
X60908015Y-49204619D02*
X60860396Y-49061762D01*
X60860396Y-49061762D02*
X60765157Y-48966524D01*
X60765157Y-48966524D02*
X60669919Y-48918905D01*
X60669919Y-48918905D02*
X60479443Y-48871286D01*
X60479443Y-48871286D02*
X60336586Y-48871286D01*
X60336586Y-48871286D02*
X60146110Y-48918905D01*
X60146110Y-48918905D02*
X60050872Y-48966524D01*
X60050872Y-48966524D02*
X59955634Y-49061762D01*
X59955634Y-49061762D02*
X59908015Y-49204619D01*
X59908015Y-49204619D02*
X59908015Y-49299857D01*
X59908015Y-49299857D02*
X59955634Y-49442714D01*
X59955634Y-49442714D02*
X60003253Y-49490333D01*
X59908015Y-50347476D02*
X59908015Y-50157000D01*
X59908015Y-50157000D02*
X59955634Y-50061762D01*
X59955634Y-50061762D02*
X60003253Y-50014143D01*
X60003253Y-50014143D02*
X60146110Y-49918905D01*
X60146110Y-49918905D02*
X60336586Y-49871286D01*
X60336586Y-49871286D02*
X60717538Y-49871286D01*
X60717538Y-49871286D02*
X60812776Y-49918905D01*
X60812776Y-49918905D02*
X60860396Y-49966524D01*
X60860396Y-49966524D02*
X60908015Y-50061762D01*
X60908015Y-50061762D02*
X60908015Y-50252238D01*
X60908015Y-50252238D02*
X60860396Y-50347476D01*
X60860396Y-50347476D02*
X60812776Y-50395095D01*
X60812776Y-50395095D02*
X60717538Y-50442714D01*
X60717538Y-50442714D02*
X60479443Y-50442714D01*
X60479443Y-50442714D02*
X60384205Y-50395095D01*
X60384205Y-50395095D02*
X60336586Y-50347476D01*
X60336586Y-50347476D02*
X60288967Y-50252238D01*
X60288967Y-50252238D02*
X60288967Y-50061762D01*
X60288967Y-50061762D02*
X60336586Y-49966524D01*
X60336586Y-49966524D02*
X60384205Y-49918905D01*
X60384205Y-49918905D02*
X60479443Y-49871286D01*
X72683666Y-35508015D02*
X73016999Y-35031824D01*
X73255094Y-35508015D02*
X73255094Y-34508015D01*
X73255094Y-34508015D02*
X72874142Y-34508015D01*
X72874142Y-34508015D02*
X72778904Y-34555634D01*
X72778904Y-34555634D02*
X72731285Y-34603253D01*
X72731285Y-34603253D02*
X72683666Y-34698491D01*
X72683666Y-34698491D02*
X72683666Y-34841348D01*
X72683666Y-34841348D02*
X72731285Y-34936586D01*
X72731285Y-34936586D02*
X72778904Y-34984205D01*
X72778904Y-34984205D02*
X72874142Y-35031824D01*
X72874142Y-35031824D02*
X73255094Y-35031824D01*
X71826523Y-34841348D02*
X71826523Y-35508015D01*
X72064618Y-34460396D02*
X72302713Y-35174681D01*
X72302713Y-35174681D02*
X71683666Y-35174681D01*
X42425857Y-53954776D02*
X42473476Y-54002396D01*
X42473476Y-54002396D02*
X42616333Y-54050015D01*
X42616333Y-54050015D02*
X42711571Y-54050015D01*
X42711571Y-54050015D02*
X42854428Y-54002396D01*
X42854428Y-54002396D02*
X42949666Y-53907157D01*
X42949666Y-53907157D02*
X42997285Y-53811919D01*
X42997285Y-53811919D02*
X43044904Y-53621443D01*
X43044904Y-53621443D02*
X43044904Y-53478586D01*
X43044904Y-53478586D02*
X42997285Y-53288110D01*
X42997285Y-53288110D02*
X42949666Y-53192872D01*
X42949666Y-53192872D02*
X42854428Y-53097634D01*
X42854428Y-53097634D02*
X42711571Y-53050015D01*
X42711571Y-53050015D02*
X42616333Y-53050015D01*
X42616333Y-53050015D02*
X42473476Y-53097634D01*
X42473476Y-53097634D02*
X42425857Y-53145253D01*
X42044904Y-53145253D02*
X41997285Y-53097634D01*
X41997285Y-53097634D02*
X41902047Y-53050015D01*
X41902047Y-53050015D02*
X41663952Y-53050015D01*
X41663952Y-53050015D02*
X41568714Y-53097634D01*
X41568714Y-53097634D02*
X41521095Y-53145253D01*
X41521095Y-53145253D02*
X41473476Y-53240491D01*
X41473476Y-53240491D02*
X41473476Y-53335729D01*
X41473476Y-53335729D02*
X41521095Y-53478586D01*
X41521095Y-53478586D02*
X42092523Y-54050015D01*
X42092523Y-54050015D02*
X41473476Y-54050015D01*
X41140142Y-53050015D02*
X40521095Y-53050015D01*
X40521095Y-53050015D02*
X40854428Y-53430967D01*
X40854428Y-53430967D02*
X40711571Y-53430967D01*
X40711571Y-53430967D02*
X40616333Y-53478586D01*
X40616333Y-53478586D02*
X40568714Y-53526205D01*
X40568714Y-53526205D02*
X40521095Y-53621443D01*
X40521095Y-53621443D02*
X40521095Y-53859538D01*
X40521095Y-53859538D02*
X40568714Y-53954776D01*
X40568714Y-53954776D02*
X40616333Y-54002396D01*
X40616333Y-54002396D02*
X40711571Y-54050015D01*
X40711571Y-54050015D02*
X40997285Y-54050015D01*
X40997285Y-54050015D02*
X41092523Y-54002396D01*
X41092523Y-54002396D02*
X41140142Y-53954776D01*
X45467666Y-49001776D02*
X45515285Y-49049396D01*
X45515285Y-49049396D02*
X45658142Y-49097015D01*
X45658142Y-49097015D02*
X45753380Y-49097015D01*
X45753380Y-49097015D02*
X45896237Y-49049396D01*
X45896237Y-49049396D02*
X45991475Y-48954157D01*
X45991475Y-48954157D02*
X46039094Y-48858919D01*
X46039094Y-48858919D02*
X46086713Y-48668443D01*
X46086713Y-48668443D02*
X46086713Y-48525586D01*
X46086713Y-48525586D02*
X46039094Y-48335110D01*
X46039094Y-48335110D02*
X45991475Y-48239872D01*
X45991475Y-48239872D02*
X45896237Y-48144634D01*
X45896237Y-48144634D02*
X45753380Y-48097015D01*
X45753380Y-48097015D02*
X45658142Y-48097015D01*
X45658142Y-48097015D02*
X45515285Y-48144634D01*
X45515285Y-48144634D02*
X45467666Y-48192253D01*
X44562904Y-48097015D02*
X45039094Y-48097015D01*
X45039094Y-48097015D02*
X45086713Y-48573205D01*
X45086713Y-48573205D02*
X45039094Y-48525586D01*
X45039094Y-48525586D02*
X44943856Y-48477967D01*
X44943856Y-48477967D02*
X44705761Y-48477967D01*
X44705761Y-48477967D02*
X44610523Y-48525586D01*
X44610523Y-48525586D02*
X44562904Y-48573205D01*
X44562904Y-48573205D02*
X44515285Y-48668443D01*
X44515285Y-48668443D02*
X44515285Y-48906538D01*
X44515285Y-48906538D02*
X44562904Y-49001776D01*
X44562904Y-49001776D02*
X44610523Y-49049396D01*
X44610523Y-49049396D02*
X44705761Y-49097015D01*
X44705761Y-49097015D02*
X44943856Y-49097015D01*
X44943856Y-49097015D02*
X45039094Y-49049396D01*
X45039094Y-49049396D02*
X45086713Y-49001776D01*
X61066776Y-37298333D02*
X61114396Y-37250714D01*
X61114396Y-37250714D02*
X61162015Y-37107857D01*
X61162015Y-37107857D02*
X61162015Y-37012619D01*
X61162015Y-37012619D02*
X61114396Y-36869762D01*
X61114396Y-36869762D02*
X61019157Y-36774524D01*
X61019157Y-36774524D02*
X60923919Y-36726905D01*
X60923919Y-36726905D02*
X60733443Y-36679286D01*
X60733443Y-36679286D02*
X60590586Y-36679286D01*
X60590586Y-36679286D02*
X60400110Y-36726905D01*
X60400110Y-36726905D02*
X60304872Y-36774524D01*
X60304872Y-36774524D02*
X60209634Y-36869762D01*
X60209634Y-36869762D02*
X60162015Y-37012619D01*
X60162015Y-37012619D02*
X60162015Y-37107857D01*
X60162015Y-37107857D02*
X60209634Y-37250714D01*
X60209634Y-37250714D02*
X60257253Y-37298333D01*
X60257253Y-37679286D02*
X60209634Y-37726905D01*
X60209634Y-37726905D02*
X60162015Y-37822143D01*
X60162015Y-37822143D02*
X60162015Y-38060238D01*
X60162015Y-38060238D02*
X60209634Y-38155476D01*
X60209634Y-38155476D02*
X60257253Y-38203095D01*
X60257253Y-38203095D02*
X60352491Y-38250714D01*
X60352491Y-38250714D02*
X60447729Y-38250714D01*
X60447729Y-38250714D02*
X60590586Y-38203095D01*
X60590586Y-38203095D02*
X61162015Y-37631667D01*
X61162015Y-37631667D02*
X61162015Y-38250714D01*
X43763015Y-41610142D02*
X43286824Y-41276809D01*
X43763015Y-41038714D02*
X42763015Y-41038714D01*
X42763015Y-41038714D02*
X42763015Y-41419666D01*
X42763015Y-41419666D02*
X42810634Y-41514904D01*
X42810634Y-41514904D02*
X42858253Y-41562523D01*
X42858253Y-41562523D02*
X42953491Y-41610142D01*
X42953491Y-41610142D02*
X43096348Y-41610142D01*
X43096348Y-41610142D02*
X43191586Y-41562523D01*
X43191586Y-41562523D02*
X43239205Y-41514904D01*
X43239205Y-41514904D02*
X43286824Y-41419666D01*
X43286824Y-41419666D02*
X43286824Y-41038714D01*
X43763015Y-42562523D02*
X43763015Y-41991095D01*
X43763015Y-42276809D02*
X42763015Y-42276809D01*
X42763015Y-42276809D02*
X42905872Y-42181571D01*
X42905872Y-42181571D02*
X43001110Y-42086333D01*
X43001110Y-42086333D02*
X43048729Y-41991095D01*
X43763015Y-43038714D02*
X43763015Y-43229190D01*
X43763015Y-43229190D02*
X43715396Y-43324428D01*
X43715396Y-43324428D02*
X43667776Y-43372047D01*
X43667776Y-43372047D02*
X43524919Y-43467285D01*
X43524919Y-43467285D02*
X43334443Y-43514904D01*
X43334443Y-43514904D02*
X42953491Y-43514904D01*
X42953491Y-43514904D02*
X42858253Y-43467285D01*
X42858253Y-43467285D02*
X42810634Y-43419666D01*
X42810634Y-43419666D02*
X42763015Y-43324428D01*
X42763015Y-43324428D02*
X42763015Y-43133952D01*
X42763015Y-43133952D02*
X42810634Y-43038714D01*
X42810634Y-43038714D02*
X42858253Y-42991095D01*
X42858253Y-42991095D02*
X42953491Y-42943476D01*
X42953491Y-42943476D02*
X43191586Y-42943476D01*
X43191586Y-42943476D02*
X43286824Y-42991095D01*
X43286824Y-42991095D02*
X43334443Y-43038714D01*
X43334443Y-43038714D02*
X43382062Y-43133952D01*
X43382062Y-43133952D02*
X43382062Y-43324428D01*
X43382062Y-43324428D02*
X43334443Y-43419666D01*
X43334443Y-43419666D02*
X43286824Y-43467285D01*
X43286824Y-43467285D02*
X43191586Y-43514904D01*
X67035776Y-41902142D02*
X67083396Y-41854523D01*
X67083396Y-41854523D02*
X67131015Y-41711666D01*
X67131015Y-41711666D02*
X67131015Y-41616428D01*
X67131015Y-41616428D02*
X67083396Y-41473571D01*
X67083396Y-41473571D02*
X66988157Y-41378333D01*
X66988157Y-41378333D02*
X66892919Y-41330714D01*
X66892919Y-41330714D02*
X66702443Y-41283095D01*
X66702443Y-41283095D02*
X66559586Y-41283095D01*
X66559586Y-41283095D02*
X66369110Y-41330714D01*
X66369110Y-41330714D02*
X66273872Y-41378333D01*
X66273872Y-41378333D02*
X66178634Y-41473571D01*
X66178634Y-41473571D02*
X66131015Y-41616428D01*
X66131015Y-41616428D02*
X66131015Y-41711666D01*
X66131015Y-41711666D02*
X66178634Y-41854523D01*
X66178634Y-41854523D02*
X66226253Y-41902142D01*
X67131015Y-42854523D02*
X67131015Y-42283095D01*
X67131015Y-42568809D02*
X66131015Y-42568809D01*
X66131015Y-42568809D02*
X66273872Y-42473571D01*
X66273872Y-42473571D02*
X66369110Y-42378333D01*
X66369110Y-42378333D02*
X66416729Y-42283095D01*
X66226253Y-43235476D02*
X66178634Y-43283095D01*
X66178634Y-43283095D02*
X66131015Y-43378333D01*
X66131015Y-43378333D02*
X66131015Y-43616428D01*
X66131015Y-43616428D02*
X66178634Y-43711666D01*
X66178634Y-43711666D02*
X66226253Y-43759285D01*
X66226253Y-43759285D02*
X66321491Y-43806904D01*
X66321491Y-43806904D02*
X66416729Y-43806904D01*
X66416729Y-43806904D02*
X66559586Y-43759285D01*
X66559586Y-43759285D02*
X67131015Y-43187857D01*
X67131015Y-43187857D02*
X67131015Y-43806904D01*
X57284857Y-61416015D02*
X57618190Y-60939824D01*
X57856285Y-61416015D02*
X57856285Y-60416015D01*
X57856285Y-60416015D02*
X57475333Y-60416015D01*
X57475333Y-60416015D02*
X57380095Y-60463634D01*
X57380095Y-60463634D02*
X57332476Y-60511253D01*
X57332476Y-60511253D02*
X57284857Y-60606491D01*
X57284857Y-60606491D02*
X57284857Y-60749348D01*
X57284857Y-60749348D02*
X57332476Y-60844586D01*
X57332476Y-60844586D02*
X57380095Y-60892205D01*
X57380095Y-60892205D02*
X57475333Y-60939824D01*
X57475333Y-60939824D02*
X57856285Y-60939824D01*
X56332476Y-61416015D02*
X56903904Y-61416015D01*
X56618190Y-61416015D02*
X56618190Y-60416015D01*
X56618190Y-60416015D02*
X56713428Y-60558872D01*
X56713428Y-60558872D02*
X56808666Y-60654110D01*
X56808666Y-60654110D02*
X56903904Y-60701729D01*
X55427714Y-60416015D02*
X55903904Y-60416015D01*
X55903904Y-60416015D02*
X55951523Y-60892205D01*
X55951523Y-60892205D02*
X55903904Y-60844586D01*
X55903904Y-60844586D02*
X55808666Y-60796967D01*
X55808666Y-60796967D02*
X55570571Y-60796967D01*
X55570571Y-60796967D02*
X55475333Y-60844586D01*
X55475333Y-60844586D02*
X55427714Y-60892205D01*
X55427714Y-60892205D02*
X55380095Y-60987443D01*
X55380095Y-60987443D02*
X55380095Y-61225538D01*
X55380095Y-61225538D02*
X55427714Y-61320776D01*
X55427714Y-61320776D02*
X55475333Y-61368396D01*
X55475333Y-61368396D02*
X55570571Y-61416015D01*
X55570571Y-61416015D02*
X55808666Y-61416015D01*
X55808666Y-61416015D02*
X55903904Y-61368396D01*
X55903904Y-61368396D02*
X55951523Y-61320776D01*
X63507857Y-58018776D02*
X63555476Y-58066396D01*
X63555476Y-58066396D02*
X63698333Y-58114015D01*
X63698333Y-58114015D02*
X63793571Y-58114015D01*
X63793571Y-58114015D02*
X63936428Y-58066396D01*
X63936428Y-58066396D02*
X64031666Y-57971157D01*
X64031666Y-57971157D02*
X64079285Y-57875919D01*
X64079285Y-57875919D02*
X64126904Y-57685443D01*
X64126904Y-57685443D02*
X64126904Y-57542586D01*
X64126904Y-57542586D02*
X64079285Y-57352110D01*
X64079285Y-57352110D02*
X64031666Y-57256872D01*
X64031666Y-57256872D02*
X63936428Y-57161634D01*
X63936428Y-57161634D02*
X63793571Y-57114015D01*
X63793571Y-57114015D02*
X63698333Y-57114015D01*
X63698333Y-57114015D02*
X63555476Y-57161634D01*
X63555476Y-57161634D02*
X63507857Y-57209253D01*
X62555476Y-58114015D02*
X63126904Y-58114015D01*
X62841190Y-58114015D02*
X62841190Y-57114015D01*
X62841190Y-57114015D02*
X62936428Y-57256872D01*
X62936428Y-57256872D02*
X63031666Y-57352110D01*
X63031666Y-57352110D02*
X63126904Y-57399729D01*
X61984047Y-57542586D02*
X62079285Y-57494967D01*
X62079285Y-57494967D02*
X62126904Y-57447348D01*
X62126904Y-57447348D02*
X62174523Y-57352110D01*
X62174523Y-57352110D02*
X62174523Y-57304491D01*
X62174523Y-57304491D02*
X62126904Y-57209253D01*
X62126904Y-57209253D02*
X62079285Y-57161634D01*
X62079285Y-57161634D02*
X61984047Y-57114015D01*
X61984047Y-57114015D02*
X61793571Y-57114015D01*
X61793571Y-57114015D02*
X61698333Y-57161634D01*
X61698333Y-57161634D02*
X61650714Y-57209253D01*
X61650714Y-57209253D02*
X61603095Y-57304491D01*
X61603095Y-57304491D02*
X61603095Y-57352110D01*
X61603095Y-57352110D02*
X61650714Y-57447348D01*
X61650714Y-57447348D02*
X61698333Y-57494967D01*
X61698333Y-57494967D02*
X61793571Y-57542586D01*
X61793571Y-57542586D02*
X61984047Y-57542586D01*
X61984047Y-57542586D02*
X62079285Y-57590205D01*
X62079285Y-57590205D02*
X62126904Y-57637824D01*
X62126904Y-57637824D02*
X62174523Y-57733062D01*
X62174523Y-57733062D02*
X62174523Y-57923538D01*
X62174523Y-57923538D02*
X62126904Y-58018776D01*
X62126904Y-58018776D02*
X62079285Y-58066396D01*
X62079285Y-58066396D02*
X61984047Y-58114015D01*
X61984047Y-58114015D02*
X61793571Y-58114015D01*
X61793571Y-58114015D02*
X61698333Y-58066396D01*
X61698333Y-58066396D02*
X61650714Y-58018776D01*
X61650714Y-58018776D02*
X61603095Y-57923538D01*
X61603095Y-57923538D02*
X61603095Y-57733062D01*
X61603095Y-57733062D02*
X61650714Y-57637824D01*
X61650714Y-57637824D02*
X61698333Y-57590205D01*
X61698333Y-57590205D02*
X61793571Y-57542586D01*
X66174857Y-38587776D02*
X66222476Y-38635396D01*
X66222476Y-38635396D02*
X66365333Y-38683015D01*
X66365333Y-38683015D02*
X66460571Y-38683015D01*
X66460571Y-38683015D02*
X66603428Y-38635396D01*
X66603428Y-38635396D02*
X66698666Y-38540157D01*
X66698666Y-38540157D02*
X66746285Y-38444919D01*
X66746285Y-38444919D02*
X66793904Y-38254443D01*
X66793904Y-38254443D02*
X66793904Y-38111586D01*
X66793904Y-38111586D02*
X66746285Y-37921110D01*
X66746285Y-37921110D02*
X66698666Y-37825872D01*
X66698666Y-37825872D02*
X66603428Y-37730634D01*
X66603428Y-37730634D02*
X66460571Y-37683015D01*
X66460571Y-37683015D02*
X66365333Y-37683015D01*
X66365333Y-37683015D02*
X66222476Y-37730634D01*
X66222476Y-37730634D02*
X66174857Y-37778253D01*
X65222476Y-38683015D02*
X65793904Y-38683015D01*
X65508190Y-38683015D02*
X65508190Y-37683015D01*
X65508190Y-37683015D02*
X65603428Y-37825872D01*
X65603428Y-37825872D02*
X65698666Y-37921110D01*
X65698666Y-37921110D02*
X65793904Y-37968729D01*
X64317714Y-37683015D02*
X64793904Y-37683015D01*
X64793904Y-37683015D02*
X64841523Y-38159205D01*
X64841523Y-38159205D02*
X64793904Y-38111586D01*
X64793904Y-38111586D02*
X64698666Y-38063967D01*
X64698666Y-38063967D02*
X64460571Y-38063967D01*
X64460571Y-38063967D02*
X64365333Y-38111586D01*
X64365333Y-38111586D02*
X64317714Y-38159205D01*
X64317714Y-38159205D02*
X64270095Y-38254443D01*
X64270095Y-38254443D02*
X64270095Y-38492538D01*
X64270095Y-38492538D02*
X64317714Y-38587776D01*
X64317714Y-38587776D02*
X64365333Y-38635396D01*
X64365333Y-38635396D02*
X64460571Y-38683015D01*
X64460571Y-38683015D02*
X64698666Y-38683015D01*
X64698666Y-38683015D02*
X64793904Y-38635396D01*
X64793904Y-38635396D02*
X64841523Y-38587776D01*
X24998776Y-42918142D02*
X25046396Y-42870523D01*
X25046396Y-42870523D02*
X25094015Y-42727666D01*
X25094015Y-42727666D02*
X25094015Y-42632428D01*
X25094015Y-42632428D02*
X25046396Y-42489571D01*
X25046396Y-42489571D02*
X24951157Y-42394333D01*
X24951157Y-42394333D02*
X24855919Y-42346714D01*
X24855919Y-42346714D02*
X24665443Y-42299095D01*
X24665443Y-42299095D02*
X24522586Y-42299095D01*
X24522586Y-42299095D02*
X24332110Y-42346714D01*
X24332110Y-42346714D02*
X24236872Y-42394333D01*
X24236872Y-42394333D02*
X24141634Y-42489571D01*
X24141634Y-42489571D02*
X24094015Y-42632428D01*
X24094015Y-42632428D02*
X24094015Y-42727666D01*
X24094015Y-42727666D02*
X24141634Y-42870523D01*
X24141634Y-42870523D02*
X24189253Y-42918142D01*
X25094015Y-43870523D02*
X25094015Y-43299095D01*
X25094015Y-43584809D02*
X24094015Y-43584809D01*
X24094015Y-43584809D02*
X24236872Y-43489571D01*
X24236872Y-43489571D02*
X24332110Y-43394333D01*
X24332110Y-43394333D02*
X24379729Y-43299095D01*
X24094015Y-44489571D02*
X24094015Y-44584809D01*
X24094015Y-44584809D02*
X24141634Y-44680047D01*
X24141634Y-44680047D02*
X24189253Y-44727666D01*
X24189253Y-44727666D02*
X24284491Y-44775285D01*
X24284491Y-44775285D02*
X24474967Y-44822904D01*
X24474967Y-44822904D02*
X24713062Y-44822904D01*
X24713062Y-44822904D02*
X24903538Y-44775285D01*
X24903538Y-44775285D02*
X24998776Y-44727666D01*
X24998776Y-44727666D02*
X25046396Y-44680047D01*
X25046396Y-44680047D02*
X25094015Y-44584809D01*
X25094015Y-44584809D02*
X25094015Y-44489571D01*
X25094015Y-44489571D02*
X25046396Y-44394333D01*
X25046396Y-44394333D02*
X24998776Y-44346714D01*
X24998776Y-44346714D02*
X24903538Y-44299095D01*
X24903538Y-44299095D02*
X24713062Y-44251476D01*
X24713062Y-44251476D02*
X24474967Y-44251476D01*
X24474967Y-44251476D02*
X24284491Y-44299095D01*
X24284491Y-44299095D02*
X24189253Y-44346714D01*
X24189253Y-44346714D02*
X24141634Y-44394333D01*
X24141634Y-44394333D02*
X24094015Y-44489571D01*
X32265857Y-48747776D02*
X32313476Y-48795396D01*
X32313476Y-48795396D02*
X32456333Y-48843015D01*
X32456333Y-48843015D02*
X32551571Y-48843015D01*
X32551571Y-48843015D02*
X32694428Y-48795396D01*
X32694428Y-48795396D02*
X32789666Y-48700157D01*
X32789666Y-48700157D02*
X32837285Y-48604919D01*
X32837285Y-48604919D02*
X32884904Y-48414443D01*
X32884904Y-48414443D02*
X32884904Y-48271586D01*
X32884904Y-48271586D02*
X32837285Y-48081110D01*
X32837285Y-48081110D02*
X32789666Y-47985872D01*
X32789666Y-47985872D02*
X32694428Y-47890634D01*
X32694428Y-47890634D02*
X32551571Y-47843015D01*
X32551571Y-47843015D02*
X32456333Y-47843015D01*
X32456333Y-47843015D02*
X32313476Y-47890634D01*
X32313476Y-47890634D02*
X32265857Y-47938253D01*
X31884904Y-47938253D02*
X31837285Y-47890634D01*
X31837285Y-47890634D02*
X31742047Y-47843015D01*
X31742047Y-47843015D02*
X31503952Y-47843015D01*
X31503952Y-47843015D02*
X31408714Y-47890634D01*
X31408714Y-47890634D02*
X31361095Y-47938253D01*
X31361095Y-47938253D02*
X31313476Y-48033491D01*
X31313476Y-48033491D02*
X31313476Y-48128729D01*
X31313476Y-48128729D02*
X31361095Y-48271586D01*
X31361095Y-48271586D02*
X31932523Y-48843015D01*
X31932523Y-48843015D02*
X31313476Y-48843015D01*
X30408714Y-47843015D02*
X30884904Y-47843015D01*
X30884904Y-47843015D02*
X30932523Y-48319205D01*
X30932523Y-48319205D02*
X30884904Y-48271586D01*
X30884904Y-48271586D02*
X30789666Y-48223967D01*
X30789666Y-48223967D02*
X30551571Y-48223967D01*
X30551571Y-48223967D02*
X30456333Y-48271586D01*
X30456333Y-48271586D02*
X30408714Y-48319205D01*
X30408714Y-48319205D02*
X30361095Y-48414443D01*
X30361095Y-48414443D02*
X30361095Y-48652538D01*
X30361095Y-48652538D02*
X30408714Y-48747776D01*
X30408714Y-48747776D02*
X30456333Y-48795396D01*
X30456333Y-48795396D02*
X30551571Y-48843015D01*
X30551571Y-48843015D02*
X30789666Y-48843015D01*
X30789666Y-48843015D02*
X30884904Y-48795396D01*
X30884904Y-48795396D02*
X30932523Y-48747776D01*
X72683666Y-38302015D02*
X73016999Y-37825824D01*
X73255094Y-38302015D02*
X73255094Y-37302015D01*
X73255094Y-37302015D02*
X72874142Y-37302015D01*
X72874142Y-37302015D02*
X72778904Y-37349634D01*
X72778904Y-37349634D02*
X72731285Y-37397253D01*
X72731285Y-37397253D02*
X72683666Y-37492491D01*
X72683666Y-37492491D02*
X72683666Y-37635348D01*
X72683666Y-37635348D02*
X72731285Y-37730586D01*
X72731285Y-37730586D02*
X72778904Y-37778205D01*
X72778904Y-37778205D02*
X72874142Y-37825824D01*
X72874142Y-37825824D02*
X73255094Y-37825824D01*
X71778904Y-37302015D02*
X72255094Y-37302015D01*
X72255094Y-37302015D02*
X72302713Y-37778205D01*
X72302713Y-37778205D02*
X72255094Y-37730586D01*
X72255094Y-37730586D02*
X72159856Y-37682967D01*
X72159856Y-37682967D02*
X71921761Y-37682967D01*
X71921761Y-37682967D02*
X71826523Y-37730586D01*
X71826523Y-37730586D02*
X71778904Y-37778205D01*
X71778904Y-37778205D02*
X71731285Y-37873443D01*
X71731285Y-37873443D02*
X71731285Y-38111538D01*
X71731285Y-38111538D02*
X71778904Y-38206776D01*
X71778904Y-38206776D02*
X71826523Y-38254396D01*
X71826523Y-38254396D02*
X71921761Y-38302015D01*
X71921761Y-38302015D02*
X72159856Y-38302015D01*
X72159856Y-38302015D02*
X72255094Y-38254396D01*
X72255094Y-38254396D02*
X72302713Y-38206776D01*
X29412015Y-42378333D02*
X28935824Y-42045000D01*
X29412015Y-41806905D02*
X28412015Y-41806905D01*
X28412015Y-41806905D02*
X28412015Y-42187857D01*
X28412015Y-42187857D02*
X28459634Y-42283095D01*
X28459634Y-42283095D02*
X28507253Y-42330714D01*
X28507253Y-42330714D02*
X28602491Y-42378333D01*
X28602491Y-42378333D02*
X28745348Y-42378333D01*
X28745348Y-42378333D02*
X28840586Y-42330714D01*
X28840586Y-42330714D02*
X28888205Y-42283095D01*
X28888205Y-42283095D02*
X28935824Y-42187857D01*
X28935824Y-42187857D02*
X28935824Y-41806905D01*
X28507253Y-42759286D02*
X28459634Y-42806905D01*
X28459634Y-42806905D02*
X28412015Y-42902143D01*
X28412015Y-42902143D02*
X28412015Y-43140238D01*
X28412015Y-43140238D02*
X28459634Y-43235476D01*
X28459634Y-43235476D02*
X28507253Y-43283095D01*
X28507253Y-43283095D02*
X28602491Y-43330714D01*
X28602491Y-43330714D02*
X28697729Y-43330714D01*
X28697729Y-43330714D02*
X28840586Y-43283095D01*
X28840586Y-43283095D02*
X29412015Y-42711667D01*
X29412015Y-42711667D02*
X29412015Y-43330714D01*
X63225776Y-43934142D02*
X63273396Y-43886523D01*
X63273396Y-43886523D02*
X63321015Y-43743666D01*
X63321015Y-43743666D02*
X63321015Y-43648428D01*
X63321015Y-43648428D02*
X63273396Y-43505571D01*
X63273396Y-43505571D02*
X63178157Y-43410333D01*
X63178157Y-43410333D02*
X63082919Y-43362714D01*
X63082919Y-43362714D02*
X62892443Y-43315095D01*
X62892443Y-43315095D02*
X62749586Y-43315095D01*
X62749586Y-43315095D02*
X62559110Y-43362714D01*
X62559110Y-43362714D02*
X62463872Y-43410333D01*
X62463872Y-43410333D02*
X62368634Y-43505571D01*
X62368634Y-43505571D02*
X62321015Y-43648428D01*
X62321015Y-43648428D02*
X62321015Y-43743666D01*
X62321015Y-43743666D02*
X62368634Y-43886523D01*
X62368634Y-43886523D02*
X62416253Y-43934142D01*
X63321015Y-44886523D02*
X63321015Y-44315095D01*
X63321015Y-44600809D02*
X62321015Y-44600809D01*
X62321015Y-44600809D02*
X62463872Y-44505571D01*
X62463872Y-44505571D02*
X62559110Y-44410333D01*
X62559110Y-44410333D02*
X62606729Y-44315095D01*
X62321015Y-45219857D02*
X62321015Y-45838904D01*
X62321015Y-45838904D02*
X62701967Y-45505571D01*
X62701967Y-45505571D02*
X62701967Y-45648428D01*
X62701967Y-45648428D02*
X62749586Y-45743666D01*
X62749586Y-45743666D02*
X62797205Y-45791285D01*
X62797205Y-45791285D02*
X62892443Y-45838904D01*
X62892443Y-45838904D02*
X63130538Y-45838904D01*
X63130538Y-45838904D02*
X63225776Y-45791285D01*
X63225776Y-45791285D02*
X63273396Y-45743666D01*
X63273396Y-45743666D02*
X63321015Y-45648428D01*
X63321015Y-45648428D02*
X63321015Y-45362714D01*
X63321015Y-45362714D02*
X63273396Y-45267476D01*
X63273396Y-45267476D02*
X63225776Y-45219857D01*
X32265857Y-45699776D02*
X32313476Y-45747396D01*
X32313476Y-45747396D02*
X32456333Y-45795015D01*
X32456333Y-45795015D02*
X32551571Y-45795015D01*
X32551571Y-45795015D02*
X32694428Y-45747396D01*
X32694428Y-45747396D02*
X32789666Y-45652157D01*
X32789666Y-45652157D02*
X32837285Y-45556919D01*
X32837285Y-45556919D02*
X32884904Y-45366443D01*
X32884904Y-45366443D02*
X32884904Y-45223586D01*
X32884904Y-45223586D02*
X32837285Y-45033110D01*
X32837285Y-45033110D02*
X32789666Y-44937872D01*
X32789666Y-44937872D02*
X32694428Y-44842634D01*
X32694428Y-44842634D02*
X32551571Y-44795015D01*
X32551571Y-44795015D02*
X32456333Y-44795015D01*
X32456333Y-44795015D02*
X32313476Y-44842634D01*
X32313476Y-44842634D02*
X32265857Y-44890253D01*
X31932523Y-44795015D02*
X31313476Y-44795015D01*
X31313476Y-44795015D02*
X31646809Y-45175967D01*
X31646809Y-45175967D02*
X31503952Y-45175967D01*
X31503952Y-45175967D02*
X31408714Y-45223586D01*
X31408714Y-45223586D02*
X31361095Y-45271205D01*
X31361095Y-45271205D02*
X31313476Y-45366443D01*
X31313476Y-45366443D02*
X31313476Y-45604538D01*
X31313476Y-45604538D02*
X31361095Y-45699776D01*
X31361095Y-45699776D02*
X31408714Y-45747396D01*
X31408714Y-45747396D02*
X31503952Y-45795015D01*
X31503952Y-45795015D02*
X31789666Y-45795015D01*
X31789666Y-45795015D02*
X31884904Y-45747396D01*
X31884904Y-45747396D02*
X31932523Y-45699776D01*
X30694428Y-44795015D02*
X30599190Y-44795015D01*
X30599190Y-44795015D02*
X30503952Y-44842634D01*
X30503952Y-44842634D02*
X30456333Y-44890253D01*
X30456333Y-44890253D02*
X30408714Y-44985491D01*
X30408714Y-44985491D02*
X30361095Y-45175967D01*
X30361095Y-45175967D02*
X30361095Y-45414062D01*
X30361095Y-45414062D02*
X30408714Y-45604538D01*
X30408714Y-45604538D02*
X30456333Y-45699776D01*
X30456333Y-45699776D02*
X30503952Y-45747396D01*
X30503952Y-45747396D02*
X30599190Y-45795015D01*
X30599190Y-45795015D02*
X30694428Y-45795015D01*
X30694428Y-45795015D02*
X30789666Y-45747396D01*
X30789666Y-45747396D02*
X30837285Y-45699776D01*
X30837285Y-45699776D02*
X30884904Y-45604538D01*
X30884904Y-45604538D02*
X30932523Y-45414062D01*
X30932523Y-45414062D02*
X30932523Y-45175967D01*
X30932523Y-45175967D02*
X30884904Y-44985491D01*
X30884904Y-44985491D02*
X30837285Y-44890253D01*
X30837285Y-44890253D02*
X30789666Y-44842634D01*
X30789666Y-44842634D02*
X30694428Y-44795015D01*
X25094015Y-51220810D02*
X24094015Y-51220810D01*
X24998776Y-52268428D02*
X25046396Y-52220809D01*
X25046396Y-52220809D02*
X25094015Y-52077952D01*
X25094015Y-52077952D02*
X25094015Y-51982714D01*
X25094015Y-51982714D02*
X25046396Y-51839857D01*
X25046396Y-51839857D02*
X24951157Y-51744619D01*
X24951157Y-51744619D02*
X24855919Y-51697000D01*
X24855919Y-51697000D02*
X24665443Y-51649381D01*
X24665443Y-51649381D02*
X24522586Y-51649381D01*
X24522586Y-51649381D02*
X24332110Y-51697000D01*
X24332110Y-51697000D02*
X24236872Y-51744619D01*
X24236872Y-51744619D02*
X24141634Y-51839857D01*
X24141634Y-51839857D02*
X24094015Y-51982714D01*
X24094015Y-51982714D02*
X24094015Y-52077952D01*
X24094015Y-52077952D02*
X24141634Y-52220809D01*
X24141634Y-52220809D02*
X24189253Y-52268428D01*
X24189253Y-52649381D02*
X24141634Y-52697000D01*
X24141634Y-52697000D02*
X24094015Y-52792238D01*
X24094015Y-52792238D02*
X24094015Y-53030333D01*
X24094015Y-53030333D02*
X24141634Y-53125571D01*
X24141634Y-53125571D02*
X24189253Y-53173190D01*
X24189253Y-53173190D02*
X24284491Y-53220809D01*
X24284491Y-53220809D02*
X24379729Y-53220809D01*
X24379729Y-53220809D02*
X24522586Y-53173190D01*
X24522586Y-53173190D02*
X25094015Y-52601762D01*
X25094015Y-52601762D02*
X25094015Y-53220809D01*
X51033776Y-49363333D02*
X51081396Y-49315714D01*
X51081396Y-49315714D02*
X51129015Y-49172857D01*
X51129015Y-49172857D02*
X51129015Y-49077619D01*
X51129015Y-49077619D02*
X51081396Y-48934762D01*
X51081396Y-48934762D02*
X50986157Y-48839524D01*
X50986157Y-48839524D02*
X50890919Y-48791905D01*
X50890919Y-48791905D02*
X50700443Y-48744286D01*
X50700443Y-48744286D02*
X50557586Y-48744286D01*
X50557586Y-48744286D02*
X50367110Y-48791905D01*
X50367110Y-48791905D02*
X50271872Y-48839524D01*
X50271872Y-48839524D02*
X50176634Y-48934762D01*
X50176634Y-48934762D02*
X50129015Y-49077619D01*
X50129015Y-49077619D02*
X50129015Y-49172857D01*
X50129015Y-49172857D02*
X50176634Y-49315714D01*
X50176634Y-49315714D02*
X50224253Y-49363333D01*
X50129015Y-49696667D02*
X50129015Y-50363333D01*
X50129015Y-50363333D02*
X51129015Y-49934762D01*
X57891776Y-49490333D02*
X57939396Y-49442714D01*
X57939396Y-49442714D02*
X57987015Y-49299857D01*
X57987015Y-49299857D02*
X57987015Y-49204619D01*
X57987015Y-49204619D02*
X57939396Y-49061762D01*
X57939396Y-49061762D02*
X57844157Y-48966524D01*
X57844157Y-48966524D02*
X57748919Y-48918905D01*
X57748919Y-48918905D02*
X57558443Y-48871286D01*
X57558443Y-48871286D02*
X57415586Y-48871286D01*
X57415586Y-48871286D02*
X57225110Y-48918905D01*
X57225110Y-48918905D02*
X57129872Y-48966524D01*
X57129872Y-48966524D02*
X57034634Y-49061762D01*
X57034634Y-49061762D02*
X56987015Y-49204619D01*
X56987015Y-49204619D02*
X56987015Y-49299857D01*
X56987015Y-49299857D02*
X57034634Y-49442714D01*
X57034634Y-49442714D02*
X57082253Y-49490333D01*
X57415586Y-50061762D02*
X57367967Y-49966524D01*
X57367967Y-49966524D02*
X57320348Y-49918905D01*
X57320348Y-49918905D02*
X57225110Y-49871286D01*
X57225110Y-49871286D02*
X57177491Y-49871286D01*
X57177491Y-49871286D02*
X57082253Y-49918905D01*
X57082253Y-49918905D02*
X57034634Y-49966524D01*
X57034634Y-49966524D02*
X56987015Y-50061762D01*
X56987015Y-50061762D02*
X56987015Y-50252238D01*
X56987015Y-50252238D02*
X57034634Y-50347476D01*
X57034634Y-50347476D02*
X57082253Y-50395095D01*
X57082253Y-50395095D02*
X57177491Y-50442714D01*
X57177491Y-50442714D02*
X57225110Y-50442714D01*
X57225110Y-50442714D02*
X57320348Y-50395095D01*
X57320348Y-50395095D02*
X57367967Y-50347476D01*
X57367967Y-50347476D02*
X57415586Y-50252238D01*
X57415586Y-50252238D02*
X57415586Y-50061762D01*
X57415586Y-50061762D02*
X57463205Y-49966524D01*
X57463205Y-49966524D02*
X57510824Y-49918905D01*
X57510824Y-49918905D02*
X57606062Y-49871286D01*
X57606062Y-49871286D02*
X57796538Y-49871286D01*
X57796538Y-49871286D02*
X57891776Y-49918905D01*
X57891776Y-49918905D02*
X57939396Y-49966524D01*
X57939396Y-49966524D02*
X57987015Y-50061762D01*
X57987015Y-50061762D02*
X57987015Y-50252238D01*
X57987015Y-50252238D02*
X57939396Y-50347476D01*
X57939396Y-50347476D02*
X57891776Y-50395095D01*
X57891776Y-50395095D02*
X57796538Y-50442714D01*
X57796538Y-50442714D02*
X57606062Y-50442714D01*
X57606062Y-50442714D02*
X57510824Y-50395095D01*
X57510824Y-50395095D02*
X57463205Y-50347476D01*
X57463205Y-50347476D02*
X57415586Y-50252238D01*
X64777857Y-64495776D02*
X64825476Y-64543396D01*
X64825476Y-64543396D02*
X64968333Y-64591015D01*
X64968333Y-64591015D02*
X65063571Y-64591015D01*
X65063571Y-64591015D02*
X65206428Y-64543396D01*
X65206428Y-64543396D02*
X65301666Y-64448157D01*
X65301666Y-64448157D02*
X65349285Y-64352919D01*
X65349285Y-64352919D02*
X65396904Y-64162443D01*
X65396904Y-64162443D02*
X65396904Y-64019586D01*
X65396904Y-64019586D02*
X65349285Y-63829110D01*
X65349285Y-63829110D02*
X65301666Y-63733872D01*
X65301666Y-63733872D02*
X65206428Y-63638634D01*
X65206428Y-63638634D02*
X65063571Y-63591015D01*
X65063571Y-63591015D02*
X64968333Y-63591015D01*
X64968333Y-63591015D02*
X64825476Y-63638634D01*
X64825476Y-63638634D02*
X64777857Y-63686253D01*
X63825476Y-64591015D02*
X64396904Y-64591015D01*
X64111190Y-64591015D02*
X64111190Y-63591015D01*
X64111190Y-63591015D02*
X64206428Y-63733872D01*
X64206428Y-63733872D02*
X64301666Y-63829110D01*
X64301666Y-63829110D02*
X64396904Y-63876729D01*
X62873095Y-64591015D02*
X63444523Y-64591015D01*
X63158809Y-64591015D02*
X63158809Y-63591015D01*
X63158809Y-63591015D02*
X63254047Y-63733872D01*
X63254047Y-63733872D02*
X63349285Y-63829110D01*
X63349285Y-63829110D02*
X63444523Y-63876729D01*
X71734776Y-43172142D02*
X71782396Y-43124523D01*
X71782396Y-43124523D02*
X71830015Y-42981666D01*
X71830015Y-42981666D02*
X71830015Y-42886428D01*
X71830015Y-42886428D02*
X71782396Y-42743571D01*
X71782396Y-42743571D02*
X71687157Y-42648333D01*
X71687157Y-42648333D02*
X71591919Y-42600714D01*
X71591919Y-42600714D02*
X71401443Y-42553095D01*
X71401443Y-42553095D02*
X71258586Y-42553095D01*
X71258586Y-42553095D02*
X71068110Y-42600714D01*
X71068110Y-42600714D02*
X70972872Y-42648333D01*
X70972872Y-42648333D02*
X70877634Y-42743571D01*
X70877634Y-42743571D02*
X70830015Y-42886428D01*
X70830015Y-42886428D02*
X70830015Y-42981666D01*
X70830015Y-42981666D02*
X70877634Y-43124523D01*
X70877634Y-43124523D02*
X70925253Y-43172142D01*
X71830015Y-44124523D02*
X71830015Y-43553095D01*
X71830015Y-43838809D02*
X70830015Y-43838809D01*
X70830015Y-43838809D02*
X70972872Y-43743571D01*
X70972872Y-43743571D02*
X71068110Y-43648333D01*
X71068110Y-43648333D02*
X71115729Y-43553095D01*
X71163348Y-44981666D02*
X71830015Y-44981666D01*
X70782396Y-44743571D02*
X71496681Y-44505476D01*
X71496681Y-44505476D02*
X71496681Y-45124523D01*
X32265857Y-47223776D02*
X32313476Y-47271396D01*
X32313476Y-47271396D02*
X32456333Y-47319015D01*
X32456333Y-47319015D02*
X32551571Y-47319015D01*
X32551571Y-47319015D02*
X32694428Y-47271396D01*
X32694428Y-47271396D02*
X32789666Y-47176157D01*
X32789666Y-47176157D02*
X32837285Y-47080919D01*
X32837285Y-47080919D02*
X32884904Y-46890443D01*
X32884904Y-46890443D02*
X32884904Y-46747586D01*
X32884904Y-46747586D02*
X32837285Y-46557110D01*
X32837285Y-46557110D02*
X32789666Y-46461872D01*
X32789666Y-46461872D02*
X32694428Y-46366634D01*
X32694428Y-46366634D02*
X32551571Y-46319015D01*
X32551571Y-46319015D02*
X32456333Y-46319015D01*
X32456333Y-46319015D02*
X32313476Y-46366634D01*
X32313476Y-46366634D02*
X32265857Y-46414253D01*
X31932523Y-46319015D02*
X31313476Y-46319015D01*
X31313476Y-46319015D02*
X31646809Y-46699967D01*
X31646809Y-46699967D02*
X31503952Y-46699967D01*
X31503952Y-46699967D02*
X31408714Y-46747586D01*
X31408714Y-46747586D02*
X31361095Y-46795205D01*
X31361095Y-46795205D02*
X31313476Y-46890443D01*
X31313476Y-46890443D02*
X31313476Y-47128538D01*
X31313476Y-47128538D02*
X31361095Y-47223776D01*
X31361095Y-47223776D02*
X31408714Y-47271396D01*
X31408714Y-47271396D02*
X31503952Y-47319015D01*
X31503952Y-47319015D02*
X31789666Y-47319015D01*
X31789666Y-47319015D02*
X31884904Y-47271396D01*
X31884904Y-47271396D02*
X31932523Y-47223776D01*
X30361095Y-47319015D02*
X30932523Y-47319015D01*
X30646809Y-47319015D02*
X30646809Y-46319015D01*
X30646809Y-46319015D02*
X30742047Y-46461872D01*
X30742047Y-46461872D02*
X30837285Y-46557110D01*
X30837285Y-46557110D02*
X30932523Y-46604729D01*
X49128776Y-37044333D02*
X49176396Y-36996714D01*
X49176396Y-36996714D02*
X49224015Y-36853857D01*
X49224015Y-36853857D02*
X49224015Y-36758619D01*
X49224015Y-36758619D02*
X49176396Y-36615762D01*
X49176396Y-36615762D02*
X49081157Y-36520524D01*
X49081157Y-36520524D02*
X48985919Y-36472905D01*
X48985919Y-36472905D02*
X48795443Y-36425286D01*
X48795443Y-36425286D02*
X48652586Y-36425286D01*
X48652586Y-36425286D02*
X48462110Y-36472905D01*
X48462110Y-36472905D02*
X48366872Y-36520524D01*
X48366872Y-36520524D02*
X48271634Y-36615762D01*
X48271634Y-36615762D02*
X48224015Y-36758619D01*
X48224015Y-36758619D02*
X48224015Y-36853857D01*
X48224015Y-36853857D02*
X48271634Y-36996714D01*
X48271634Y-36996714D02*
X48319253Y-37044333D01*
X49224015Y-37996714D02*
X49224015Y-37425286D01*
X49224015Y-37711000D02*
X48224015Y-37711000D01*
X48224015Y-37711000D02*
X48366872Y-37615762D01*
X48366872Y-37615762D02*
X48462110Y-37520524D01*
X48462110Y-37520524D02*
X48509729Y-37425286D01*
X57951666Y-44683776D02*
X57999285Y-44731396D01*
X57999285Y-44731396D02*
X58142142Y-44779015D01*
X58142142Y-44779015D02*
X58237380Y-44779015D01*
X58237380Y-44779015D02*
X58380237Y-44731396D01*
X58380237Y-44731396D02*
X58475475Y-44636157D01*
X58475475Y-44636157D02*
X58523094Y-44540919D01*
X58523094Y-44540919D02*
X58570713Y-44350443D01*
X58570713Y-44350443D02*
X58570713Y-44207586D01*
X58570713Y-44207586D02*
X58523094Y-44017110D01*
X58523094Y-44017110D02*
X58475475Y-43921872D01*
X58475475Y-43921872D02*
X58380237Y-43826634D01*
X58380237Y-43826634D02*
X58237380Y-43779015D01*
X58237380Y-43779015D02*
X58142142Y-43779015D01*
X58142142Y-43779015D02*
X57999285Y-43826634D01*
X57999285Y-43826634D02*
X57951666Y-43874253D01*
X57094523Y-44112348D02*
X57094523Y-44779015D01*
X57332618Y-43731396D02*
X57570713Y-44445681D01*
X57570713Y-44445681D02*
X56951666Y-44445681D01*
X42552857Y-50271776D02*
X42600476Y-50319396D01*
X42600476Y-50319396D02*
X42743333Y-50367015D01*
X42743333Y-50367015D02*
X42838571Y-50367015D01*
X42838571Y-50367015D02*
X42981428Y-50319396D01*
X42981428Y-50319396D02*
X43076666Y-50224157D01*
X43076666Y-50224157D02*
X43124285Y-50128919D01*
X43124285Y-50128919D02*
X43171904Y-49938443D01*
X43171904Y-49938443D02*
X43171904Y-49795586D01*
X43171904Y-49795586D02*
X43124285Y-49605110D01*
X43124285Y-49605110D02*
X43076666Y-49509872D01*
X43076666Y-49509872D02*
X42981428Y-49414634D01*
X42981428Y-49414634D02*
X42838571Y-49367015D01*
X42838571Y-49367015D02*
X42743333Y-49367015D01*
X42743333Y-49367015D02*
X42600476Y-49414634D01*
X42600476Y-49414634D02*
X42552857Y-49462253D01*
X42171904Y-49462253D02*
X42124285Y-49414634D01*
X42124285Y-49414634D02*
X42029047Y-49367015D01*
X42029047Y-49367015D02*
X41790952Y-49367015D01*
X41790952Y-49367015D02*
X41695714Y-49414634D01*
X41695714Y-49414634D02*
X41648095Y-49462253D01*
X41648095Y-49462253D02*
X41600476Y-49557491D01*
X41600476Y-49557491D02*
X41600476Y-49652729D01*
X41600476Y-49652729D02*
X41648095Y-49795586D01*
X41648095Y-49795586D02*
X42219523Y-50367015D01*
X42219523Y-50367015D02*
X41600476Y-50367015D01*
X41267142Y-49367015D02*
X40600476Y-49367015D01*
X40600476Y-49367015D02*
X41029047Y-50367015D01*
X42298857Y-46842776D02*
X42346476Y-46890396D01*
X42346476Y-46890396D02*
X42489333Y-46938015D01*
X42489333Y-46938015D02*
X42584571Y-46938015D01*
X42584571Y-46938015D02*
X42727428Y-46890396D01*
X42727428Y-46890396D02*
X42822666Y-46795157D01*
X42822666Y-46795157D02*
X42870285Y-46699919D01*
X42870285Y-46699919D02*
X42917904Y-46509443D01*
X42917904Y-46509443D02*
X42917904Y-46366586D01*
X42917904Y-46366586D02*
X42870285Y-46176110D01*
X42870285Y-46176110D02*
X42822666Y-46080872D01*
X42822666Y-46080872D02*
X42727428Y-45985634D01*
X42727428Y-45985634D02*
X42584571Y-45938015D01*
X42584571Y-45938015D02*
X42489333Y-45938015D01*
X42489333Y-45938015D02*
X42346476Y-45985634D01*
X42346476Y-45985634D02*
X42298857Y-46033253D01*
X41917904Y-46033253D02*
X41870285Y-45985634D01*
X41870285Y-45985634D02*
X41775047Y-45938015D01*
X41775047Y-45938015D02*
X41536952Y-45938015D01*
X41536952Y-45938015D02*
X41441714Y-45985634D01*
X41441714Y-45985634D02*
X41394095Y-46033253D01*
X41394095Y-46033253D02*
X41346476Y-46128491D01*
X41346476Y-46128491D02*
X41346476Y-46223729D01*
X41346476Y-46223729D02*
X41394095Y-46366586D01*
X41394095Y-46366586D02*
X41965523Y-46938015D01*
X41965523Y-46938015D02*
X41346476Y-46938015D01*
X40394095Y-46938015D02*
X40965523Y-46938015D01*
X40679809Y-46938015D02*
X40679809Y-45938015D01*
X40679809Y-45938015D02*
X40775047Y-46080872D01*
X40775047Y-46080872D02*
X40870285Y-46176110D01*
X40870285Y-46176110D02*
X40965523Y-46223729D01*
X64777857Y-54970776D02*
X64825476Y-55018396D01*
X64825476Y-55018396D02*
X64968333Y-55066015D01*
X64968333Y-55066015D02*
X65063571Y-55066015D01*
X65063571Y-55066015D02*
X65206428Y-55018396D01*
X65206428Y-55018396D02*
X65301666Y-54923157D01*
X65301666Y-54923157D02*
X65349285Y-54827919D01*
X65349285Y-54827919D02*
X65396904Y-54637443D01*
X65396904Y-54637443D02*
X65396904Y-54494586D01*
X65396904Y-54494586D02*
X65349285Y-54304110D01*
X65349285Y-54304110D02*
X65301666Y-54208872D01*
X65301666Y-54208872D02*
X65206428Y-54113634D01*
X65206428Y-54113634D02*
X65063571Y-54066015D01*
X65063571Y-54066015D02*
X64968333Y-54066015D01*
X64968333Y-54066015D02*
X64825476Y-54113634D01*
X64825476Y-54113634D02*
X64777857Y-54161253D01*
X63825476Y-55066015D02*
X64396904Y-55066015D01*
X64111190Y-55066015D02*
X64111190Y-54066015D01*
X64111190Y-54066015D02*
X64206428Y-54208872D01*
X64206428Y-54208872D02*
X64301666Y-54304110D01*
X64301666Y-54304110D02*
X64396904Y-54351729D01*
X62968333Y-54066015D02*
X63158809Y-54066015D01*
X63158809Y-54066015D02*
X63254047Y-54113634D01*
X63254047Y-54113634D02*
X63301666Y-54161253D01*
X63301666Y-54161253D02*
X63396904Y-54304110D01*
X63396904Y-54304110D02*
X63444523Y-54494586D01*
X63444523Y-54494586D02*
X63444523Y-54875538D01*
X63444523Y-54875538D02*
X63396904Y-54970776D01*
X63396904Y-54970776D02*
X63349285Y-55018396D01*
X63349285Y-55018396D02*
X63254047Y-55066015D01*
X63254047Y-55066015D02*
X63063571Y-55066015D01*
X63063571Y-55066015D02*
X62968333Y-55018396D01*
X62968333Y-55018396D02*
X62920714Y-54970776D01*
X62920714Y-54970776D02*
X62873095Y-54875538D01*
X62873095Y-54875538D02*
X62873095Y-54637443D01*
X62873095Y-54637443D02*
X62920714Y-54542205D01*
X62920714Y-54542205D02*
X62968333Y-54494586D01*
X62968333Y-54494586D02*
X63063571Y-54446967D01*
X63063571Y-54446967D02*
X63254047Y-54446967D01*
X63254047Y-54446967D02*
X63349285Y-54494586D01*
X63349285Y-54494586D02*
X63396904Y-54542205D01*
X63396904Y-54542205D02*
X63444523Y-54637443D01*
X23982776Y-58666142D02*
X24030396Y-58618523D01*
X24030396Y-58618523D02*
X24078015Y-58475666D01*
X24078015Y-58475666D02*
X24078015Y-58380428D01*
X24078015Y-58380428D02*
X24030396Y-58237571D01*
X24030396Y-58237571D02*
X23935157Y-58142333D01*
X23935157Y-58142333D02*
X23839919Y-58094714D01*
X23839919Y-58094714D02*
X23649443Y-58047095D01*
X23649443Y-58047095D02*
X23506586Y-58047095D01*
X23506586Y-58047095D02*
X23316110Y-58094714D01*
X23316110Y-58094714D02*
X23220872Y-58142333D01*
X23220872Y-58142333D02*
X23125634Y-58237571D01*
X23125634Y-58237571D02*
X23078015Y-58380428D01*
X23078015Y-58380428D02*
X23078015Y-58475666D01*
X23078015Y-58475666D02*
X23125634Y-58618523D01*
X23125634Y-58618523D02*
X23173253Y-58666142D01*
X24078015Y-59618523D02*
X24078015Y-59047095D01*
X24078015Y-59332809D02*
X23078015Y-59332809D01*
X23078015Y-59332809D02*
X23220872Y-59237571D01*
X23220872Y-59237571D02*
X23316110Y-59142333D01*
X23316110Y-59142333D02*
X23363729Y-59047095D01*
X24078015Y-60094714D02*
X24078015Y-60285190D01*
X24078015Y-60285190D02*
X24030396Y-60380428D01*
X24030396Y-60380428D02*
X23982776Y-60428047D01*
X23982776Y-60428047D02*
X23839919Y-60523285D01*
X23839919Y-60523285D02*
X23649443Y-60570904D01*
X23649443Y-60570904D02*
X23268491Y-60570904D01*
X23268491Y-60570904D02*
X23173253Y-60523285D01*
X23173253Y-60523285D02*
X23125634Y-60475666D01*
X23125634Y-60475666D02*
X23078015Y-60380428D01*
X23078015Y-60380428D02*
X23078015Y-60189952D01*
X23078015Y-60189952D02*
X23125634Y-60094714D01*
X23125634Y-60094714D02*
X23173253Y-60047095D01*
X23173253Y-60047095D02*
X23268491Y-59999476D01*
X23268491Y-59999476D02*
X23506586Y-59999476D01*
X23506586Y-59999476D02*
X23601824Y-60047095D01*
X23601824Y-60047095D02*
X23649443Y-60094714D01*
X23649443Y-60094714D02*
X23697062Y-60189952D01*
X23697062Y-60189952D02*
X23697062Y-60380428D01*
X23697062Y-60380428D02*
X23649443Y-60475666D01*
X23649443Y-60475666D02*
X23601824Y-60523285D01*
X23601824Y-60523285D02*
X23506586Y-60570904D01*
X41568666Y-48843015D02*
X41901999Y-48366824D01*
X42140094Y-48843015D02*
X42140094Y-47843015D01*
X42140094Y-47843015D02*
X41759142Y-47843015D01*
X41759142Y-47843015D02*
X41663904Y-47890634D01*
X41663904Y-47890634D02*
X41616285Y-47938253D01*
X41616285Y-47938253D02*
X41568666Y-48033491D01*
X41568666Y-48033491D02*
X41568666Y-48176348D01*
X41568666Y-48176348D02*
X41616285Y-48271586D01*
X41616285Y-48271586D02*
X41663904Y-48319205D01*
X41663904Y-48319205D02*
X41759142Y-48366824D01*
X41759142Y-48366824D02*
X42140094Y-48366824D01*
X41235332Y-47843015D02*
X40616285Y-47843015D01*
X40616285Y-47843015D02*
X40949618Y-48223967D01*
X40949618Y-48223967D02*
X40806761Y-48223967D01*
X40806761Y-48223967D02*
X40711523Y-48271586D01*
X40711523Y-48271586D02*
X40663904Y-48319205D01*
X40663904Y-48319205D02*
X40616285Y-48414443D01*
X40616285Y-48414443D02*
X40616285Y-48652538D01*
X40616285Y-48652538D02*
X40663904Y-48747776D01*
X40663904Y-48747776D02*
X40711523Y-48795396D01*
X40711523Y-48795396D02*
X40806761Y-48843015D01*
X40806761Y-48843015D02*
X41092475Y-48843015D01*
X41092475Y-48843015D02*
X41187713Y-48795396D01*
X41187713Y-48795396D02*
X41235332Y-48747776D01*
X29412015Y-54316333D02*
X28935824Y-53983000D01*
X29412015Y-53744905D02*
X28412015Y-53744905D01*
X28412015Y-53744905D02*
X28412015Y-54125857D01*
X28412015Y-54125857D02*
X28459634Y-54221095D01*
X28459634Y-54221095D02*
X28507253Y-54268714D01*
X28507253Y-54268714D02*
X28602491Y-54316333D01*
X28602491Y-54316333D02*
X28745348Y-54316333D01*
X28745348Y-54316333D02*
X28840586Y-54268714D01*
X28840586Y-54268714D02*
X28888205Y-54221095D01*
X28888205Y-54221095D02*
X28935824Y-54125857D01*
X28935824Y-54125857D02*
X28935824Y-53744905D01*
X29412015Y-55268714D02*
X29412015Y-54697286D01*
X29412015Y-54983000D02*
X28412015Y-54983000D01*
X28412015Y-54983000D02*
X28554872Y-54887762D01*
X28554872Y-54887762D02*
X28650110Y-54792524D01*
X28650110Y-54792524D02*
X28697729Y-54697286D01*
X33248000Y-50661000D02*
X36348000Y-50661000D01*
X36348000Y-49161000D01*
X33248000Y-49161000D01*
X33248000Y-50661000D01*
D11*
X55019000Y-31623000D02*
X58519000Y-31623000D01*
X55019000Y-34647000D02*
X55019000Y-31647000D01*
X55019000Y-34647000D02*
X58519000Y-34647000D01*
X58519000Y-34647000D02*
X58519000Y-31647000D01*
D10*
X33248000Y-44565000D02*
X36348000Y-44565000D01*
X36348000Y-43065000D01*
X33248000Y-43065000D01*
X33248000Y-44565000D01*
X33348000Y-35052000D02*
X33348000Y-36576000D01*
X33348000Y-35052000D02*
X34290000Y-35052000D01*
X35269000Y-36576000D02*
X34327000Y-36576000D01*
X36248000Y-35052000D02*
X35306000Y-35052000D01*
X36248000Y-35052000D02*
X36248000Y-36576000D01*
X33248000Y-54344000D02*
X36348000Y-54344000D01*
X36348000Y-52844000D01*
X33248000Y-52844000D01*
X33248000Y-54344000D01*
X40158000Y-42049000D02*
X37058000Y-42049000D01*
X37058000Y-43549000D01*
X40158000Y-43549000D01*
X40158000Y-42049000D01*
X37058000Y-45708000D02*
X40158000Y-45708000D01*
X40158000Y-44208000D01*
X37058000Y-44208000D01*
X37058000Y-45708000D01*
X58432000Y-56235000D02*
X59932000Y-56235000D01*
X59932000Y-59335000D01*
X58432000Y-59335000D01*
X58432000Y-56235000D01*
X46837000Y-41390000D02*
X49937000Y-41390000D01*
X49937000Y-39890000D01*
X46837000Y-39890000D01*
X46837000Y-41390000D01*
X26912000Y-50407000D02*
X25412000Y-50407000D01*
X25412000Y-47307000D01*
X26912000Y-47307000D01*
X26912000Y-50407000D01*
X58432000Y-53060000D02*
X59932000Y-53060000D01*
X59932000Y-56160000D01*
X58432000Y-56160000D01*
X58432000Y-53060000D01*
X33248000Y-43041000D02*
X36348000Y-43041000D01*
X36348000Y-41541000D01*
X33248000Y-41541000D01*
X33248000Y-43041000D01*
X58432000Y-62585000D02*
X59932000Y-62585000D01*
X59932000Y-65685000D01*
X58432000Y-65685000D01*
X58432000Y-62585000D01*
X59678000Y-51207000D02*
X58178000Y-51207000D01*
X58178000Y-48107000D01*
X59678000Y-48107000D01*
X59678000Y-51207000D01*
X73761000Y-35802000D02*
X76861000Y-35802000D01*
X76861000Y-34302000D01*
X73761000Y-34302000D01*
X73761000Y-35802000D01*
X40158000Y-52844000D02*
X37058000Y-52844000D01*
X37058000Y-54344000D01*
X40158000Y-54344000D01*
X40158000Y-52844000D01*
X46851000Y-49415000D02*
X43751000Y-49415000D01*
X43751000Y-50915000D01*
X46851000Y-50915000D01*
X46851000Y-49415000D01*
X59932000Y-39015000D02*
X58432000Y-39015000D01*
X58432000Y-35915000D01*
X59932000Y-35915000D01*
X59932000Y-39015000D01*
X40779000Y-40703000D02*
X42279000Y-40703000D01*
X42279000Y-43803000D01*
X40779000Y-43803000D01*
X40779000Y-40703000D01*
X67449000Y-40995000D02*
X68949000Y-40995000D01*
X68949000Y-44095000D01*
X67449000Y-44095000D01*
X67449000Y-40995000D01*
X58432000Y-59410000D02*
X59932000Y-59410000D01*
X59932000Y-62510000D01*
X58432000Y-62510000D01*
X58432000Y-59410000D01*
X61315000Y-60059000D02*
X64415000Y-60059000D01*
X64415000Y-58559000D01*
X61315000Y-58559000D01*
X61315000Y-60059000D01*
X63982000Y-40755000D02*
X67082000Y-40755000D01*
X67082000Y-39255000D01*
X63982000Y-39255000D01*
X63982000Y-40755000D01*
X25299000Y-45224000D02*
X22199000Y-45224000D01*
X22199000Y-46724000D01*
X25299000Y-46724000D01*
X25299000Y-45224000D01*
X33248000Y-49137000D02*
X36348000Y-49137000D01*
X36348000Y-47637000D01*
X33248000Y-47637000D01*
X33248000Y-49137000D01*
X73761000Y-38596000D02*
X76861000Y-38596000D01*
X76861000Y-37096000D01*
X73761000Y-37096000D01*
X73761000Y-38596000D01*
X29706000Y-46889000D02*
X28206000Y-46889000D01*
X28206000Y-43789000D01*
X29706000Y-43789000D01*
X29706000Y-46889000D01*
X65266000Y-46127000D02*
X63766000Y-46127000D01*
X63766000Y-43027000D01*
X65266000Y-43027000D01*
X65266000Y-46127000D01*
X33248000Y-46089000D02*
X36348000Y-46089000D01*
X36348000Y-44589000D01*
X33248000Y-44589000D01*
X33248000Y-46089000D01*
X22172000Y-48133000D02*
X22172000Y-49695000D01*
X23241000Y-48133000D02*
X24003000Y-48133000D01*
X25072000Y-48133000D02*
X25072000Y-49679000D01*
X49899000Y-51080000D02*
X48399000Y-51080000D01*
X48399000Y-47980000D01*
X49899000Y-47980000D01*
X49899000Y-51080000D01*
X56757000Y-51207000D02*
X55257000Y-51207000D01*
X55257000Y-48107000D01*
X56757000Y-48107000D01*
X56757000Y-51207000D01*
X60972000Y-62585000D02*
X62472000Y-62585000D01*
X62472000Y-65685000D01*
X60972000Y-65685000D01*
X60972000Y-62585000D01*
X68973000Y-42265000D02*
X70473000Y-42265000D01*
X70473000Y-45365000D01*
X68973000Y-45365000D01*
X68973000Y-42265000D01*
X33248000Y-47613000D02*
X36348000Y-47613000D01*
X36348000Y-46113000D01*
X33248000Y-46113000D01*
X33248000Y-47613000D01*
X47994000Y-38761000D02*
X46494000Y-38761000D01*
X46494000Y-35661000D01*
X47994000Y-35661000D01*
X47994000Y-38761000D01*
X59335000Y-45097000D02*
X56235000Y-45097000D01*
X56235000Y-46597000D01*
X59335000Y-46597000D01*
X59335000Y-45097000D01*
X40158000Y-49161000D02*
X37058000Y-49161000D01*
X37058000Y-50661000D01*
X40158000Y-50661000D01*
X40158000Y-49161000D01*
X40106000Y-45708000D02*
X43206000Y-45708000D01*
X43206000Y-44208000D01*
X40106000Y-44208000D01*
X40106000Y-45708000D01*
X62472000Y-56160000D02*
X60972000Y-56160000D01*
X60972000Y-53060000D01*
X62472000Y-53060000D01*
X62472000Y-56160000D01*
X24396000Y-57759000D02*
X25896000Y-57759000D01*
X25896000Y-60859000D01*
X24396000Y-60859000D01*
X24396000Y-57759000D01*
X37058000Y-49137000D02*
X40158000Y-49137000D01*
X40158000Y-47637000D01*
X37058000Y-47637000D01*
X37058000Y-49137000D01*
X28206000Y-50266000D02*
X29706000Y-50266000D01*
X29706000Y-53366000D01*
X28206000Y-53366000D01*
X28206000Y-50266000D01*
%LPC*%
D12*
X43434000Y-37465000D03*
D13*
X25622268Y-45400000D03*
X25622268Y-51400000D03*
D14*
X56007000Y-43688000D03*
X51689000Y-43688000D03*
X51689000Y-39497000D03*
D12*
X40259000Y-37465000D03*
X31623000Y-64643000D03*
D13*
X74042338Y-39347219D03*
X74042338Y-33347219D03*
D12*
X31623000Y-59055000D03*
D15*
X31750000Y-35687000D03*
D14*
X56007000Y-42291000D03*
X51689000Y-42291000D03*
X56007000Y-39497000D03*
D16*
X67743169Y-56907938D03*
X67743169Y-58907938D03*
X67743169Y-54407938D03*
D17*
X68943169Y-64307938D03*
X68943169Y-51507938D03*
D16*
X67743169Y-61407938D03*
D15*
X31750000Y-33147000D03*
D14*
X51689000Y-40894000D03*
X56007000Y-40894000D03*
G36*
G01*
X35373000Y-49461000D02*
X35823000Y-49461000D01*
G75*
G02*
X36048000Y-49686000I0J-225000D01*
G01*
X36048000Y-50136000D01*
G75*
G02*
X35823000Y-50361000I-225000J0D01*
G01*
X35373000Y-50361000D01*
G75*
G02*
X35148000Y-50136000I0J225000D01*
G01*
X35148000Y-49686000D01*
G75*
G02*
X35373000Y-49461000I225000J0D01*
G01*
G37*
G36*
G01*
X33773000Y-49461000D02*
X34223000Y-49461000D01*
G75*
G02*
X34448000Y-49686000I0J-225000D01*
G01*
X34448000Y-50136000D01*
G75*
G02*
X34223000Y-50361000I-225000J0D01*
G01*
X33773000Y-50361000D01*
G75*
G02*
X33548000Y-50136000I0J225000D01*
G01*
X33548000Y-49686000D01*
G75*
G02*
X33773000Y-49461000I225000J0D01*
G01*
G37*
G36*
G01*
X55444000Y-31897000D02*
X55694000Y-31897000D01*
G75*
G02*
X55819000Y-32022000I0J-125000D01*
G01*
X55819000Y-32672000D01*
G75*
G02*
X55694000Y-32797000I-125000J0D01*
G01*
X55444000Y-32797000D01*
G75*
G02*
X55319000Y-32672000I0J125000D01*
G01*
X55319000Y-32022000D01*
G75*
G02*
X55444000Y-31897000I125000J0D01*
G01*
G37*
G36*
G01*
X56244000Y-31897000D02*
X56494000Y-31897000D01*
G75*
G02*
X56619000Y-32022000I0J-125000D01*
G01*
X56619000Y-32672000D01*
G75*
G02*
X56494000Y-32797000I-125000J0D01*
G01*
X56244000Y-32797000D01*
G75*
G02*
X56119000Y-32672000I0J125000D01*
G01*
X56119000Y-32022000D01*
G75*
G02*
X56244000Y-31897000I125000J0D01*
G01*
G37*
G36*
G01*
X57044000Y-31897000D02*
X57294000Y-31897000D01*
G75*
G02*
X57419000Y-32022000I0J-125000D01*
G01*
X57419000Y-32672000D01*
G75*
G02*
X57294000Y-32797000I-125000J0D01*
G01*
X57044000Y-32797000D01*
G75*
G02*
X56919000Y-32672000I0J125000D01*
G01*
X56919000Y-32022000D01*
G75*
G02*
X57044000Y-31897000I125000J0D01*
G01*
G37*
G36*
G01*
X57844000Y-31897000D02*
X58094000Y-31897000D01*
G75*
G02*
X58219000Y-32022000I0J-125000D01*
G01*
X58219000Y-32672000D01*
G75*
G02*
X58094000Y-32797000I-125000J0D01*
G01*
X57844000Y-32797000D01*
G75*
G02*
X57719000Y-32672000I0J125000D01*
G01*
X57719000Y-32022000D01*
G75*
G02*
X57844000Y-31897000I125000J0D01*
G01*
G37*
G36*
G01*
X57844000Y-33497000D02*
X58094000Y-33497000D01*
G75*
G02*
X58219000Y-33622000I0J-125000D01*
G01*
X58219000Y-34272000D01*
G75*
G02*
X58094000Y-34397000I-125000J0D01*
G01*
X57844000Y-34397000D01*
G75*
G02*
X57719000Y-34272000I0J125000D01*
G01*
X57719000Y-33622000D01*
G75*
G02*
X57844000Y-33497000I125000J0D01*
G01*
G37*
G36*
G01*
X57044000Y-33497000D02*
X57294000Y-33497000D01*
G75*
G02*
X57419000Y-33622000I0J-125000D01*
G01*
X57419000Y-34272000D01*
G75*
G02*
X57294000Y-34397000I-125000J0D01*
G01*
X57044000Y-34397000D01*
G75*
G02*
X56919000Y-34272000I0J125000D01*
G01*
X56919000Y-33622000D01*
G75*
G02*
X57044000Y-33497000I125000J0D01*
G01*
G37*
G36*
G01*
X56244000Y-33497000D02*
X56494000Y-33497000D01*
G75*
G02*
X56619000Y-33622000I0J-125000D01*
G01*
X56619000Y-34272000D01*
G75*
G02*
X56494000Y-34397000I-125000J0D01*
G01*
X56244000Y-34397000D01*
G75*
G02*
X56119000Y-34272000I0J125000D01*
G01*
X56119000Y-33622000D01*
G75*
G02*
X56244000Y-33497000I125000J0D01*
G01*
G37*
G36*
G01*
X55444000Y-33497000D02*
X55694000Y-33497000D01*
G75*
G02*
X55819000Y-33622000I0J-125000D01*
G01*
X55819000Y-34272000D01*
G75*
G02*
X55694000Y-34397000I-125000J0D01*
G01*
X55444000Y-34397000D01*
G75*
G02*
X55319000Y-34272000I0J125000D01*
G01*
X55319000Y-33622000D01*
G75*
G02*
X55444000Y-33497000I125000J0D01*
G01*
G37*
G36*
G01*
X35373000Y-43365000D02*
X35823000Y-43365000D01*
G75*
G02*
X36048000Y-43590000I0J-225000D01*
G01*
X36048000Y-44040000D01*
G75*
G02*
X35823000Y-44265000I-225000J0D01*
G01*
X35373000Y-44265000D01*
G75*
G02*
X35148000Y-44040000I0J225000D01*
G01*
X35148000Y-43590000D01*
G75*
G02*
X35373000Y-43365000I225000J0D01*
G01*
G37*
G36*
G01*
X33773000Y-43365000D02*
X34223000Y-43365000D01*
G75*
G02*
X34448000Y-43590000I0J-225000D01*
G01*
X34448000Y-44040000D01*
G75*
G02*
X34223000Y-44265000I-225000J0D01*
G01*
X33773000Y-44265000D01*
G75*
G02*
X33548000Y-44040000I0J225000D01*
G01*
X33548000Y-43590000D01*
G75*
G02*
X33773000Y-43365000I225000J0D01*
G01*
G37*
G36*
G01*
X35898000Y-37489000D02*
X35598000Y-37489000D01*
G75*
G02*
X35448000Y-37339000I0J150000D01*
G01*
X35448000Y-36164000D01*
G75*
G02*
X35598000Y-36014000I150000J0D01*
G01*
X35898000Y-36014000D01*
G75*
G02*
X36048000Y-36164000I0J-150000D01*
G01*
X36048000Y-37339000D01*
G75*
G02*
X35898000Y-37489000I-150000J0D01*
G01*
G37*
G36*
G01*
X33998000Y-37489000D02*
X33698000Y-37489000D01*
G75*
G02*
X33548000Y-37339000I0J150000D01*
G01*
X33548000Y-36164000D01*
G75*
G02*
X33698000Y-36014000I150000J0D01*
G01*
X33998000Y-36014000D01*
G75*
G02*
X34148000Y-36164000I0J-150000D01*
G01*
X34148000Y-37339000D01*
G75*
G02*
X33998000Y-37489000I-150000J0D01*
G01*
G37*
G36*
G01*
X34948000Y-35614000D02*
X34648000Y-35614000D01*
G75*
G02*
X34498000Y-35464000I0J150000D01*
G01*
X34498000Y-34289000D01*
G75*
G02*
X34648000Y-34139000I150000J0D01*
G01*
X34948000Y-34139000D01*
G75*
G02*
X35098000Y-34289000I0J-150000D01*
G01*
X35098000Y-35464000D01*
G75*
G02*
X34948000Y-35614000I-150000J0D01*
G01*
G37*
G36*
G01*
X35373000Y-53144000D02*
X35823000Y-53144000D01*
G75*
G02*
X36048000Y-53369000I0J-225000D01*
G01*
X36048000Y-53819000D01*
G75*
G02*
X35823000Y-54044000I-225000J0D01*
G01*
X35373000Y-54044000D01*
G75*
G02*
X35148000Y-53819000I0J225000D01*
G01*
X35148000Y-53369000D01*
G75*
G02*
X35373000Y-53144000I225000J0D01*
G01*
G37*
G36*
G01*
X33773000Y-53144000D02*
X34223000Y-53144000D01*
G75*
G02*
X34448000Y-53369000I0J-225000D01*
G01*
X34448000Y-53819000D01*
G75*
G02*
X34223000Y-54044000I-225000J0D01*
G01*
X33773000Y-54044000D01*
G75*
G02*
X33548000Y-53819000I0J225000D01*
G01*
X33548000Y-53369000D01*
G75*
G02*
X33773000Y-53144000I225000J0D01*
G01*
G37*
G36*
G01*
X38033000Y-43249000D02*
X37583000Y-43249000D01*
G75*
G02*
X37358000Y-43024000I0J225000D01*
G01*
X37358000Y-42574000D01*
G75*
G02*
X37583000Y-42349000I225000J0D01*
G01*
X38033000Y-42349000D01*
G75*
G02*
X38258000Y-42574000I0J-225000D01*
G01*
X38258000Y-43024000D01*
G75*
G02*
X38033000Y-43249000I-225000J0D01*
G01*
G37*
G36*
G01*
X39633000Y-43249000D02*
X39183000Y-43249000D01*
G75*
G02*
X38958000Y-43024000I0J225000D01*
G01*
X38958000Y-42574000D01*
G75*
G02*
X39183000Y-42349000I225000J0D01*
G01*
X39633000Y-42349000D01*
G75*
G02*
X39858000Y-42574000I0J-225000D01*
G01*
X39858000Y-43024000D01*
G75*
G02*
X39633000Y-43249000I-225000J0D01*
G01*
G37*
G36*
G01*
X39183000Y-44508000D02*
X39633000Y-44508000D01*
G75*
G02*
X39858000Y-44733000I0J-225000D01*
G01*
X39858000Y-45183000D01*
G75*
G02*
X39633000Y-45408000I-225000J0D01*
G01*
X39183000Y-45408000D01*
G75*
G02*
X38958000Y-45183000I0J225000D01*
G01*
X38958000Y-44733000D01*
G75*
G02*
X39183000Y-44508000I225000J0D01*
G01*
G37*
G36*
G01*
X37583000Y-44508000D02*
X38033000Y-44508000D01*
G75*
G02*
X38258000Y-44733000I0J-225000D01*
G01*
X38258000Y-45183000D01*
G75*
G02*
X38033000Y-45408000I-225000J0D01*
G01*
X37583000Y-45408000D01*
G75*
G02*
X37358000Y-45183000I0J225000D01*
G01*
X37358000Y-44733000D01*
G75*
G02*
X37583000Y-44508000I225000J0D01*
G01*
G37*
G36*
G01*
X59632000Y-58360000D02*
X59632000Y-58810000D01*
G75*
G02*
X59407000Y-59035000I-225000J0D01*
G01*
X58957000Y-59035000D01*
G75*
G02*
X58732000Y-58810000I0J225000D01*
G01*
X58732000Y-58360000D01*
G75*
G02*
X58957000Y-58135000I225000J0D01*
G01*
X59407000Y-58135000D01*
G75*
G02*
X59632000Y-58360000I0J-225000D01*
G01*
G37*
G36*
G01*
X59632000Y-56760000D02*
X59632000Y-57210000D01*
G75*
G02*
X59407000Y-57435000I-225000J0D01*
G01*
X58957000Y-57435000D01*
G75*
G02*
X58732000Y-57210000I0J225000D01*
G01*
X58732000Y-56760000D01*
G75*
G02*
X58957000Y-56535000I225000J0D01*
G01*
X59407000Y-56535000D01*
G75*
G02*
X59632000Y-56760000I0J-225000D01*
G01*
G37*
G36*
G01*
X48962000Y-40190000D02*
X49412000Y-40190000D01*
G75*
G02*
X49637000Y-40415000I0J-225000D01*
G01*
X49637000Y-40865000D01*
G75*
G02*
X49412000Y-41090000I-225000J0D01*
G01*
X48962000Y-41090000D01*
G75*
G02*
X48737000Y-40865000I0J225000D01*
G01*
X48737000Y-40415000D01*
G75*
G02*
X48962000Y-40190000I225000J0D01*
G01*
G37*
G36*
G01*
X47362000Y-40190000D02*
X47812000Y-40190000D01*
G75*
G02*
X48037000Y-40415000I0J-225000D01*
G01*
X48037000Y-40865000D01*
G75*
G02*
X47812000Y-41090000I-225000J0D01*
G01*
X47362000Y-41090000D01*
G75*
G02*
X47137000Y-40865000I0J225000D01*
G01*
X47137000Y-40415000D01*
G75*
G02*
X47362000Y-40190000I225000J0D01*
G01*
G37*
G36*
G01*
X25712000Y-48282000D02*
X25712000Y-47832000D01*
G75*
G02*
X25937000Y-47607000I225000J0D01*
G01*
X26387000Y-47607000D01*
G75*
G02*
X26612000Y-47832000I0J-225000D01*
G01*
X26612000Y-48282000D01*
G75*
G02*
X26387000Y-48507000I-225000J0D01*
G01*
X25937000Y-48507000D01*
G75*
G02*
X25712000Y-48282000I0J225000D01*
G01*
G37*
G36*
G01*
X25712000Y-49882000D02*
X25712000Y-49432000D01*
G75*
G02*
X25937000Y-49207000I225000J0D01*
G01*
X26387000Y-49207000D01*
G75*
G02*
X26612000Y-49432000I0J-225000D01*
G01*
X26612000Y-49882000D01*
G75*
G02*
X26387000Y-50107000I-225000J0D01*
G01*
X25937000Y-50107000D01*
G75*
G02*
X25712000Y-49882000I0J225000D01*
G01*
G37*
G36*
G01*
X59632000Y-55185000D02*
X59632000Y-55635000D01*
G75*
G02*
X59407000Y-55860000I-225000J0D01*
G01*
X58957000Y-55860000D01*
G75*
G02*
X58732000Y-55635000I0J225000D01*
G01*
X58732000Y-55185000D01*
G75*
G02*
X58957000Y-54960000I225000J0D01*
G01*
X59407000Y-54960000D01*
G75*
G02*
X59632000Y-55185000I0J-225000D01*
G01*
G37*
G36*
G01*
X59632000Y-53585000D02*
X59632000Y-54035000D01*
G75*
G02*
X59407000Y-54260000I-225000J0D01*
G01*
X58957000Y-54260000D01*
G75*
G02*
X58732000Y-54035000I0J225000D01*
G01*
X58732000Y-53585000D01*
G75*
G02*
X58957000Y-53360000I225000J0D01*
G01*
X59407000Y-53360000D01*
G75*
G02*
X59632000Y-53585000I0J-225000D01*
G01*
G37*
G36*
G01*
X35373000Y-41841000D02*
X35823000Y-41841000D01*
G75*
G02*
X36048000Y-42066000I0J-225000D01*
G01*
X36048000Y-42516000D01*
G75*
G02*
X35823000Y-42741000I-225000J0D01*
G01*
X35373000Y-42741000D01*
G75*
G02*
X35148000Y-42516000I0J225000D01*
G01*
X35148000Y-42066000D01*
G75*
G02*
X35373000Y-41841000I225000J0D01*
G01*
G37*
G36*
G01*
X33773000Y-41841000D02*
X34223000Y-41841000D01*
G75*
G02*
X34448000Y-42066000I0J-225000D01*
G01*
X34448000Y-42516000D01*
G75*
G02*
X34223000Y-42741000I-225000J0D01*
G01*
X33773000Y-42741000D01*
G75*
G02*
X33548000Y-42516000I0J225000D01*
G01*
X33548000Y-42066000D01*
G75*
G02*
X33773000Y-41841000I225000J0D01*
G01*
G37*
G36*
G01*
X59632000Y-64710000D02*
X59632000Y-65160000D01*
G75*
G02*
X59407000Y-65385000I-225000J0D01*
G01*
X58957000Y-65385000D01*
G75*
G02*
X58732000Y-65160000I0J225000D01*
G01*
X58732000Y-64710000D01*
G75*
G02*
X58957000Y-64485000I225000J0D01*
G01*
X59407000Y-64485000D01*
G75*
G02*
X59632000Y-64710000I0J-225000D01*
G01*
G37*
G36*
G01*
X59632000Y-63110000D02*
X59632000Y-63560000D01*
G75*
G02*
X59407000Y-63785000I-225000J0D01*
G01*
X58957000Y-63785000D01*
G75*
G02*
X58732000Y-63560000I0J225000D01*
G01*
X58732000Y-63110000D01*
G75*
G02*
X58957000Y-62885000I225000J0D01*
G01*
X59407000Y-62885000D01*
G75*
G02*
X59632000Y-63110000I0J-225000D01*
G01*
G37*
G36*
G01*
X58478000Y-49082000D02*
X58478000Y-48632000D01*
G75*
G02*
X58703000Y-48407000I225000J0D01*
G01*
X59153000Y-48407000D01*
G75*
G02*
X59378000Y-48632000I0J-225000D01*
G01*
X59378000Y-49082000D01*
G75*
G02*
X59153000Y-49307000I-225000J0D01*
G01*
X58703000Y-49307000D01*
G75*
G02*
X58478000Y-49082000I0J225000D01*
G01*
G37*
G36*
G01*
X58478000Y-50682000D02*
X58478000Y-50232000D01*
G75*
G02*
X58703000Y-50007000I225000J0D01*
G01*
X59153000Y-50007000D01*
G75*
G02*
X59378000Y-50232000I0J-225000D01*
G01*
X59378000Y-50682000D01*
G75*
G02*
X59153000Y-50907000I-225000J0D01*
G01*
X58703000Y-50907000D01*
G75*
G02*
X58478000Y-50682000I0J225000D01*
G01*
G37*
G36*
G01*
X75886000Y-34602000D02*
X76336000Y-34602000D01*
G75*
G02*
X76561000Y-34827000I0J-225000D01*
G01*
X76561000Y-35277000D01*
G75*
G02*
X76336000Y-35502000I-225000J0D01*
G01*
X75886000Y-35502000D01*
G75*
G02*
X75661000Y-35277000I0J225000D01*
G01*
X75661000Y-34827000D01*
G75*
G02*
X75886000Y-34602000I225000J0D01*
G01*
G37*
G36*
G01*
X74286000Y-34602000D02*
X74736000Y-34602000D01*
G75*
G02*
X74961000Y-34827000I0J-225000D01*
G01*
X74961000Y-35277000D01*
G75*
G02*
X74736000Y-35502000I-225000J0D01*
G01*
X74286000Y-35502000D01*
G75*
G02*
X74061000Y-35277000I0J225000D01*
G01*
X74061000Y-34827000D01*
G75*
G02*
X74286000Y-34602000I225000J0D01*
G01*
G37*
G36*
G01*
X38033000Y-54044000D02*
X37583000Y-54044000D01*
G75*
G02*
X37358000Y-53819000I0J225000D01*
G01*
X37358000Y-53369000D01*
G75*
G02*
X37583000Y-53144000I225000J0D01*
G01*
X38033000Y-53144000D01*
G75*
G02*
X38258000Y-53369000I0J-225000D01*
G01*
X38258000Y-53819000D01*
G75*
G02*
X38033000Y-54044000I-225000J0D01*
G01*
G37*
G36*
G01*
X39633000Y-54044000D02*
X39183000Y-54044000D01*
G75*
G02*
X38958000Y-53819000I0J225000D01*
G01*
X38958000Y-53369000D01*
G75*
G02*
X39183000Y-53144000I225000J0D01*
G01*
X39633000Y-53144000D01*
G75*
G02*
X39858000Y-53369000I0J-225000D01*
G01*
X39858000Y-53819000D01*
G75*
G02*
X39633000Y-54044000I-225000J0D01*
G01*
G37*
G36*
G01*
X44726000Y-50615000D02*
X44276000Y-50615000D01*
G75*
G02*
X44051000Y-50390000I0J225000D01*
G01*
X44051000Y-49940000D01*
G75*
G02*
X44276000Y-49715000I225000J0D01*
G01*
X44726000Y-49715000D01*
G75*
G02*
X44951000Y-49940000I0J-225000D01*
G01*
X44951000Y-50390000D01*
G75*
G02*
X44726000Y-50615000I-225000J0D01*
G01*
G37*
G36*
G01*
X46326000Y-50615000D02*
X45876000Y-50615000D01*
G75*
G02*
X45651000Y-50390000I0J225000D01*
G01*
X45651000Y-49940000D01*
G75*
G02*
X45876000Y-49715000I225000J0D01*
G01*
X46326000Y-49715000D01*
G75*
G02*
X46551000Y-49940000I0J-225000D01*
G01*
X46551000Y-50390000D01*
G75*
G02*
X46326000Y-50615000I-225000J0D01*
G01*
G37*
G36*
G01*
X58732000Y-36890000D02*
X58732000Y-36440000D01*
G75*
G02*
X58957000Y-36215000I225000J0D01*
G01*
X59407000Y-36215000D01*
G75*
G02*
X59632000Y-36440000I0J-225000D01*
G01*
X59632000Y-36890000D01*
G75*
G02*
X59407000Y-37115000I-225000J0D01*
G01*
X58957000Y-37115000D01*
G75*
G02*
X58732000Y-36890000I0J225000D01*
G01*
G37*
G36*
G01*
X58732000Y-38490000D02*
X58732000Y-38040000D01*
G75*
G02*
X58957000Y-37815000I225000J0D01*
G01*
X59407000Y-37815000D01*
G75*
G02*
X59632000Y-38040000I0J-225000D01*
G01*
X59632000Y-38490000D01*
G75*
G02*
X59407000Y-38715000I-225000J0D01*
G01*
X58957000Y-38715000D01*
G75*
G02*
X58732000Y-38490000I0J225000D01*
G01*
G37*
G36*
G01*
X41979000Y-42828000D02*
X41979000Y-43278000D01*
G75*
G02*
X41754000Y-43503000I-225000J0D01*
G01*
X41304000Y-43503000D01*
G75*
G02*
X41079000Y-43278000I0J225000D01*
G01*
X41079000Y-42828000D01*
G75*
G02*
X41304000Y-42603000I225000J0D01*
G01*
X41754000Y-42603000D01*
G75*
G02*
X41979000Y-42828000I0J-225000D01*
G01*
G37*
G36*
G01*
X41979000Y-41228000D02*
X41979000Y-41678000D01*
G75*
G02*
X41754000Y-41903000I-225000J0D01*
G01*
X41304000Y-41903000D01*
G75*
G02*
X41079000Y-41678000I0J225000D01*
G01*
X41079000Y-41228000D01*
G75*
G02*
X41304000Y-41003000I225000J0D01*
G01*
X41754000Y-41003000D01*
G75*
G02*
X41979000Y-41228000I0J-225000D01*
G01*
G37*
G36*
G01*
X68649000Y-43120000D02*
X68649000Y-43570000D01*
G75*
G02*
X68424000Y-43795000I-225000J0D01*
G01*
X67974000Y-43795000D01*
G75*
G02*
X67749000Y-43570000I0J225000D01*
G01*
X67749000Y-43120000D01*
G75*
G02*
X67974000Y-42895000I225000J0D01*
G01*
X68424000Y-42895000D01*
G75*
G02*
X68649000Y-43120000I0J-225000D01*
G01*
G37*
G36*
G01*
X68649000Y-41520000D02*
X68649000Y-41970000D01*
G75*
G02*
X68424000Y-42195000I-225000J0D01*
G01*
X67974000Y-42195000D01*
G75*
G02*
X67749000Y-41970000I0J225000D01*
G01*
X67749000Y-41520000D01*
G75*
G02*
X67974000Y-41295000I225000J0D01*
G01*
X68424000Y-41295000D01*
G75*
G02*
X68649000Y-41520000I0J-225000D01*
G01*
G37*
G36*
G01*
X59632000Y-61535000D02*
X59632000Y-61985000D01*
G75*
G02*
X59407000Y-62210000I-225000J0D01*
G01*
X58957000Y-62210000D01*
G75*
G02*
X58732000Y-61985000I0J225000D01*
G01*
X58732000Y-61535000D01*
G75*
G02*
X58957000Y-61310000I225000J0D01*
G01*
X59407000Y-61310000D01*
G75*
G02*
X59632000Y-61535000I0J-225000D01*
G01*
G37*
G36*
G01*
X59632000Y-59935000D02*
X59632000Y-60385000D01*
G75*
G02*
X59407000Y-60610000I-225000J0D01*
G01*
X58957000Y-60610000D01*
G75*
G02*
X58732000Y-60385000I0J225000D01*
G01*
X58732000Y-59935000D01*
G75*
G02*
X58957000Y-59710000I225000J0D01*
G01*
X59407000Y-59710000D01*
G75*
G02*
X59632000Y-59935000I0J-225000D01*
G01*
G37*
G36*
G01*
X63440000Y-58859000D02*
X63890000Y-58859000D01*
G75*
G02*
X64115000Y-59084000I0J-225000D01*
G01*
X64115000Y-59534000D01*
G75*
G02*
X63890000Y-59759000I-225000J0D01*
G01*
X63440000Y-59759000D01*
G75*
G02*
X63215000Y-59534000I0J225000D01*
G01*
X63215000Y-59084000D01*
G75*
G02*
X63440000Y-58859000I225000J0D01*
G01*
G37*
G36*
G01*
X61840000Y-58859000D02*
X62290000Y-58859000D01*
G75*
G02*
X62515000Y-59084000I0J-225000D01*
G01*
X62515000Y-59534000D01*
G75*
G02*
X62290000Y-59759000I-225000J0D01*
G01*
X61840000Y-59759000D01*
G75*
G02*
X61615000Y-59534000I0J225000D01*
G01*
X61615000Y-59084000D01*
G75*
G02*
X61840000Y-58859000I225000J0D01*
G01*
G37*
G36*
G01*
X66107000Y-39555000D02*
X66557000Y-39555000D01*
G75*
G02*
X66782000Y-39780000I0J-225000D01*
G01*
X66782000Y-40230000D01*
G75*
G02*
X66557000Y-40455000I-225000J0D01*
G01*
X66107000Y-40455000D01*
G75*
G02*
X65882000Y-40230000I0J225000D01*
G01*
X65882000Y-39780000D01*
G75*
G02*
X66107000Y-39555000I225000J0D01*
G01*
G37*
G36*
G01*
X64507000Y-39555000D02*
X64957000Y-39555000D01*
G75*
G02*
X65182000Y-39780000I0J-225000D01*
G01*
X65182000Y-40230000D01*
G75*
G02*
X64957000Y-40455000I-225000J0D01*
G01*
X64507000Y-40455000D01*
G75*
G02*
X64282000Y-40230000I0J225000D01*
G01*
X64282000Y-39780000D01*
G75*
G02*
X64507000Y-39555000I225000J0D01*
G01*
G37*
G36*
G01*
X23174000Y-46424000D02*
X22724000Y-46424000D01*
G75*
G02*
X22499000Y-46199000I0J225000D01*
G01*
X22499000Y-45749000D01*
G75*
G02*
X22724000Y-45524000I225000J0D01*
G01*
X23174000Y-45524000D01*
G75*
G02*
X23399000Y-45749000I0J-225000D01*
G01*
X23399000Y-46199000D01*
G75*
G02*
X23174000Y-46424000I-225000J0D01*
G01*
G37*
G36*
G01*
X24774000Y-46424000D02*
X24324000Y-46424000D01*
G75*
G02*
X24099000Y-46199000I0J225000D01*
G01*
X24099000Y-45749000D01*
G75*
G02*
X24324000Y-45524000I225000J0D01*
G01*
X24774000Y-45524000D01*
G75*
G02*
X24999000Y-45749000I0J-225000D01*
G01*
X24999000Y-46199000D01*
G75*
G02*
X24774000Y-46424000I-225000J0D01*
G01*
G37*
G36*
G01*
X35373000Y-47937000D02*
X35823000Y-47937000D01*
G75*
G02*
X36048000Y-48162000I0J-225000D01*
G01*
X36048000Y-48612000D01*
G75*
G02*
X35823000Y-48837000I-225000J0D01*
G01*
X35373000Y-48837000D01*
G75*
G02*
X35148000Y-48612000I0J225000D01*
G01*
X35148000Y-48162000D01*
G75*
G02*
X35373000Y-47937000I225000J0D01*
G01*
G37*
G36*
G01*
X33773000Y-47937000D02*
X34223000Y-47937000D01*
G75*
G02*
X34448000Y-48162000I0J-225000D01*
G01*
X34448000Y-48612000D01*
G75*
G02*
X34223000Y-48837000I-225000J0D01*
G01*
X33773000Y-48837000D01*
G75*
G02*
X33548000Y-48612000I0J225000D01*
G01*
X33548000Y-48162000D01*
G75*
G02*
X33773000Y-47937000I225000J0D01*
G01*
G37*
G36*
G01*
X75886000Y-37396000D02*
X76336000Y-37396000D01*
G75*
G02*
X76561000Y-37621000I0J-225000D01*
G01*
X76561000Y-38071000D01*
G75*
G02*
X76336000Y-38296000I-225000J0D01*
G01*
X75886000Y-38296000D01*
G75*
G02*
X75661000Y-38071000I0J225000D01*
G01*
X75661000Y-37621000D01*
G75*
G02*
X75886000Y-37396000I225000J0D01*
G01*
G37*
G36*
G01*
X74286000Y-37396000D02*
X74736000Y-37396000D01*
G75*
G02*
X74961000Y-37621000I0J-225000D01*
G01*
X74961000Y-38071000D01*
G75*
G02*
X74736000Y-38296000I-225000J0D01*
G01*
X74286000Y-38296000D01*
G75*
G02*
X74061000Y-38071000I0J225000D01*
G01*
X74061000Y-37621000D01*
G75*
G02*
X74286000Y-37396000I225000J0D01*
G01*
G37*
G36*
G01*
X28506000Y-44764000D02*
X28506000Y-44314000D01*
G75*
G02*
X28731000Y-44089000I225000J0D01*
G01*
X29181000Y-44089000D01*
G75*
G02*
X29406000Y-44314000I0J-225000D01*
G01*
X29406000Y-44764000D01*
G75*
G02*
X29181000Y-44989000I-225000J0D01*
G01*
X28731000Y-44989000D01*
G75*
G02*
X28506000Y-44764000I0J225000D01*
G01*
G37*
G36*
G01*
X28506000Y-46364000D02*
X28506000Y-45914000D01*
G75*
G02*
X28731000Y-45689000I225000J0D01*
G01*
X29181000Y-45689000D01*
G75*
G02*
X29406000Y-45914000I0J-225000D01*
G01*
X29406000Y-46364000D01*
G75*
G02*
X29181000Y-46589000I-225000J0D01*
G01*
X28731000Y-46589000D01*
G75*
G02*
X28506000Y-46364000I0J225000D01*
G01*
G37*
G36*
G01*
X64066000Y-44002000D02*
X64066000Y-43552000D01*
G75*
G02*
X64291000Y-43327000I225000J0D01*
G01*
X64741000Y-43327000D01*
G75*
G02*
X64966000Y-43552000I0J-225000D01*
G01*
X64966000Y-44002000D01*
G75*
G02*
X64741000Y-44227000I-225000J0D01*
G01*
X64291000Y-44227000D01*
G75*
G02*
X64066000Y-44002000I0J225000D01*
G01*
G37*
G36*
G01*
X64066000Y-45602000D02*
X64066000Y-45152000D01*
G75*
G02*
X64291000Y-44927000I225000J0D01*
G01*
X64741000Y-44927000D01*
G75*
G02*
X64966000Y-45152000I0J-225000D01*
G01*
X64966000Y-45602000D01*
G75*
G02*
X64741000Y-45827000I-225000J0D01*
G01*
X64291000Y-45827000D01*
G75*
G02*
X64066000Y-45602000I0J225000D01*
G01*
G37*
G36*
G01*
X35373000Y-44889000D02*
X35823000Y-44889000D01*
G75*
G02*
X36048000Y-45114000I0J-225000D01*
G01*
X36048000Y-45564000D01*
G75*
G02*
X35823000Y-45789000I-225000J0D01*
G01*
X35373000Y-45789000D01*
G75*
G02*
X35148000Y-45564000I0J225000D01*
G01*
X35148000Y-45114000D01*
G75*
G02*
X35373000Y-44889000I225000J0D01*
G01*
G37*
G36*
G01*
X33773000Y-44889000D02*
X34223000Y-44889000D01*
G75*
G02*
X34448000Y-45114000I0J-225000D01*
G01*
X34448000Y-45564000D01*
G75*
G02*
X34223000Y-45789000I-225000J0D01*
G01*
X33773000Y-45789000D01*
G75*
G02*
X33548000Y-45564000I0J225000D01*
G01*
X33548000Y-45114000D01*
G75*
G02*
X33773000Y-44889000I225000J0D01*
G01*
G37*
G36*
G01*
X24722000Y-50695000D02*
X24422000Y-50695000D01*
G75*
G02*
X24272000Y-50545000I0J150000D01*
G01*
X24272000Y-49520000D01*
G75*
G02*
X24422000Y-49370000I150000J0D01*
G01*
X24722000Y-49370000D01*
G75*
G02*
X24872000Y-49520000I0J-150000D01*
G01*
X24872000Y-50545000D01*
G75*
G02*
X24722000Y-50695000I-150000J0D01*
G01*
G37*
G36*
G01*
X23772000Y-50695000D02*
X23472000Y-50695000D01*
G75*
G02*
X23322000Y-50545000I0J150000D01*
G01*
X23322000Y-49520000D01*
G75*
G02*
X23472000Y-49370000I150000J0D01*
G01*
X23772000Y-49370000D01*
G75*
G02*
X23922000Y-49520000I0J-150000D01*
G01*
X23922000Y-50545000D01*
G75*
G02*
X23772000Y-50695000I-150000J0D01*
G01*
G37*
G36*
G01*
X22822000Y-50695000D02*
X22522000Y-50695000D01*
G75*
G02*
X22372000Y-50545000I0J150000D01*
G01*
X22372000Y-49520000D01*
G75*
G02*
X22522000Y-49370000I150000J0D01*
G01*
X22822000Y-49370000D01*
G75*
G02*
X22972000Y-49520000I0J-150000D01*
G01*
X22972000Y-50545000D01*
G75*
G02*
X22822000Y-50695000I-150000J0D01*
G01*
G37*
G36*
G01*
X22822000Y-48420000D02*
X22522000Y-48420000D01*
G75*
G02*
X22372000Y-48270000I0J150000D01*
G01*
X22372000Y-47245000D01*
G75*
G02*
X22522000Y-47095000I150000J0D01*
G01*
X22822000Y-47095000D01*
G75*
G02*
X22972000Y-47245000I0J-150000D01*
G01*
X22972000Y-48270000D01*
G75*
G02*
X22822000Y-48420000I-150000J0D01*
G01*
G37*
G36*
G01*
X24722000Y-48420000D02*
X24422000Y-48420000D01*
G75*
G02*
X24272000Y-48270000I0J150000D01*
G01*
X24272000Y-47245000D01*
G75*
G02*
X24422000Y-47095000I150000J0D01*
G01*
X24722000Y-47095000D01*
G75*
G02*
X24872000Y-47245000I0J-150000D01*
G01*
X24872000Y-48270000D01*
G75*
G02*
X24722000Y-48420000I-150000J0D01*
G01*
G37*
G36*
G01*
X48699000Y-48955000D02*
X48699000Y-48505000D01*
G75*
G02*
X48924000Y-48280000I225000J0D01*
G01*
X49374000Y-48280000D01*
G75*
G02*
X49599000Y-48505000I0J-225000D01*
G01*
X49599000Y-48955000D01*
G75*
G02*
X49374000Y-49180000I-225000J0D01*
G01*
X48924000Y-49180000D01*
G75*
G02*
X48699000Y-48955000I0J225000D01*
G01*
G37*
G36*
G01*
X48699000Y-50555000D02*
X48699000Y-50105000D01*
G75*
G02*
X48924000Y-49880000I225000J0D01*
G01*
X49374000Y-49880000D01*
G75*
G02*
X49599000Y-50105000I0J-225000D01*
G01*
X49599000Y-50555000D01*
G75*
G02*
X49374000Y-50780000I-225000J0D01*
G01*
X48924000Y-50780000D01*
G75*
G02*
X48699000Y-50555000I0J225000D01*
G01*
G37*
G36*
G01*
X55557000Y-49082000D02*
X55557000Y-48632000D01*
G75*
G02*
X55782000Y-48407000I225000J0D01*
G01*
X56232000Y-48407000D01*
G75*
G02*
X56457000Y-48632000I0J-225000D01*
G01*
X56457000Y-49082000D01*
G75*
G02*
X56232000Y-49307000I-225000J0D01*
G01*
X55782000Y-49307000D01*
G75*
G02*
X55557000Y-49082000I0J225000D01*
G01*
G37*
G36*
G01*
X55557000Y-50682000D02*
X55557000Y-50232000D01*
G75*
G02*
X55782000Y-50007000I225000J0D01*
G01*
X56232000Y-50007000D01*
G75*
G02*
X56457000Y-50232000I0J-225000D01*
G01*
X56457000Y-50682000D01*
G75*
G02*
X56232000Y-50907000I-225000J0D01*
G01*
X55782000Y-50907000D01*
G75*
G02*
X55557000Y-50682000I0J225000D01*
G01*
G37*
G36*
G01*
X62172000Y-64710000D02*
X62172000Y-65160000D01*
G75*
G02*
X61947000Y-65385000I-225000J0D01*
G01*
X61497000Y-65385000D01*
G75*
G02*
X61272000Y-65160000I0J225000D01*
G01*
X61272000Y-64710000D01*
G75*
G02*
X61497000Y-64485000I225000J0D01*
G01*
X61947000Y-64485000D01*
G75*
G02*
X62172000Y-64710000I0J-225000D01*
G01*
G37*
G36*
G01*
X62172000Y-63110000D02*
X62172000Y-63560000D01*
G75*
G02*
X61947000Y-63785000I-225000J0D01*
G01*
X61497000Y-63785000D01*
G75*
G02*
X61272000Y-63560000I0J225000D01*
G01*
X61272000Y-63110000D01*
G75*
G02*
X61497000Y-62885000I225000J0D01*
G01*
X61947000Y-62885000D01*
G75*
G02*
X62172000Y-63110000I0J-225000D01*
G01*
G37*
G36*
G01*
X70173000Y-44390000D02*
X70173000Y-44840000D01*
G75*
G02*
X69948000Y-45065000I-225000J0D01*
G01*
X69498000Y-45065000D01*
G75*
G02*
X69273000Y-44840000I0J225000D01*
G01*
X69273000Y-44390000D01*
G75*
G02*
X69498000Y-44165000I225000J0D01*
G01*
X69948000Y-44165000D01*
G75*
G02*
X70173000Y-44390000I0J-225000D01*
G01*
G37*
G36*
G01*
X70173000Y-42790000D02*
X70173000Y-43240000D01*
G75*
G02*
X69948000Y-43465000I-225000J0D01*
G01*
X69498000Y-43465000D01*
G75*
G02*
X69273000Y-43240000I0J225000D01*
G01*
X69273000Y-42790000D01*
G75*
G02*
X69498000Y-42565000I225000J0D01*
G01*
X69948000Y-42565000D01*
G75*
G02*
X70173000Y-42790000I0J-225000D01*
G01*
G37*
G36*
G01*
X35373000Y-46413000D02*
X35823000Y-46413000D01*
G75*
G02*
X36048000Y-46638000I0J-225000D01*
G01*
X36048000Y-47088000D01*
G75*
G02*
X35823000Y-47313000I-225000J0D01*
G01*
X35373000Y-47313000D01*
G75*
G02*
X35148000Y-47088000I0J225000D01*
G01*
X35148000Y-46638000D01*
G75*
G02*
X35373000Y-46413000I225000J0D01*
G01*
G37*
G36*
G01*
X33773000Y-46413000D02*
X34223000Y-46413000D01*
G75*
G02*
X34448000Y-46638000I0J-225000D01*
G01*
X34448000Y-47088000D01*
G75*
G02*
X34223000Y-47313000I-225000J0D01*
G01*
X33773000Y-47313000D01*
G75*
G02*
X33548000Y-47088000I0J225000D01*
G01*
X33548000Y-46638000D01*
G75*
G02*
X33773000Y-46413000I225000J0D01*
G01*
G37*
G36*
G01*
X46794000Y-36636000D02*
X46794000Y-36186000D01*
G75*
G02*
X47019000Y-35961000I225000J0D01*
G01*
X47469000Y-35961000D01*
G75*
G02*
X47694000Y-36186000I0J-225000D01*
G01*
X47694000Y-36636000D01*
G75*
G02*
X47469000Y-36861000I-225000J0D01*
G01*
X47019000Y-36861000D01*
G75*
G02*
X46794000Y-36636000I0J225000D01*
G01*
G37*
G36*
G01*
X46794000Y-38236000D02*
X46794000Y-37786000D01*
G75*
G02*
X47019000Y-37561000I225000J0D01*
G01*
X47469000Y-37561000D01*
G75*
G02*
X47694000Y-37786000I0J-225000D01*
G01*
X47694000Y-38236000D01*
G75*
G02*
X47469000Y-38461000I-225000J0D01*
G01*
X47019000Y-38461000D01*
G75*
G02*
X46794000Y-38236000I0J225000D01*
G01*
G37*
G36*
G01*
X57210000Y-46297000D02*
X56760000Y-46297000D01*
G75*
G02*
X56535000Y-46072000I0J225000D01*
G01*
X56535000Y-45622000D01*
G75*
G02*
X56760000Y-45397000I225000J0D01*
G01*
X57210000Y-45397000D01*
G75*
G02*
X57435000Y-45622000I0J-225000D01*
G01*
X57435000Y-46072000D01*
G75*
G02*
X57210000Y-46297000I-225000J0D01*
G01*
G37*
G36*
G01*
X58810000Y-46297000D02*
X58360000Y-46297000D01*
G75*
G02*
X58135000Y-46072000I0J225000D01*
G01*
X58135000Y-45622000D01*
G75*
G02*
X58360000Y-45397000I225000J0D01*
G01*
X58810000Y-45397000D01*
G75*
G02*
X59035000Y-45622000I0J-225000D01*
G01*
X59035000Y-46072000D01*
G75*
G02*
X58810000Y-46297000I-225000J0D01*
G01*
G37*
G36*
G01*
X38033000Y-50361000D02*
X37583000Y-50361000D01*
G75*
G02*
X37358000Y-50136000I0J225000D01*
G01*
X37358000Y-49686000D01*
G75*
G02*
X37583000Y-49461000I225000J0D01*
G01*
X38033000Y-49461000D01*
G75*
G02*
X38258000Y-49686000I0J-225000D01*
G01*
X38258000Y-50136000D01*
G75*
G02*
X38033000Y-50361000I-225000J0D01*
G01*
G37*
G36*
G01*
X39633000Y-50361000D02*
X39183000Y-50361000D01*
G75*
G02*
X38958000Y-50136000I0J225000D01*
G01*
X38958000Y-49686000D01*
G75*
G02*
X39183000Y-49461000I225000J0D01*
G01*
X39633000Y-49461000D01*
G75*
G02*
X39858000Y-49686000I0J-225000D01*
G01*
X39858000Y-50136000D01*
G75*
G02*
X39633000Y-50361000I-225000J0D01*
G01*
G37*
G36*
G01*
X42231000Y-44508000D02*
X42681000Y-44508000D01*
G75*
G02*
X42906000Y-44733000I0J-225000D01*
G01*
X42906000Y-45183000D01*
G75*
G02*
X42681000Y-45408000I-225000J0D01*
G01*
X42231000Y-45408000D01*
G75*
G02*
X42006000Y-45183000I0J225000D01*
G01*
X42006000Y-44733000D01*
G75*
G02*
X42231000Y-44508000I225000J0D01*
G01*
G37*
G36*
G01*
X40631000Y-44508000D02*
X41081000Y-44508000D01*
G75*
G02*
X41306000Y-44733000I0J-225000D01*
G01*
X41306000Y-45183000D01*
G75*
G02*
X41081000Y-45408000I-225000J0D01*
G01*
X40631000Y-45408000D01*
G75*
G02*
X40406000Y-45183000I0J225000D01*
G01*
X40406000Y-44733000D01*
G75*
G02*
X40631000Y-44508000I225000J0D01*
G01*
G37*
G36*
G01*
X61272000Y-54035000D02*
X61272000Y-53585000D01*
G75*
G02*
X61497000Y-53360000I225000J0D01*
G01*
X61947000Y-53360000D01*
G75*
G02*
X62172000Y-53585000I0J-225000D01*
G01*
X62172000Y-54035000D01*
G75*
G02*
X61947000Y-54260000I-225000J0D01*
G01*
X61497000Y-54260000D01*
G75*
G02*
X61272000Y-54035000I0J225000D01*
G01*
G37*
G36*
G01*
X61272000Y-55635000D02*
X61272000Y-55185000D01*
G75*
G02*
X61497000Y-54960000I225000J0D01*
G01*
X61947000Y-54960000D01*
G75*
G02*
X62172000Y-55185000I0J-225000D01*
G01*
X62172000Y-55635000D01*
G75*
G02*
X61947000Y-55860000I-225000J0D01*
G01*
X61497000Y-55860000D01*
G75*
G02*
X61272000Y-55635000I0J225000D01*
G01*
G37*
G36*
G01*
X25596000Y-59884000D02*
X25596000Y-60334000D01*
G75*
G02*
X25371000Y-60559000I-225000J0D01*
G01*
X24921000Y-60559000D01*
G75*
G02*
X24696000Y-60334000I0J225000D01*
G01*
X24696000Y-59884000D01*
G75*
G02*
X24921000Y-59659000I225000J0D01*
G01*
X25371000Y-59659000D01*
G75*
G02*
X25596000Y-59884000I0J-225000D01*
G01*
G37*
G36*
G01*
X25596000Y-58284000D02*
X25596000Y-58734000D01*
G75*
G02*
X25371000Y-58959000I-225000J0D01*
G01*
X24921000Y-58959000D01*
G75*
G02*
X24696000Y-58734000I0J225000D01*
G01*
X24696000Y-58284000D01*
G75*
G02*
X24921000Y-58059000I225000J0D01*
G01*
X25371000Y-58059000D01*
G75*
G02*
X25596000Y-58284000I0J-225000D01*
G01*
G37*
G36*
G01*
X39183000Y-47937000D02*
X39633000Y-47937000D01*
G75*
G02*
X39858000Y-48162000I0J-225000D01*
G01*
X39858000Y-48612000D01*
G75*
G02*
X39633000Y-48837000I-225000J0D01*
G01*
X39183000Y-48837000D01*
G75*
G02*
X38958000Y-48612000I0J225000D01*
G01*
X38958000Y-48162000D01*
G75*
G02*
X39183000Y-47937000I225000J0D01*
G01*
G37*
G36*
G01*
X37583000Y-47937000D02*
X38033000Y-47937000D01*
G75*
G02*
X38258000Y-48162000I0J-225000D01*
G01*
X38258000Y-48612000D01*
G75*
G02*
X38033000Y-48837000I-225000J0D01*
G01*
X37583000Y-48837000D01*
G75*
G02*
X37358000Y-48612000I0J225000D01*
G01*
X37358000Y-48162000D01*
G75*
G02*
X37583000Y-47937000I225000J0D01*
G01*
G37*
G36*
G01*
X29406000Y-52391000D02*
X29406000Y-52841000D01*
G75*
G02*
X29181000Y-53066000I-225000J0D01*
G01*
X28731000Y-53066000D01*
G75*
G02*
X28506000Y-52841000I0J225000D01*
G01*
X28506000Y-52391000D01*
G75*
G02*
X28731000Y-52166000I225000J0D01*
G01*
X29181000Y-52166000D01*
G75*
G02*
X29406000Y-52391000I0J-225000D01*
G01*
G37*
G36*
G01*
X29406000Y-50791000D02*
X29406000Y-51241000D01*
G75*
G02*
X29181000Y-51466000I-225000J0D01*
G01*
X28731000Y-51466000D01*
G75*
G02*
X28506000Y-51241000I0J225000D01*
G01*
X28506000Y-50791000D01*
G75*
G02*
X28731000Y-50566000I225000J0D01*
G01*
X29181000Y-50566000D01*
G75*
G02*
X29406000Y-50791000I0J-225000D01*
G01*
G37*
%LPD*%
M02*
