G04 #@! TF.GenerationSoftware,KiCad,Pcbnew,9.0.4-1.fc42app3*
G04 #@! TF.CreationDate,2025-10-09T13:02:16+02:00*
G04 #@! TF.ProjectId,usb-sniffer_NEW,7573622d-736e-4696-9666-65725f4e4557,v 1.0.0*
G04 #@! TF.SameCoordinates,Original*
G04 #@! TF.FileFunction,Paste,Bot*
G04 #@! TF.FilePolarity,Positive*
%FSLAX46Y46*%
G04 Gerber Fmt 4.6, Leading zero omitted, Abs format (unit mm)*
G04 Created by KiCad (PCBNEW 9.0.4-1.fc42app3) date 2025-10-09 13:02:16*
%MOMM*%
%LPD*%
G01*
G04 APERTURE LIST*
G04 APERTURE END LIST*
G36*
G01*
X35373000Y-49461000D02*
X35823000Y-49461000D01*
G75*
G02*
X36048000Y-49686000I0J-225000D01*
G01*
X36048000Y-50136000D01*
G75*
G02*
X35823000Y-50361000I-225000J0D01*
G01*
X35373000Y-50361000D01*
G75*
G02*
X35148000Y-50136000I0J225000D01*
G01*
X35148000Y-49686000D01*
G75*
G02*
X35373000Y-49461000I225000J0D01*
G01*
G37*
G36*
G01*
X33773000Y-49461000D02*
X34223000Y-49461000D01*
G75*
G02*
X34448000Y-49686000I0J-225000D01*
G01*
X34448000Y-50136000D01*
G75*
G02*
X34223000Y-50361000I-225000J0D01*
G01*
X33773000Y-50361000D01*
G75*
G02*
X33548000Y-50136000I0J225000D01*
G01*
X33548000Y-49686000D01*
G75*
G02*
X33773000Y-49461000I225000J0D01*
G01*
G37*
G36*
G01*
X55444000Y-31897000D02*
X55694000Y-31897000D01*
G75*
G02*
X55819000Y-32022000I0J-125000D01*
G01*
X55819000Y-32672000D01*
G75*
G02*
X55694000Y-32797000I-125000J0D01*
G01*
X55444000Y-32797000D01*
G75*
G02*
X55319000Y-32672000I0J125000D01*
G01*
X55319000Y-32022000D01*
G75*
G02*
X55444000Y-31897000I125000J0D01*
G01*
G37*
G36*
G01*
X56244000Y-31897000D02*
X56494000Y-31897000D01*
G75*
G02*
X56619000Y-32022000I0J-125000D01*
G01*
X56619000Y-32672000D01*
G75*
G02*
X56494000Y-32797000I-125000J0D01*
G01*
X56244000Y-32797000D01*
G75*
G02*
X56119000Y-32672000I0J125000D01*
G01*
X56119000Y-32022000D01*
G75*
G02*
X56244000Y-31897000I125000J0D01*
G01*
G37*
G36*
G01*
X57044000Y-31897000D02*
X57294000Y-31897000D01*
G75*
G02*
X57419000Y-32022000I0J-125000D01*
G01*
X57419000Y-32672000D01*
G75*
G02*
X57294000Y-32797000I-125000J0D01*
G01*
X57044000Y-32797000D01*
G75*
G02*
X56919000Y-32672000I0J125000D01*
G01*
X56919000Y-32022000D01*
G75*
G02*
X57044000Y-31897000I125000J0D01*
G01*
G37*
G36*
G01*
X57844000Y-31897000D02*
X58094000Y-31897000D01*
G75*
G02*
X58219000Y-32022000I0J-125000D01*
G01*
X58219000Y-32672000D01*
G75*
G02*
X58094000Y-32797000I-125000J0D01*
G01*
X57844000Y-32797000D01*
G75*
G02*
X57719000Y-32672000I0J125000D01*
G01*
X57719000Y-32022000D01*
G75*
G02*
X57844000Y-31897000I125000J0D01*
G01*
G37*
G36*
G01*
X57844000Y-33497000D02*
X58094000Y-33497000D01*
G75*
G02*
X58219000Y-33622000I0J-125000D01*
G01*
X58219000Y-34272000D01*
G75*
G02*
X58094000Y-34397000I-125000J0D01*
G01*
X57844000Y-34397000D01*
G75*
G02*
X57719000Y-34272000I0J125000D01*
G01*
X57719000Y-33622000D01*
G75*
G02*
X57844000Y-33497000I125000J0D01*
G01*
G37*
G36*
G01*
X57044000Y-33497000D02*
X57294000Y-33497000D01*
G75*
G02*
X57419000Y-33622000I0J-125000D01*
G01*
X57419000Y-34272000D01*
G75*
G02*
X57294000Y-34397000I-125000J0D01*
G01*
X57044000Y-34397000D01*
G75*
G02*
X56919000Y-34272000I0J125000D01*
G01*
X56919000Y-33622000D01*
G75*
G02*
X57044000Y-33497000I125000J0D01*
G01*
G37*
G36*
G01*
X56244000Y-33497000D02*
X56494000Y-33497000D01*
G75*
G02*
X56619000Y-33622000I0J-125000D01*
G01*
X56619000Y-34272000D01*
G75*
G02*
X56494000Y-34397000I-125000J0D01*
G01*
X56244000Y-34397000D01*
G75*
G02*
X56119000Y-34272000I0J125000D01*
G01*
X56119000Y-33622000D01*
G75*
G02*
X56244000Y-33497000I125000J0D01*
G01*
G37*
G36*
G01*
X55444000Y-33497000D02*
X55694000Y-33497000D01*
G75*
G02*
X55819000Y-33622000I0J-125000D01*
G01*
X55819000Y-34272000D01*
G75*
G02*
X55694000Y-34397000I-125000J0D01*
G01*
X55444000Y-34397000D01*
G75*
G02*
X55319000Y-34272000I0J125000D01*
G01*
X55319000Y-33622000D01*
G75*
G02*
X55444000Y-33497000I125000J0D01*
G01*
G37*
G36*
G01*
X35373000Y-43365000D02*
X35823000Y-43365000D01*
G75*
G02*
X36048000Y-43590000I0J-225000D01*
G01*
X36048000Y-44040000D01*
G75*
G02*
X35823000Y-44265000I-225000J0D01*
G01*
X35373000Y-44265000D01*
G75*
G02*
X35148000Y-44040000I0J225000D01*
G01*
X35148000Y-43590000D01*
G75*
G02*
X35373000Y-43365000I225000J0D01*
G01*
G37*
G36*
G01*
X33773000Y-43365000D02*
X34223000Y-43365000D01*
G75*
G02*
X34448000Y-43590000I0J-225000D01*
G01*
X34448000Y-44040000D01*
G75*
G02*
X34223000Y-44265000I-225000J0D01*
G01*
X33773000Y-44265000D01*
G75*
G02*
X33548000Y-44040000I0J225000D01*
G01*
X33548000Y-43590000D01*
G75*
G02*
X33773000Y-43365000I225000J0D01*
G01*
G37*
G36*
G01*
X35898000Y-37489000D02*
X35598000Y-37489000D01*
G75*
G02*
X35448000Y-37339000I0J150000D01*
G01*
X35448000Y-36164000D01*
G75*
G02*
X35598000Y-36014000I150000J0D01*
G01*
X35898000Y-36014000D01*
G75*
G02*
X36048000Y-36164000I0J-150000D01*
G01*
X36048000Y-37339000D01*
G75*
G02*
X35898000Y-37489000I-150000J0D01*
G01*
G37*
G36*
G01*
X33998000Y-37489000D02*
X33698000Y-37489000D01*
G75*
G02*
X33548000Y-37339000I0J150000D01*
G01*
X33548000Y-36164000D01*
G75*
G02*
X33698000Y-36014000I150000J0D01*
G01*
X33998000Y-36014000D01*
G75*
G02*
X34148000Y-36164000I0J-150000D01*
G01*
X34148000Y-37339000D01*
G75*
G02*
X33998000Y-37489000I-150000J0D01*
G01*
G37*
G36*
G01*
X34948000Y-35614000D02*
X34648000Y-35614000D01*
G75*
G02*
X34498000Y-35464000I0J150000D01*
G01*
X34498000Y-34289000D01*
G75*
G02*
X34648000Y-34139000I150000J0D01*
G01*
X34948000Y-34139000D01*
G75*
G02*
X35098000Y-34289000I0J-150000D01*
G01*
X35098000Y-35464000D01*
G75*
G02*
X34948000Y-35614000I-150000J0D01*
G01*
G37*
G36*
G01*
X35373000Y-53144000D02*
X35823000Y-53144000D01*
G75*
G02*
X36048000Y-53369000I0J-225000D01*
G01*
X36048000Y-53819000D01*
G75*
G02*
X35823000Y-54044000I-225000J0D01*
G01*
X35373000Y-54044000D01*
G75*
G02*
X35148000Y-53819000I0J225000D01*
G01*
X35148000Y-53369000D01*
G75*
G02*
X35373000Y-53144000I225000J0D01*
G01*
G37*
G36*
G01*
X33773000Y-53144000D02*
X34223000Y-53144000D01*
G75*
G02*
X34448000Y-53369000I0J-225000D01*
G01*
X34448000Y-53819000D01*
G75*
G02*
X34223000Y-54044000I-225000J0D01*
G01*
X33773000Y-54044000D01*
G75*
G02*
X33548000Y-53819000I0J225000D01*
G01*
X33548000Y-53369000D01*
G75*
G02*
X33773000Y-53144000I225000J0D01*
G01*
G37*
G36*
G01*
X38033000Y-43249000D02*
X37583000Y-43249000D01*
G75*
G02*
X37358000Y-43024000I0J225000D01*
G01*
X37358000Y-42574000D01*
G75*
G02*
X37583000Y-42349000I225000J0D01*
G01*
X38033000Y-42349000D01*
G75*
G02*
X38258000Y-42574000I0J-225000D01*
G01*
X38258000Y-43024000D01*
G75*
G02*
X38033000Y-43249000I-225000J0D01*
G01*
G37*
G36*
G01*
X39633000Y-43249000D02*
X39183000Y-43249000D01*
G75*
G02*
X38958000Y-43024000I0J225000D01*
G01*
X38958000Y-42574000D01*
G75*
G02*
X39183000Y-42349000I225000J0D01*
G01*
X39633000Y-42349000D01*
G75*
G02*
X39858000Y-42574000I0J-225000D01*
G01*
X39858000Y-43024000D01*
G75*
G02*
X39633000Y-43249000I-225000J0D01*
G01*
G37*
G36*
G01*
X39183000Y-44508000D02*
X39633000Y-44508000D01*
G75*
G02*
X39858000Y-44733000I0J-225000D01*
G01*
X39858000Y-45183000D01*
G75*
G02*
X39633000Y-45408000I-225000J0D01*
G01*
X39183000Y-45408000D01*
G75*
G02*
X38958000Y-45183000I0J225000D01*
G01*
X38958000Y-44733000D01*
G75*
G02*
X39183000Y-44508000I225000J0D01*
G01*
G37*
G36*
G01*
X37583000Y-44508000D02*
X38033000Y-44508000D01*
G75*
G02*
X38258000Y-44733000I0J-225000D01*
G01*
X38258000Y-45183000D01*
G75*
G02*
X38033000Y-45408000I-225000J0D01*
G01*
X37583000Y-45408000D01*
G75*
G02*
X37358000Y-45183000I0J225000D01*
G01*
X37358000Y-44733000D01*
G75*
G02*
X37583000Y-44508000I225000J0D01*
G01*
G37*
G36*
G01*
X59632000Y-58360000D02*
X59632000Y-58810000D01*
G75*
G02*
X59407000Y-59035000I-225000J0D01*
G01*
X58957000Y-59035000D01*
G75*
G02*
X58732000Y-58810000I0J225000D01*
G01*
X58732000Y-58360000D01*
G75*
G02*
X58957000Y-58135000I225000J0D01*
G01*
X59407000Y-58135000D01*
G75*
G02*
X59632000Y-58360000I0J-225000D01*
G01*
G37*
G36*
G01*
X59632000Y-56760000D02*
X59632000Y-57210000D01*
G75*
G02*
X59407000Y-57435000I-225000J0D01*
G01*
X58957000Y-57435000D01*
G75*
G02*
X58732000Y-57210000I0J225000D01*
G01*
X58732000Y-56760000D01*
G75*
G02*
X58957000Y-56535000I225000J0D01*
G01*
X59407000Y-56535000D01*
G75*
G02*
X59632000Y-56760000I0J-225000D01*
G01*
G37*
G36*
G01*
X48962000Y-40190000D02*
X49412000Y-40190000D01*
G75*
G02*
X49637000Y-40415000I0J-225000D01*
G01*
X49637000Y-40865000D01*
G75*
G02*
X49412000Y-41090000I-225000J0D01*
G01*
X48962000Y-41090000D01*
G75*
G02*
X48737000Y-40865000I0J225000D01*
G01*
X48737000Y-40415000D01*
G75*
G02*
X48962000Y-40190000I225000J0D01*
G01*
G37*
G36*
G01*
X47362000Y-40190000D02*
X47812000Y-40190000D01*
G75*
G02*
X48037000Y-40415000I0J-225000D01*
G01*
X48037000Y-40865000D01*
G75*
G02*
X47812000Y-41090000I-225000J0D01*
G01*
X47362000Y-41090000D01*
G75*
G02*
X47137000Y-40865000I0J225000D01*
G01*
X47137000Y-40415000D01*
G75*
G02*
X47362000Y-40190000I225000J0D01*
G01*
G37*
G36*
G01*
X25712000Y-48282000D02*
X25712000Y-47832000D01*
G75*
G02*
X25937000Y-47607000I225000J0D01*
G01*
X26387000Y-47607000D01*
G75*
G02*
X26612000Y-47832000I0J-225000D01*
G01*
X26612000Y-48282000D01*
G75*
G02*
X26387000Y-48507000I-225000J0D01*
G01*
X25937000Y-48507000D01*
G75*
G02*
X25712000Y-48282000I0J225000D01*
G01*
G37*
G36*
G01*
X25712000Y-49882000D02*
X25712000Y-49432000D01*
G75*
G02*
X25937000Y-49207000I225000J0D01*
G01*
X26387000Y-49207000D01*
G75*
G02*
X26612000Y-49432000I0J-225000D01*
G01*
X26612000Y-49882000D01*
G75*
G02*
X26387000Y-50107000I-225000J0D01*
G01*
X25937000Y-50107000D01*
G75*
G02*
X25712000Y-49882000I0J225000D01*
G01*
G37*
G36*
G01*
X59632000Y-55185000D02*
X59632000Y-55635000D01*
G75*
G02*
X59407000Y-55860000I-225000J0D01*
G01*
X58957000Y-55860000D01*
G75*
G02*
X58732000Y-55635000I0J225000D01*
G01*
X58732000Y-55185000D01*
G75*
G02*
X58957000Y-54960000I225000J0D01*
G01*
X59407000Y-54960000D01*
G75*
G02*
X59632000Y-55185000I0J-225000D01*
G01*
G37*
G36*
G01*
X59632000Y-53585000D02*
X59632000Y-54035000D01*
G75*
G02*
X59407000Y-54260000I-225000J0D01*
G01*
X58957000Y-54260000D01*
G75*
G02*
X58732000Y-54035000I0J225000D01*
G01*
X58732000Y-53585000D01*
G75*
G02*
X58957000Y-53360000I225000J0D01*
G01*
X59407000Y-53360000D01*
G75*
G02*
X59632000Y-53585000I0J-225000D01*
G01*
G37*
G36*
G01*
X35373000Y-41841000D02*
X35823000Y-41841000D01*
G75*
G02*
X36048000Y-42066000I0J-225000D01*
G01*
X36048000Y-42516000D01*
G75*
G02*
X35823000Y-42741000I-225000J0D01*
G01*
X35373000Y-42741000D01*
G75*
G02*
X35148000Y-42516000I0J225000D01*
G01*
X35148000Y-42066000D01*
G75*
G02*
X35373000Y-41841000I225000J0D01*
G01*
G37*
G36*
G01*
X33773000Y-41841000D02*
X34223000Y-41841000D01*
G75*
G02*
X34448000Y-42066000I0J-225000D01*
G01*
X34448000Y-42516000D01*
G75*
G02*
X34223000Y-42741000I-225000J0D01*
G01*
X33773000Y-42741000D01*
G75*
G02*
X33548000Y-42516000I0J225000D01*
G01*
X33548000Y-42066000D01*
G75*
G02*
X33773000Y-41841000I225000J0D01*
G01*
G37*
G36*
G01*
X59632000Y-64710000D02*
X59632000Y-65160000D01*
G75*
G02*
X59407000Y-65385000I-225000J0D01*
G01*
X58957000Y-65385000D01*
G75*
G02*
X58732000Y-65160000I0J225000D01*
G01*
X58732000Y-64710000D01*
G75*
G02*
X58957000Y-64485000I225000J0D01*
G01*
X59407000Y-64485000D01*
G75*
G02*
X59632000Y-64710000I0J-225000D01*
G01*
G37*
G36*
G01*
X59632000Y-63110000D02*
X59632000Y-63560000D01*
G75*
G02*
X59407000Y-63785000I-225000J0D01*
G01*
X58957000Y-63785000D01*
G75*
G02*
X58732000Y-63560000I0J225000D01*
G01*
X58732000Y-63110000D01*
G75*
G02*
X58957000Y-62885000I225000J0D01*
G01*
X59407000Y-62885000D01*
G75*
G02*
X59632000Y-63110000I0J-225000D01*
G01*
G37*
G36*
G01*
X58478000Y-49082000D02*
X58478000Y-48632000D01*
G75*
G02*
X58703000Y-48407000I225000J0D01*
G01*
X59153000Y-48407000D01*
G75*
G02*
X59378000Y-48632000I0J-225000D01*
G01*
X59378000Y-49082000D01*
G75*
G02*
X59153000Y-49307000I-225000J0D01*
G01*
X58703000Y-49307000D01*
G75*
G02*
X58478000Y-49082000I0J225000D01*
G01*
G37*
G36*
G01*
X58478000Y-50682000D02*
X58478000Y-50232000D01*
G75*
G02*
X58703000Y-50007000I225000J0D01*
G01*
X59153000Y-50007000D01*
G75*
G02*
X59378000Y-50232000I0J-225000D01*
G01*
X59378000Y-50682000D01*
G75*
G02*
X59153000Y-50907000I-225000J0D01*
G01*
X58703000Y-50907000D01*
G75*
G02*
X58478000Y-50682000I0J225000D01*
G01*
G37*
G36*
G01*
X75886000Y-34602000D02*
X76336000Y-34602000D01*
G75*
G02*
X76561000Y-34827000I0J-225000D01*
G01*
X76561000Y-35277000D01*
G75*
G02*
X76336000Y-35502000I-225000J0D01*
G01*
X75886000Y-35502000D01*
G75*
G02*
X75661000Y-35277000I0J225000D01*
G01*
X75661000Y-34827000D01*
G75*
G02*
X75886000Y-34602000I225000J0D01*
G01*
G37*
G36*
G01*
X74286000Y-34602000D02*
X74736000Y-34602000D01*
G75*
G02*
X74961000Y-34827000I0J-225000D01*
G01*
X74961000Y-35277000D01*
G75*
G02*
X74736000Y-35502000I-225000J0D01*
G01*
X74286000Y-35502000D01*
G75*
G02*
X74061000Y-35277000I0J225000D01*
G01*
X74061000Y-34827000D01*
G75*
G02*
X74286000Y-34602000I225000J0D01*
G01*
G37*
G36*
G01*
X38033000Y-54044000D02*
X37583000Y-54044000D01*
G75*
G02*
X37358000Y-53819000I0J225000D01*
G01*
X37358000Y-53369000D01*
G75*
G02*
X37583000Y-53144000I225000J0D01*
G01*
X38033000Y-53144000D01*
G75*
G02*
X38258000Y-53369000I0J-225000D01*
G01*
X38258000Y-53819000D01*
G75*
G02*
X38033000Y-54044000I-225000J0D01*
G01*
G37*
G36*
G01*
X39633000Y-54044000D02*
X39183000Y-54044000D01*
G75*
G02*
X38958000Y-53819000I0J225000D01*
G01*
X38958000Y-53369000D01*
G75*
G02*
X39183000Y-53144000I225000J0D01*
G01*
X39633000Y-53144000D01*
G75*
G02*
X39858000Y-53369000I0J-225000D01*
G01*
X39858000Y-53819000D01*
G75*
G02*
X39633000Y-54044000I-225000J0D01*
G01*
G37*
G36*
G01*
X44726000Y-50615000D02*
X44276000Y-50615000D01*
G75*
G02*
X44051000Y-50390000I0J225000D01*
G01*
X44051000Y-49940000D01*
G75*
G02*
X44276000Y-49715000I225000J0D01*
G01*
X44726000Y-49715000D01*
G75*
G02*
X44951000Y-49940000I0J-225000D01*
G01*
X44951000Y-50390000D01*
G75*
G02*
X44726000Y-50615000I-225000J0D01*
G01*
G37*
G36*
G01*
X46326000Y-50615000D02*
X45876000Y-50615000D01*
G75*
G02*
X45651000Y-50390000I0J225000D01*
G01*
X45651000Y-49940000D01*
G75*
G02*
X45876000Y-49715000I225000J0D01*
G01*
X46326000Y-49715000D01*
G75*
G02*
X46551000Y-49940000I0J-225000D01*
G01*
X46551000Y-50390000D01*
G75*
G02*
X46326000Y-50615000I-225000J0D01*
G01*
G37*
G36*
G01*
X58732000Y-36890000D02*
X58732000Y-36440000D01*
G75*
G02*
X58957000Y-36215000I225000J0D01*
G01*
X59407000Y-36215000D01*
G75*
G02*
X59632000Y-36440000I0J-225000D01*
G01*
X59632000Y-36890000D01*
G75*
G02*
X59407000Y-37115000I-225000J0D01*
G01*
X58957000Y-37115000D01*
G75*
G02*
X58732000Y-36890000I0J225000D01*
G01*
G37*
G36*
G01*
X58732000Y-38490000D02*
X58732000Y-38040000D01*
G75*
G02*
X58957000Y-37815000I225000J0D01*
G01*
X59407000Y-37815000D01*
G75*
G02*
X59632000Y-38040000I0J-225000D01*
G01*
X59632000Y-38490000D01*
G75*
G02*
X59407000Y-38715000I-225000J0D01*
G01*
X58957000Y-38715000D01*
G75*
G02*
X58732000Y-38490000I0J225000D01*
G01*
G37*
G36*
G01*
X41979000Y-42828000D02*
X41979000Y-43278000D01*
G75*
G02*
X41754000Y-43503000I-225000J0D01*
G01*
X41304000Y-43503000D01*
G75*
G02*
X41079000Y-43278000I0J225000D01*
G01*
X41079000Y-42828000D01*
G75*
G02*
X41304000Y-42603000I225000J0D01*
G01*
X41754000Y-42603000D01*
G75*
G02*
X41979000Y-42828000I0J-225000D01*
G01*
G37*
G36*
G01*
X41979000Y-41228000D02*
X41979000Y-41678000D01*
G75*
G02*
X41754000Y-41903000I-225000J0D01*
G01*
X41304000Y-41903000D01*
G75*
G02*
X41079000Y-41678000I0J225000D01*
G01*
X41079000Y-41228000D01*
G75*
G02*
X41304000Y-41003000I225000J0D01*
G01*
X41754000Y-41003000D01*
G75*
G02*
X41979000Y-41228000I0J-225000D01*
G01*
G37*
G36*
G01*
X68649000Y-43120000D02*
X68649000Y-43570000D01*
G75*
G02*
X68424000Y-43795000I-225000J0D01*
G01*
X67974000Y-43795000D01*
G75*
G02*
X67749000Y-43570000I0J225000D01*
G01*
X67749000Y-43120000D01*
G75*
G02*
X67974000Y-42895000I225000J0D01*
G01*
X68424000Y-42895000D01*
G75*
G02*
X68649000Y-43120000I0J-225000D01*
G01*
G37*
G36*
G01*
X68649000Y-41520000D02*
X68649000Y-41970000D01*
G75*
G02*
X68424000Y-42195000I-225000J0D01*
G01*
X67974000Y-42195000D01*
G75*
G02*
X67749000Y-41970000I0J225000D01*
G01*
X67749000Y-41520000D01*
G75*
G02*
X67974000Y-41295000I225000J0D01*
G01*
X68424000Y-41295000D01*
G75*
G02*
X68649000Y-41520000I0J-225000D01*
G01*
G37*
G36*
G01*
X59632000Y-61535000D02*
X59632000Y-61985000D01*
G75*
G02*
X59407000Y-62210000I-225000J0D01*
G01*
X58957000Y-62210000D01*
G75*
G02*
X58732000Y-61985000I0J225000D01*
G01*
X58732000Y-61535000D01*
G75*
G02*
X58957000Y-61310000I225000J0D01*
G01*
X59407000Y-61310000D01*
G75*
G02*
X59632000Y-61535000I0J-225000D01*
G01*
G37*
G36*
G01*
X59632000Y-59935000D02*
X59632000Y-60385000D01*
G75*
G02*
X59407000Y-60610000I-225000J0D01*
G01*
X58957000Y-60610000D01*
G75*
G02*
X58732000Y-60385000I0J225000D01*
G01*
X58732000Y-59935000D01*
G75*
G02*
X58957000Y-59710000I225000J0D01*
G01*
X59407000Y-59710000D01*
G75*
G02*
X59632000Y-59935000I0J-225000D01*
G01*
G37*
G36*
G01*
X63440000Y-58859000D02*
X63890000Y-58859000D01*
G75*
G02*
X64115000Y-59084000I0J-225000D01*
G01*
X64115000Y-59534000D01*
G75*
G02*
X63890000Y-59759000I-225000J0D01*
G01*
X63440000Y-59759000D01*
G75*
G02*
X63215000Y-59534000I0J225000D01*
G01*
X63215000Y-59084000D01*
G75*
G02*
X63440000Y-58859000I225000J0D01*
G01*
G37*
G36*
G01*
X61840000Y-58859000D02*
X62290000Y-58859000D01*
G75*
G02*
X62515000Y-59084000I0J-225000D01*
G01*
X62515000Y-59534000D01*
G75*
G02*
X62290000Y-59759000I-225000J0D01*
G01*
X61840000Y-59759000D01*
G75*
G02*
X61615000Y-59534000I0J225000D01*
G01*
X61615000Y-59084000D01*
G75*
G02*
X61840000Y-58859000I225000J0D01*
G01*
G37*
G36*
G01*
X66107000Y-39555000D02*
X66557000Y-39555000D01*
G75*
G02*
X66782000Y-39780000I0J-225000D01*
G01*
X66782000Y-40230000D01*
G75*
G02*
X66557000Y-40455000I-225000J0D01*
G01*
X66107000Y-40455000D01*
G75*
G02*
X65882000Y-40230000I0J225000D01*
G01*
X65882000Y-39780000D01*
G75*
G02*
X66107000Y-39555000I225000J0D01*
G01*
G37*
G36*
G01*
X64507000Y-39555000D02*
X64957000Y-39555000D01*
G75*
G02*
X65182000Y-39780000I0J-225000D01*
G01*
X65182000Y-40230000D01*
G75*
G02*
X64957000Y-40455000I-225000J0D01*
G01*
X64507000Y-40455000D01*
G75*
G02*
X64282000Y-40230000I0J225000D01*
G01*
X64282000Y-39780000D01*
G75*
G02*
X64507000Y-39555000I225000J0D01*
G01*
G37*
G36*
G01*
X23174000Y-46424000D02*
X22724000Y-46424000D01*
G75*
G02*
X22499000Y-46199000I0J225000D01*
G01*
X22499000Y-45749000D01*
G75*
G02*
X22724000Y-45524000I225000J0D01*
G01*
X23174000Y-45524000D01*
G75*
G02*
X23399000Y-45749000I0J-225000D01*
G01*
X23399000Y-46199000D01*
G75*
G02*
X23174000Y-46424000I-225000J0D01*
G01*
G37*
G36*
G01*
X24774000Y-46424000D02*
X24324000Y-46424000D01*
G75*
G02*
X24099000Y-46199000I0J225000D01*
G01*
X24099000Y-45749000D01*
G75*
G02*
X24324000Y-45524000I225000J0D01*
G01*
X24774000Y-45524000D01*
G75*
G02*
X24999000Y-45749000I0J-225000D01*
G01*
X24999000Y-46199000D01*
G75*
G02*
X24774000Y-46424000I-225000J0D01*
G01*
G37*
G36*
G01*
X35373000Y-47937000D02*
X35823000Y-47937000D01*
G75*
G02*
X36048000Y-48162000I0J-225000D01*
G01*
X36048000Y-48612000D01*
G75*
G02*
X35823000Y-48837000I-225000J0D01*
G01*
X35373000Y-48837000D01*
G75*
G02*
X35148000Y-48612000I0J225000D01*
G01*
X35148000Y-48162000D01*
G75*
G02*
X35373000Y-47937000I225000J0D01*
G01*
G37*
G36*
G01*
X33773000Y-47937000D02*
X34223000Y-47937000D01*
G75*
G02*
X34448000Y-48162000I0J-225000D01*
G01*
X34448000Y-48612000D01*
G75*
G02*
X34223000Y-48837000I-225000J0D01*
G01*
X33773000Y-48837000D01*
G75*
G02*
X33548000Y-48612000I0J225000D01*
G01*
X33548000Y-48162000D01*
G75*
G02*
X33773000Y-47937000I225000J0D01*
G01*
G37*
G36*
G01*
X75886000Y-37396000D02*
X76336000Y-37396000D01*
G75*
G02*
X76561000Y-37621000I0J-225000D01*
G01*
X76561000Y-38071000D01*
G75*
G02*
X76336000Y-38296000I-225000J0D01*
G01*
X75886000Y-38296000D01*
G75*
G02*
X75661000Y-38071000I0J225000D01*
G01*
X75661000Y-37621000D01*
G75*
G02*
X75886000Y-37396000I225000J0D01*
G01*
G37*
G36*
G01*
X74286000Y-37396000D02*
X74736000Y-37396000D01*
G75*
G02*
X74961000Y-37621000I0J-225000D01*
G01*
X74961000Y-38071000D01*
G75*
G02*
X74736000Y-38296000I-225000J0D01*
G01*
X74286000Y-38296000D01*
G75*
G02*
X74061000Y-38071000I0J225000D01*
G01*
X74061000Y-37621000D01*
G75*
G02*
X74286000Y-37396000I225000J0D01*
G01*
G37*
G36*
G01*
X28506000Y-44764000D02*
X28506000Y-44314000D01*
G75*
G02*
X28731000Y-44089000I225000J0D01*
G01*
X29181000Y-44089000D01*
G75*
G02*
X29406000Y-44314000I0J-225000D01*
G01*
X29406000Y-44764000D01*
G75*
G02*
X29181000Y-44989000I-225000J0D01*
G01*
X28731000Y-44989000D01*
G75*
G02*
X28506000Y-44764000I0J225000D01*
G01*
G37*
G36*
G01*
X28506000Y-46364000D02*
X28506000Y-45914000D01*
G75*
G02*
X28731000Y-45689000I225000J0D01*
G01*
X29181000Y-45689000D01*
G75*
G02*
X29406000Y-45914000I0J-225000D01*
G01*
X29406000Y-46364000D01*
G75*
G02*
X29181000Y-46589000I-225000J0D01*
G01*
X28731000Y-46589000D01*
G75*
G02*
X28506000Y-46364000I0J225000D01*
G01*
G37*
G36*
G01*
X64066000Y-44002000D02*
X64066000Y-43552000D01*
G75*
G02*
X64291000Y-43327000I225000J0D01*
G01*
X64741000Y-43327000D01*
G75*
G02*
X64966000Y-43552000I0J-225000D01*
G01*
X64966000Y-44002000D01*
G75*
G02*
X64741000Y-44227000I-225000J0D01*
G01*
X64291000Y-44227000D01*
G75*
G02*
X64066000Y-44002000I0J225000D01*
G01*
G37*
G36*
G01*
X64066000Y-45602000D02*
X64066000Y-45152000D01*
G75*
G02*
X64291000Y-44927000I225000J0D01*
G01*
X64741000Y-44927000D01*
G75*
G02*
X64966000Y-45152000I0J-225000D01*
G01*
X64966000Y-45602000D01*
G75*
G02*
X64741000Y-45827000I-225000J0D01*
G01*
X64291000Y-45827000D01*
G75*
G02*
X64066000Y-45602000I0J225000D01*
G01*
G37*
G36*
G01*
X35373000Y-44889000D02*
X35823000Y-44889000D01*
G75*
G02*
X36048000Y-45114000I0J-225000D01*
G01*
X36048000Y-45564000D01*
G75*
G02*
X35823000Y-45789000I-225000J0D01*
G01*
X35373000Y-45789000D01*
G75*
G02*
X35148000Y-45564000I0J225000D01*
G01*
X35148000Y-45114000D01*
G75*
G02*
X35373000Y-44889000I225000J0D01*
G01*
G37*
G36*
G01*
X33773000Y-44889000D02*
X34223000Y-44889000D01*
G75*
G02*
X34448000Y-45114000I0J-225000D01*
G01*
X34448000Y-45564000D01*
G75*
G02*
X34223000Y-45789000I-225000J0D01*
G01*
X33773000Y-45789000D01*
G75*
G02*
X33548000Y-45564000I0J225000D01*
G01*
X33548000Y-45114000D01*
G75*
G02*
X33773000Y-44889000I225000J0D01*
G01*
G37*
G36*
G01*
X24722000Y-50695000D02*
X24422000Y-50695000D01*
G75*
G02*
X24272000Y-50545000I0J150000D01*
G01*
X24272000Y-49520000D01*
G75*
G02*
X24422000Y-49370000I150000J0D01*
G01*
X24722000Y-49370000D01*
G75*
G02*
X24872000Y-49520000I0J-150000D01*
G01*
X24872000Y-50545000D01*
G75*
G02*
X24722000Y-50695000I-150000J0D01*
G01*
G37*
G36*
G01*
X23772000Y-50695000D02*
X23472000Y-50695000D01*
G75*
G02*
X23322000Y-50545000I0J150000D01*
G01*
X23322000Y-49520000D01*
G75*
G02*
X23472000Y-49370000I150000J0D01*
G01*
X23772000Y-49370000D01*
G75*
G02*
X23922000Y-49520000I0J-150000D01*
G01*
X23922000Y-50545000D01*
G75*
G02*
X23772000Y-50695000I-150000J0D01*
G01*
G37*
G36*
G01*
X22822000Y-50695000D02*
X22522000Y-50695000D01*
G75*
G02*
X22372000Y-50545000I0J150000D01*
G01*
X22372000Y-49520000D01*
G75*
G02*
X22522000Y-49370000I150000J0D01*
G01*
X22822000Y-49370000D01*
G75*
G02*
X22972000Y-49520000I0J-150000D01*
G01*
X22972000Y-50545000D01*
G75*
G02*
X22822000Y-50695000I-150000J0D01*
G01*
G37*
G36*
G01*
X22822000Y-48420000D02*
X22522000Y-48420000D01*
G75*
G02*
X22372000Y-48270000I0J150000D01*
G01*
X22372000Y-47245000D01*
G75*
G02*
X22522000Y-47095000I150000J0D01*
G01*
X22822000Y-47095000D01*
G75*
G02*
X22972000Y-47245000I0J-150000D01*
G01*
X22972000Y-48270000D01*
G75*
G02*
X22822000Y-48420000I-150000J0D01*
G01*
G37*
G36*
G01*
X24722000Y-48420000D02*
X24422000Y-48420000D01*
G75*
G02*
X24272000Y-48270000I0J150000D01*
G01*
X24272000Y-47245000D01*
G75*
G02*
X24422000Y-47095000I150000J0D01*
G01*
X24722000Y-47095000D01*
G75*
G02*
X24872000Y-47245000I0J-150000D01*
G01*
X24872000Y-48270000D01*
G75*
G02*
X24722000Y-48420000I-150000J0D01*
G01*
G37*
G36*
G01*
X48699000Y-48955000D02*
X48699000Y-48505000D01*
G75*
G02*
X48924000Y-48280000I225000J0D01*
G01*
X49374000Y-48280000D01*
G75*
G02*
X49599000Y-48505000I0J-225000D01*
G01*
X49599000Y-48955000D01*
G75*
G02*
X49374000Y-49180000I-225000J0D01*
G01*
X48924000Y-49180000D01*
G75*
G02*
X48699000Y-48955000I0J225000D01*
G01*
G37*
G36*
G01*
X48699000Y-50555000D02*
X48699000Y-50105000D01*
G75*
G02*
X48924000Y-49880000I225000J0D01*
G01*
X49374000Y-49880000D01*
G75*
G02*
X49599000Y-50105000I0J-225000D01*
G01*
X49599000Y-50555000D01*
G75*
G02*
X49374000Y-50780000I-225000J0D01*
G01*
X48924000Y-50780000D01*
G75*
G02*
X48699000Y-50555000I0J225000D01*
G01*
G37*
G36*
G01*
X55557000Y-49082000D02*
X55557000Y-48632000D01*
G75*
G02*
X55782000Y-48407000I225000J0D01*
G01*
X56232000Y-48407000D01*
G75*
G02*
X56457000Y-48632000I0J-225000D01*
G01*
X56457000Y-49082000D01*
G75*
G02*
X56232000Y-49307000I-225000J0D01*
G01*
X55782000Y-49307000D01*
G75*
G02*
X55557000Y-49082000I0J225000D01*
G01*
G37*
G36*
G01*
X55557000Y-50682000D02*
X55557000Y-50232000D01*
G75*
G02*
X55782000Y-50007000I225000J0D01*
G01*
X56232000Y-50007000D01*
G75*
G02*
X56457000Y-50232000I0J-225000D01*
G01*
X56457000Y-50682000D01*
G75*
G02*
X56232000Y-50907000I-225000J0D01*
G01*
X55782000Y-50907000D01*
G75*
G02*
X55557000Y-50682000I0J225000D01*
G01*
G37*
G36*
G01*
X62172000Y-64710000D02*
X62172000Y-65160000D01*
G75*
G02*
X61947000Y-65385000I-225000J0D01*
G01*
X61497000Y-65385000D01*
G75*
G02*
X61272000Y-65160000I0J225000D01*
G01*
X61272000Y-64710000D01*
G75*
G02*
X61497000Y-64485000I225000J0D01*
G01*
X61947000Y-64485000D01*
G75*
G02*
X62172000Y-64710000I0J-225000D01*
G01*
G37*
G36*
G01*
X62172000Y-63110000D02*
X62172000Y-63560000D01*
G75*
G02*
X61947000Y-63785000I-225000J0D01*
G01*
X61497000Y-63785000D01*
G75*
G02*
X61272000Y-63560000I0J225000D01*
G01*
X61272000Y-63110000D01*
G75*
G02*
X61497000Y-62885000I225000J0D01*
G01*
X61947000Y-62885000D01*
G75*
G02*
X62172000Y-63110000I0J-225000D01*
G01*
G37*
G36*
G01*
X70173000Y-44390000D02*
X70173000Y-44840000D01*
G75*
G02*
X69948000Y-45065000I-225000J0D01*
G01*
X69498000Y-45065000D01*
G75*
G02*
X69273000Y-44840000I0J225000D01*
G01*
X69273000Y-44390000D01*
G75*
G02*
X69498000Y-44165000I225000J0D01*
G01*
X69948000Y-44165000D01*
G75*
G02*
X70173000Y-44390000I0J-225000D01*
G01*
G37*
G36*
G01*
X70173000Y-42790000D02*
X70173000Y-43240000D01*
G75*
G02*
X69948000Y-43465000I-225000J0D01*
G01*
X69498000Y-43465000D01*
G75*
G02*
X69273000Y-43240000I0J225000D01*
G01*
X69273000Y-42790000D01*
G75*
G02*
X69498000Y-42565000I225000J0D01*
G01*
X69948000Y-42565000D01*
G75*
G02*
X70173000Y-42790000I0J-225000D01*
G01*
G37*
G36*
G01*
X35373000Y-46413000D02*
X35823000Y-46413000D01*
G75*
G02*
X36048000Y-46638000I0J-225000D01*
G01*
X36048000Y-47088000D01*
G75*
G02*
X35823000Y-47313000I-225000J0D01*
G01*
X35373000Y-47313000D01*
G75*
G02*
X35148000Y-47088000I0J225000D01*
G01*
X35148000Y-46638000D01*
G75*
G02*
X35373000Y-46413000I225000J0D01*
G01*
G37*
G36*
G01*
X33773000Y-46413000D02*
X34223000Y-46413000D01*
G75*
G02*
X34448000Y-46638000I0J-225000D01*
G01*
X34448000Y-47088000D01*
G75*
G02*
X34223000Y-47313000I-225000J0D01*
G01*
X33773000Y-47313000D01*
G75*
G02*
X33548000Y-47088000I0J225000D01*
G01*
X33548000Y-46638000D01*
G75*
G02*
X33773000Y-46413000I225000J0D01*
G01*
G37*
G36*
G01*
X46794000Y-36636000D02*
X46794000Y-36186000D01*
G75*
G02*
X47019000Y-35961000I225000J0D01*
G01*
X47469000Y-35961000D01*
G75*
G02*
X47694000Y-36186000I0J-225000D01*
G01*
X47694000Y-36636000D01*
G75*
G02*
X47469000Y-36861000I-225000J0D01*
G01*
X47019000Y-36861000D01*
G75*
G02*
X46794000Y-36636000I0J225000D01*
G01*
G37*
G36*
G01*
X46794000Y-38236000D02*
X46794000Y-37786000D01*
G75*
G02*
X47019000Y-37561000I225000J0D01*
G01*
X47469000Y-37561000D01*
G75*
G02*
X47694000Y-37786000I0J-225000D01*
G01*
X47694000Y-38236000D01*
G75*
G02*
X47469000Y-38461000I-225000J0D01*
G01*
X47019000Y-38461000D01*
G75*
G02*
X46794000Y-38236000I0J225000D01*
G01*
G37*
G36*
G01*
X57210000Y-46297000D02*
X56760000Y-46297000D01*
G75*
G02*
X56535000Y-46072000I0J225000D01*
G01*
X56535000Y-45622000D01*
G75*
G02*
X56760000Y-45397000I225000J0D01*
G01*
X57210000Y-45397000D01*
G75*
G02*
X57435000Y-45622000I0J-225000D01*
G01*
X57435000Y-46072000D01*
G75*
G02*
X57210000Y-46297000I-225000J0D01*
G01*
G37*
G36*
G01*
X58810000Y-46297000D02*
X58360000Y-46297000D01*
G75*
G02*
X58135000Y-46072000I0J225000D01*
G01*
X58135000Y-45622000D01*
G75*
G02*
X58360000Y-45397000I225000J0D01*
G01*
X58810000Y-45397000D01*
G75*
G02*
X59035000Y-45622000I0J-225000D01*
G01*
X59035000Y-46072000D01*
G75*
G02*
X58810000Y-46297000I-225000J0D01*
G01*
G37*
G36*
G01*
X38033000Y-50361000D02*
X37583000Y-50361000D01*
G75*
G02*
X37358000Y-50136000I0J225000D01*
G01*
X37358000Y-49686000D01*
G75*
G02*
X37583000Y-49461000I225000J0D01*
G01*
X38033000Y-49461000D01*
G75*
G02*
X38258000Y-49686000I0J-225000D01*
G01*
X38258000Y-50136000D01*
G75*
G02*
X38033000Y-50361000I-225000J0D01*
G01*
G37*
G36*
G01*
X39633000Y-50361000D02*
X39183000Y-50361000D01*
G75*
G02*
X38958000Y-50136000I0J225000D01*
G01*
X38958000Y-49686000D01*
G75*
G02*
X39183000Y-49461000I225000J0D01*
G01*
X39633000Y-49461000D01*
G75*
G02*
X39858000Y-49686000I0J-225000D01*
G01*
X39858000Y-50136000D01*
G75*
G02*
X39633000Y-50361000I-225000J0D01*
G01*
G37*
G36*
G01*
X42231000Y-44508000D02*
X42681000Y-44508000D01*
G75*
G02*
X42906000Y-44733000I0J-225000D01*
G01*
X42906000Y-45183000D01*
G75*
G02*
X42681000Y-45408000I-225000J0D01*
G01*
X42231000Y-45408000D01*
G75*
G02*
X42006000Y-45183000I0J225000D01*
G01*
X42006000Y-44733000D01*
G75*
G02*
X42231000Y-44508000I225000J0D01*
G01*
G37*
G36*
G01*
X40631000Y-44508000D02*
X41081000Y-44508000D01*
G75*
G02*
X41306000Y-44733000I0J-225000D01*
G01*
X41306000Y-45183000D01*
G75*
G02*
X41081000Y-45408000I-225000J0D01*
G01*
X40631000Y-45408000D01*
G75*
G02*
X40406000Y-45183000I0J225000D01*
G01*
X40406000Y-44733000D01*
G75*
G02*
X40631000Y-44508000I225000J0D01*
G01*
G37*
G36*
G01*
X61272000Y-54035000D02*
X61272000Y-53585000D01*
G75*
G02*
X61497000Y-53360000I225000J0D01*
G01*
X61947000Y-53360000D01*
G75*
G02*
X62172000Y-53585000I0J-225000D01*
G01*
X62172000Y-54035000D01*
G75*
G02*
X61947000Y-54260000I-225000J0D01*
G01*
X61497000Y-54260000D01*
G75*
G02*
X61272000Y-54035000I0J225000D01*
G01*
G37*
G36*
G01*
X61272000Y-55635000D02*
X61272000Y-55185000D01*
G75*
G02*
X61497000Y-54960000I225000J0D01*
G01*
X61947000Y-54960000D01*
G75*
G02*
X62172000Y-55185000I0J-225000D01*
G01*
X62172000Y-55635000D01*
G75*
G02*
X61947000Y-55860000I-225000J0D01*
G01*
X61497000Y-55860000D01*
G75*
G02*
X61272000Y-55635000I0J225000D01*
G01*
G37*
G36*
G01*
X25596000Y-59884000D02*
X25596000Y-60334000D01*
G75*
G02*
X25371000Y-60559000I-225000J0D01*
G01*
X24921000Y-60559000D01*
G75*
G02*
X24696000Y-60334000I0J225000D01*
G01*
X24696000Y-59884000D01*
G75*
G02*
X24921000Y-59659000I225000J0D01*
G01*
X25371000Y-59659000D01*
G75*
G02*
X25596000Y-59884000I0J-225000D01*
G01*
G37*
G36*
G01*
X25596000Y-58284000D02*
X25596000Y-58734000D01*
G75*
G02*
X25371000Y-58959000I-225000J0D01*
G01*
X24921000Y-58959000D01*
G75*
G02*
X24696000Y-58734000I0J225000D01*
G01*
X24696000Y-58284000D01*
G75*
G02*
X24921000Y-58059000I225000J0D01*
G01*
X25371000Y-58059000D01*
G75*
G02*
X25596000Y-58284000I0J-225000D01*
G01*
G37*
G36*
G01*
X39183000Y-47937000D02*
X39633000Y-47937000D01*
G75*
G02*
X39858000Y-48162000I0J-225000D01*
G01*
X39858000Y-48612000D01*
G75*
G02*
X39633000Y-48837000I-225000J0D01*
G01*
X39183000Y-48837000D01*
G75*
G02*
X38958000Y-48612000I0J225000D01*
G01*
X38958000Y-48162000D01*
G75*
G02*
X39183000Y-47937000I225000J0D01*
G01*
G37*
G36*
G01*
X37583000Y-47937000D02*
X38033000Y-47937000D01*
G75*
G02*
X38258000Y-48162000I0J-225000D01*
G01*
X38258000Y-48612000D01*
G75*
G02*
X38033000Y-48837000I-225000J0D01*
G01*
X37583000Y-48837000D01*
G75*
G02*
X37358000Y-48612000I0J225000D01*
G01*
X37358000Y-48162000D01*
G75*
G02*
X37583000Y-47937000I225000J0D01*
G01*
G37*
G36*
G01*
X29406000Y-52391000D02*
X29406000Y-52841000D01*
G75*
G02*
X29181000Y-53066000I-225000J0D01*
G01*
X28731000Y-53066000D01*
G75*
G02*
X28506000Y-52841000I0J225000D01*
G01*
X28506000Y-52391000D01*
G75*
G02*
X28731000Y-52166000I225000J0D01*
G01*
X29181000Y-52166000D01*
G75*
G02*
X29406000Y-52391000I0J-225000D01*
G01*
G37*
G36*
G01*
X29406000Y-50791000D02*
X29406000Y-51241000D01*
G75*
G02*
X29181000Y-51466000I-225000J0D01*
G01*
X28731000Y-51466000D01*
G75*
G02*
X28506000Y-51241000I0J225000D01*
G01*
X28506000Y-50791000D01*
G75*
G02*
X28731000Y-50566000I225000J0D01*
G01*
X29181000Y-50566000D01*
G75*
G02*
X29406000Y-50791000I0J-225000D01*
G01*
G37*
M02*
