M48
; DRILL file {KiCad 9.0.4-1.fc42app3} date 2025-10-09T13:02:21+0200
; FORMAT={3:3/ absolute / metric / suppress leading zeros}
; #@! TF.CreationDate,2025-10-09T13:02:21+02:00
; #@! TF.GenerationSoftware,Kicad,Pcbnew,9.0.4-1.fc42app3
; #@! TF.FileFunction,Plated,1,2,PTH
FMAT,2
METRIC,TZ
; #@! TA.AperFunction,Plated,PTH,ViaDrill
T1C0.330
; #@! TA.AperFunction,Plated,PTH,ComponentDrill
T2C0.330
; #@! TA.AperFunction,Plated,PTH,ComponentDrill
T3C0.600
; #@! TA.AperFunction,Plated,PTH,ComponentDrill
T4C0.610
; #@! TA.AperFunction,Plated,PTH,ComponentDrill
T5C0.925
; #@! TA.AperFunction,Plated,PTH,ComponentDrill
T6C1.000
%
G90
G05
T1
X23495Y-38608
X23622Y-48641
X23749Y-44958
X24511Y-52578
X25146Y-57658
X25273Y-49657
X25525Y-37550
X26416Y-60706
X27559Y-37719
X28448Y-43053
X28956Y-46863
X28956Y-47879
X28956Y-49403
X28956Y-50292
X30099Y-37719
X30099Y-39751
X30099Y-59055
X30099Y-64643
X30607Y-47371
X30607Y-49403
X30607Y-51943
X32004Y-57150
X32512Y-37719
X33020Y-42418
X33020Y-47498
X33020Y-58166
X33147Y-45085
X33147Y-49911
X33147Y-53594
X34036Y-59182
X34925Y-40132
X35052Y-60198
X35433Y-34417
X35687Y-55372
X36576Y-34036
X36576Y-37973
X36576Y-60325
X36703Y-42291
X36703Y-43815
X36703Y-45339
X36703Y-46863
X36703Y-48387
X36703Y-49911
X36703Y-51816
X36703Y-53594
X36957Y-56642
X37084Y-32004
X38227Y-54991
X38354Y-60325
X38481Y-40132
X38735Y-37465
X38735Y-46863
X39497Y-32004
X39624Y-54991
X39624Y-56134
X40005Y-43942
X40132Y-60325
X40259Y-39497
X40259Y-40767
X40259Y-41783
X40259Y-42799
X40259Y-46863
X40259Y-48514
X40259Y-49911
X40259Y-53086
X41910Y-60325
X42926Y-42799
X42926Y-44069
X43180Y-52451
X43180Y-53594
X43688Y-60325
X43815Y-41275
X43942Y-42799
X43942Y-44069
X44450Y-52451
X44450Y-53594
X45593Y-60325
X45720Y-37465
X45847Y-52451
X45847Y-53594
X46863Y-40640
X46863Y-41656
X46863Y-49149
X46863Y-50165
X47244Y-38735
X47498Y-60325
X47752Y-50800
X47879Y-43815
X47879Y-46101
X49149Y-47625
X49149Y-51054
X49276Y-60325
X50038Y-39116
X50165Y-33020
X50546Y-42926
X51181Y-60325
X51435Y-34290
X51689Y-49530
X52451Y-35814
X52959Y-60325
X53848Y-42672
X53848Y-49530
X53975Y-59309
X54483Y-31242
X54991Y-51181
X54991Y-58166
X55372Y-35814
X55372Y-54737
X55880Y-45847
X55880Y-57277
X55880Y-59055
X55880Y-60452
X55880Y-61976
X56007Y-31242
X56007Y-47879
X56007Y-51181
X57023Y-63119
X57023Y-64516
X57023Y-65913
X57150Y-42926
X57531Y-31242
X57912Y-57023
X57912Y-60706
X57912Y-64516
X58293Y-35814
X58928Y-47752
X58928Y-51181
X59055Y-31242
X59182Y-38862
X59182Y-40640
X59309Y-45847
X60198Y-57658
X60198Y-61468
X60198Y-65278
X60452Y-52324
X60452Y-55499
X60452Y-56769
X60452Y-59309
X60452Y-60579
X60452Y-63119
X60452Y-64389
X60675Y-33000
X60706Y-36703
X61595Y-52324
X61722Y-37465
X62230Y-40259
X62357Y-48514
X62865Y-57658
X62865Y-61468
X62865Y-65278
X63373Y-38608
X63373Y-49657
X63373Y-52832
X63373Y-54102
X63373Y-55372
X63373Y-56642
X63881Y-60452
X63881Y-61341
X63881Y-64008
X64643Y-39334
X64643Y-50927
X64770Y-66421
X65151Y-41783
X65151Y-42672
X65173Y-45466
X65532Y-53467
X65532Y-54737
X65532Y-56007
X65532Y-62484
X65532Y-64262
X66040Y-57912
X66040Y-60198
X66167Y-41783
X66167Y-42672
X66675Y-38608
X67437Y-34290
X67945Y-40005
X68199Y-38608
X68199Y-44831
X68961Y-41656
X69723Y-33147
X69723Y-42291
X69723Y-45847
X69850Y-55626
X70104Y-58420
X70485Y-34798
X70485Y-36068
X70866Y-43307
X70866Y-44831
X70866Y-46101
X70866Y-47371
X70993Y-54483
X71120Y-33147
X71120Y-57404
X71247Y-48514
X71501Y-40640
X71882Y-61595
X72136Y-53340
X72136Y-56388
X72390Y-49657
X72517Y-43307
X73025Y-44323
X73025Y-45720
X73025Y-47244
X73152Y-55372
X73406Y-60071
X73533Y-43307
X73787Y-35052
X73787Y-37821
X74168Y-54356
X74676Y-49403
X74676Y-50546
X74676Y-51816
X74676Y-53086
X74803Y-58674
X76327Y-57150
X77597Y-33401
X77597Y-36449
X77597Y-39497
T2
X51689Y-39497
X51689Y-40894
X51689Y-42291
X51689Y-43688
X56007Y-39497
X56007Y-40894
X56007Y-42291
X56007Y-43688
T4
X31623Y-59055
X31623Y-64643
X40259Y-37465
X43434Y-37465
T5
X67743Y-54408
X67743Y-56908
X67743Y-58908
X67743Y-61408
T6
X31750Y-33147
X31750Y-35687
T3
G00X68393Y-51508
M15
G01X69493Y-51508
M16
G05
G00X68393Y-64308
M15
G01X69493Y-64308
M16
G05
M30
